<svg width="1680" height="1050" viewBox="0 0 1680 1050" fill="none" xmlns="http://www.w3.org/2000/svg">
<g clip-path="url(#clip0)">
<rect width="1680" height="1050" fill="black"/>
<path d="M-10.134 198.404L-84.2679 70L-10.134 -58.4038H138.134L212.268 70L138.134 198.404H-10.134Z" fill="#15339C" stroke="black" stroke-width="3"/>
<path d="M-10.134 498.404L-84.2679 370L-10.134 241.596H138.134L212.268 370L138.134 498.404H-10.134Z" fill="#FC2525" stroke="black" stroke-width="3"/>
<path d="M-10.134 801.404L-84.2679 673L-10.134 544.596H138.134L212.268 673L138.134 801.404H-10.134Z" fill="#99D5BC" stroke="black" stroke-width="3"/>
<path d="M396.038 348.308L247.77 348.308L173.636 219.904L247.77 91.5L396.038 91.5L470.172 219.904L396.038 348.308Z" stroke="black" stroke-width="3"/>
<path d="M918.853 648.762L770.585 648.762L696.451 520.358L770.585 391.955L918.853 391.955L992.987 520.358L918.853 648.762Z" fill="#15339C" stroke="black" stroke-width="3"/>
<path d="M395.038 651.308L246.77 651.308L172.636 522.904L246.77 394.5L395.038 394.5L469.172 522.904L395.038 651.308Z" stroke="black" stroke-width="3"/>
<path d="M396.038 951.308L247.77 951.308L173.636 822.904L247.77 694.5L396.038 694.5L470.172 822.904L396.038 951.308Z" stroke="black" stroke-width="3"/>
<path d="M656.145 1100.79L507.877 1100.79L433.743 972.384L507.877 843.98L656.145 843.98L730.279 972.384L656.145 1100.79Z" stroke="black" stroke-width="3"/>
<path d="M1439.14 950.788L1290.88 950.788L1216.74 822.384L1290.88 693.98L1439.14 693.98L1513.28 822.384L1439.14 950.788Z" stroke="black" stroke-width="3"/>
<path d="M1701.85 1101.76L1553.59 1101.76L1479.45 973.358L1553.59 844.955L1701.85 844.955L1775.99 973.358L1701.85 1101.76Z" fill="#15339C" stroke="black" stroke-width="3"/>
<path d="M1439.14 647.788L1290.88 647.788L1216.74 519.384L1290.88 390.98L1439.14 390.98L1513.28 519.384L1439.14 647.788Z" stroke="black" stroke-width="3"/>
<path d="M1701.85 798.762L1553.59 798.762L1479.45 670.358L1553.59 541.955L1701.85 541.955L1775.99 670.358L1701.85 798.762Z" fill="#FC2525" stroke="black" stroke-width="3"/>
<path d="M396.038 51.3076L247.77 51.3076L173.636 -77.0962L247.77 -205.5L396.038 -205.5L470.172 -77.0962L396.038 51.3076Z" fill="#FC2525" stroke="black" stroke-width="3"/>
<path d="M656.145 200.788L507.877 200.788L433.743 72.3838L507.877 -56.02L656.145 -56.02L730.279 72.3838L656.145 200.788Z" stroke="black" stroke-width="3"/>
<path d="M916.038 45.3076L767.77 45.3076L693.636 -83.0962L767.77 -211.5L916.038 -211.5L990.172 -83.0962L916.038 45.3076Z" fill="#99D5BC" stroke="black" stroke-width="3"/>
<path d="M1176.14 194.788L1027.88 194.788L953.743 66.3838L1027.88 -62.02L1176.14 -62.02L1250.28 66.3838L1176.14 194.788Z" stroke="black" stroke-width="3"/>
<path d="M1438.85 345.762L1290.59 345.762L1216.45 217.358L1290.59 88.9546L1438.85 88.9546L1512.99 217.358L1438.85 345.762Z" stroke="black" stroke-width="3"/>
<path d="M1443.04 50.3076L1294.77 50.3076L1220.64 -78.0962L1294.77 -206.5L1443.04 -206.5L1517.17 -78.0962L1443.04 50.3076Z" fill="#FC2525" stroke="black" stroke-width="3"/>
<path d="M1702.85 201.762L1554.59 201.762L1480.45 73.3584L1554.59 -55.0454L1702.85 -55.0454L1776.99 73.3584L1702.85 201.762Z" fill="#15339C" stroke="black" stroke-width="3"/>
<path d="M1548.87 502.404L1474.73 374L1548.87 245.596H1697.13L1771.27 374L1697.13 502.404H1548.87Z" fill="#99D5BC" stroke="black" stroke-width="3"/>
<path d="M1183.04 1102.31L1034.77 1102.31L960.636 973.904L1034.77 845.5L1183.04 845.5L1257.17 973.904L1183.04 1102.31Z" stroke="black" stroke-width="3"/>
<path d="M-10.134 1104.4L-84.2679 976L-10.134 847.596H138.134L212.268 976L138.134 1104.4H-10.134Z" fill="#15339C" stroke="black" stroke-width="3"/>
<path d="M1294.87 1254.4L1220.73 1126L1294.87 997.596H1443.13L1517.27 1126L1443.13 1254.4H1294.87Z" fill="#FC2525" stroke="black" stroke-width="3"/>
<path d="M771.866 1254.4L697.732 1126L771.866 997.596H920.134L994.268 1126L920.134 1254.4H771.866Z" fill="#99D5BC" stroke="black" stroke-width="3"/>
<path d="M247.866 1250.4L173.732 1122L247.866 993.596H396.134L470.268 1122L396.134 1250.4H247.866Z" fill="#FC2525" stroke="black" stroke-width="3"/>
<path d="M-10.134 198.404L-84.2679 70L-10.134 -58.4038H138.134L212.268 70L138.134 198.404H-10.134Z" fill="#15339C" stroke="black" stroke-width="3"/>
<path d="M-10.134 498.404L-84.2679 370L-10.134 241.596H138.134L212.268 370L138.134 498.404H-10.134Z" fill="#FC2525" stroke="black" stroke-width="3"/>
<path d="M-10.134 801.404L-84.2679 673L-10.134 544.596H138.134L212.268 673L138.134 801.404H-10.134Z" fill="#99D5BC" stroke="black" stroke-width="3"/>
<path d="M396.038 348.308L247.77 348.308L173.636 219.904L247.77 91.5L396.038 91.5L470.172 219.904L396.038 348.308Z" stroke="black" stroke-width="3"/>
<path d="M1093.99 952.101L595.453 952.101L346.186 520.359L595.453 88.6169L1093.99 88.6168L1343.25 520.359L1093.99 952.101Z" fill="#15339C" stroke="black" stroke-width="3"/>
<path d="M395.038 651.308L246.77 651.308L172.636 522.904L246.77 394.5L395.038 394.5L469.172 522.904L395.038 651.308Z" fill="black" stroke="black" stroke-width="3"/>
<path d="M396.038 951.308L247.77 951.308L173.636 822.904L247.77 694.5L396.038 694.5L470.172 822.904L396.038 951.308Z" stroke="black" stroke-width="3"/>
<path d="M656.145 1100.79L507.877 1100.79L433.743 972.384L507.877 843.98L656.145 843.98L730.279 972.384L656.145 1100.79Z" fill="black" stroke="black" stroke-width="3"/>
<path d="M1439.14 950.788L1290.88 950.788L1216.74 822.384L1290.88 693.98L1439.14 693.98L1513.28 822.384L1439.14 950.788Z" stroke="black" stroke-width="3"/>
<path d="M1701.85 1101.76L1553.59 1101.76L1479.45 973.358L1553.59 844.955L1701.85 844.955L1775.99 973.358L1701.85 1101.76Z" fill="#15339C" stroke="black" stroke-width="3"/>
<path d="M1439.14 647.788L1290.88 647.788L1216.74 519.384L1290.88 390.98L1439.14 390.98L1513.28 519.384L1439.14 647.788Z" fill="black" stroke="black" stroke-width="3"/>
<path d="M1701.85 798.762L1553.59 798.762L1479.45 670.358L1553.59 541.955L1701.85 541.955L1775.99 670.358L1701.85 798.762Z" fill="#FC2525" stroke="black" stroke-width="3"/>
<path d="M396.038 51.3076L247.77 51.3076L173.636 -77.0962L247.77 -205.5L396.038 -205.5L470.172 -77.0962L396.038 51.3076Z" fill="#FC2525" stroke="black" stroke-width="3"/>
<path d="M656.145 200.788L507.877 200.788L433.743 72.3838L507.877 -56.02L656.145 -56.02L730.279 72.3838L656.145 200.788Z" fill="black" stroke="black" stroke-width="3"/>
<path d="M916.038 45.3076L767.77 45.3076L693.636 -83.0962L767.77 -211.5L916.038 -211.5L990.172 -83.0962L916.038 45.3076Z" fill="#99D5BC" stroke="black" stroke-width="3"/>
<path d="M1176.14 194.788L1027.88 194.788L953.743 66.3838L1027.88 -62.02L1176.14 -62.02L1250.28 66.3838L1176.14 194.788Z" fill="black" stroke="black" stroke-width="3"/>
<path d="M1438.85 345.762L1290.59 345.762L1216.45 217.358L1290.59 88.9546L1438.85 88.9546L1512.99 217.358L1438.85 345.762Z" stroke="black" stroke-width="3"/>
<path d="M1443.04 50.3076L1294.77 50.3076L1220.64 -78.0962L1294.77 -206.5L1443.04 -206.5L1517.17 -78.0962L1443.04 50.3076Z" fill="#FC2525" stroke="black" stroke-width="3"/>
<path d="M1702.85 201.762L1554.59 201.762L1480.45 73.3584L1554.59 -55.0454L1702.85 -55.0454L1776.99 73.3584L1702.85 201.762Z" fill="#15339C" stroke="black" stroke-width="3"/>
<path d="M1548.87 502.404L1474.73 374L1548.87 245.596H1697.13L1771.27 374L1697.13 502.404H1548.87Z" fill="#99D5BC" stroke="black" stroke-width="3"/>
<path d="M1183.04 1102.31L1034.77 1102.31L960.636 973.904L1034.77 845.5L1183.04 845.5L1257.17 973.904L1183.04 1102.31Z" fill="black" stroke="black" stroke-width="3"/>
<path d="M-10.134 1104.4L-84.2679 976L-10.134 847.596H138.134L212.268 976L138.134 1104.4H-10.134Z" fill="#15339C" stroke="black" stroke-width="3"/>
<path d="M1294.87 1254.4L1220.73 1126L1294.87 997.596H1443.13L1517.27 1126L1443.13 1254.4H1294.87Z" fill="#FC2525" stroke="black" stroke-width="3"/>
<path d="M771.866 1254.4L697.732 1126L771.866 997.596H920.134L994.268 1126L920.134 1254.4H771.866Z" fill="#99D5BC" stroke="black" stroke-width="3"/>
<path d="M247.866 1250.4L173.732 1122L247.866 993.596H396.134L470.268 1122L396.134 1250.4H247.866Z" fill="#FC2525" stroke="black" stroke-width="3"/>
<path d="M401.038 945.308L252.77 945.308L178.636 816.904L252.77 688.5L401.038 688.5L475.172 816.904L401.038 945.308Z" fill="#99D5BC" stroke="black" stroke-width="3"/>
<path d="M401.038 345.308L252.77 345.308L178.636 216.904L252.77 88.5L401.038 88.5L475.172 216.904L401.038 345.308Z" fill="#FC2525" stroke="black" stroke-width="3"/>
<path d="M1440.04 345.308L1291.77 345.308L1217.64 216.904L1291.77 88.5L1440.04 88.5L1514.17 216.904L1440.04 345.308Z" fill="#99D5BC" stroke="black" stroke-width="3"/>
<path d="M1445.04 954.308L1296.77 954.308L1222.64 825.904L1296.77 697.5L1445.04 697.5L1519.17 825.904L1445.04 954.308Z" fill="#FC2525" stroke="black" stroke-width="3"/>
<path d="M697.081 773.393L553.851 525.311L697.081 277.23L983.541 277.23L1126.77 525.311L983.541 773.393L697.081 773.393Z" fill="#99D5BC"/>
<path d="M766.904 654.808L691.904 524.904L766.904 395L916.904 395L991.904 524.904L916.904 654.808L766.904 654.808Z" fill="#FC2525"/>
</g>
<defs>
<clipPath id="clip0">
<rect width="1680" height="1050" fill="white"/>
</clipPath>
</defs>
</svg>
