<svg width="1648" height="111" viewBox="0 0 1648 111" fill="none" xmlns="http://www.w3.org/2000/svg">
<mask id="path-1-inside-1" fill="white">
<path fill-rule="evenodd" clip-rule="evenodd" d="M30.0522 3.90923C29.9961 3.70078 29.9145 3.50163 29.8061 3.31365C28.5736 1.17487 24.3501 1.29157 20.3727 3.5743C16.3954 5.85703 14.1703 9.44137 15.4029 11.5801C15.5112 11.7681 15.6427 11.9387 15.795 12.0919L15.7217 12.134L37.8637 50.5552C27.4906 60.4657 24.807 76.508 32.2922 89.4964C41.0962 104.773 60.6344 110.04 75.9319 101.261C91.2293 92.4809 96.4933 72.9791 87.6892 57.7022C80.4345 45.1136 65.8913 39.3219 52.4381 42.5857L30.1249 3.86746L30.0522 3.90923Z"/>
</mask>
<path fill-rule="evenodd" clip-rule="evenodd" d="M30.0522 3.90923C29.9961 3.70078 29.9145 3.50163 29.8061 3.31365C28.5736 1.17487 24.3501 1.29157 20.3727 3.5743C16.3954 5.85703 14.1703 9.44137 15.4029 11.5801C15.5112 11.7681 15.6427 11.9387 15.795 12.0919L15.7217 12.134L37.8637 50.5552C27.4906 60.4657 24.807 76.508 32.2922 89.4964C41.0962 104.773 60.6344 110.04 75.9319 101.261C91.2293 92.4809 96.4933 72.9791 87.6892 57.7022C80.4345 45.1136 65.8913 39.3219 52.4381 42.5857L30.1249 3.86746L30.0522 3.90923Z" fill="#15339C"/>
<path fill-rule="evenodd" clip-rule="evenodd" d="M30.0522 3.90923C29.9961 3.70078 29.9145 3.50163 29.8061 3.31365C28.5736 1.17487 24.3501 1.29157 20.3727 3.5743C16.3954 5.85703 14.1703 9.44137 15.4029 11.5801C15.5112 11.7681 15.6427 11.9387 15.795 12.0919L15.7217 12.134L37.8637 50.5552C27.4906 60.4657 24.807 76.508 32.2922 89.4964C41.0962 104.773 60.6344 110.04 75.9319 101.261C91.2293 92.4809 96.4933 72.9791 87.6892 57.7022C80.4345 45.1136 65.8913 39.3219 52.4381 42.5857L30.1249 3.86746L30.0522 3.90923Z" fill="url(#paint0_linear)"/>
<path d="M29.8061 3.31365L30.6725 2.81433L30.6725 2.81434L29.8061 3.31365ZM30.0522 3.90923L30.5499 4.77653L29.4238 5.42291L29.0865 4.16899L30.0522 3.90923ZM20.3727 3.5743L19.875 2.70699L20.3727 3.5743ZM15.4029 11.5801L16.2693 11.0808L16.2693 11.0808L15.4029 11.5801ZM15.795 12.0919L16.5041 11.3868L17.4228 12.3106L16.2928 12.9592L15.795 12.0919ZM15.7217 12.134L14.8553 12.6333L14.3551 11.7653L15.2239 11.2667L15.7217 12.134ZM37.8637 50.5552L38.7301 50.0559L39.1221 50.736L38.5545 51.2782L37.8637 50.5552ZM32.2922 89.4964L31.4258 89.9957L32.2922 89.4964ZM75.9319 101.261L75.4341 100.393L75.9319 101.261ZM87.6892 57.7022L86.8228 58.2015L86.8228 58.2015L87.6892 57.7022ZM52.4381 42.5857L52.6739 43.5575L51.9458 43.7342L51.5717 43.085L52.4381 42.5857ZM30.1249 3.86746L29.6271 3.00017L30.4929 2.50324L30.9914 3.36815L30.1249 3.86746ZM30.6725 2.81434C30.8254 3.07953 30.9398 3.35947 31.0178 3.64947L29.0865 4.16899C29.0523 4.04209 29.0035 3.92372 28.9397 3.81295L30.6725 2.81434ZM19.875 2.70699C21.9784 1.49975 24.1887 0.838853 26.0911 0.786288C27.947 0.735007 29.7848 1.27384 30.6725 2.81433L28.9397 3.81296C28.5949 3.21467 27.7046 2.74247 26.1464 2.78553C24.6346 2.8273 22.7444 3.36612 20.8705 4.4416L19.875 2.70699ZM14.5365 12.0795C13.6481 10.538 14.1061 8.67983 15.0845 7.10379C16.0872 5.48853 17.7716 3.9142 19.875 2.70699L20.8705 4.4416C18.9966 5.51712 17.5797 6.87633 16.7837 8.15862C15.9633 9.48013 15.9251 10.4836 16.2693 11.0808L14.5365 12.0795ZM15.0859 12.797C14.8742 12.5841 14.6893 12.3447 14.5365 12.0794L16.2693 11.0808C16.3331 11.1916 16.4112 11.2933 16.5041 11.3868L15.0859 12.797ZM16.2928 12.9592L16.2195 13.0013L15.2239 11.2667L15.2972 11.2246L16.2928 12.9592ZM16.5881 11.6346L38.7301 50.0559L36.9973 51.0545L14.8553 12.6333L16.5881 11.6346ZM38.5545 51.2782C28.5068 60.8779 25.9088 76.4171 33.1586 88.9971L31.4258 89.9957C23.7052 76.5988 26.4745 60.0535 37.1729 49.8321L38.5545 51.2782ZM33.1586 88.9971C41.6871 103.796 60.6148 108.899 75.4341 100.393L76.4296 102.128C60.654 111.182 40.5054 105.751 31.4258 89.9957L33.1586 88.9971ZM75.4341 100.393C90.2522 91.8887 95.3506 72.9991 86.8228 58.2015L88.5556 57.2028C97.636 72.9592 92.2065 93.0731 76.4296 102.128L75.4341 100.393ZM86.8228 58.2015C79.796 46.0084 65.7076 40.3955 52.6739 43.5575L52.2023 41.6139C66.0749 38.2484 81.073 44.2189 88.5556 57.2028L86.8228 58.2015ZM51.5717 43.085L29.2585 4.36678L30.9914 3.36815L53.3045 42.0864L51.5717 43.085ZM30.6227 4.73476L30.5499 4.77653L29.5544 3.04194L29.6271 3.00017L30.6227 4.73476Z" fill="black" mask="url(#path-1-inside-1)"/>
<mask id="path-3-inside-2" fill="white">
<path fill-rule="evenodd" clip-rule="evenodd" d="M133.052 3.90923C132.996 3.70078 132.914 3.50163 132.806 3.31365C131.574 1.17487 127.35 1.29157 123.373 3.5743C119.395 5.85703 117.17 9.44137 118.403 11.5801C118.511 11.7681 118.643 11.9387 118.795 12.0919L118.722 12.134L140.864 50.5552C130.491 60.4657 127.807 76.508 135.292 89.4964C144.096 104.773 163.634 110.04 178.932 101.261C194.229 92.4809 199.493 72.9791 190.689 57.7022C183.435 45.1136 168.891 39.3219 155.438 42.5857L133.125 3.86746L133.052 3.90923Z"/>
</mask>
<path fill-rule="evenodd" clip-rule="evenodd" d="M133.052 3.90923C132.996 3.70078 132.914 3.50163 132.806 3.31365C131.574 1.17487 127.35 1.29157 123.373 3.5743C119.395 5.85703 117.17 9.44137 118.403 11.5801C118.511 11.7681 118.643 11.9387 118.795 12.0919L118.722 12.134L140.864 50.5552C130.491 60.4657 127.807 76.508 135.292 89.4964C144.096 104.773 163.634 110.04 178.932 101.261C194.229 92.4809 199.493 72.9791 190.689 57.7022C183.435 45.1136 168.891 39.3219 155.438 42.5857L133.125 3.86746L133.052 3.90923Z" fill="#15339C"/>
<path fill-rule="evenodd" clip-rule="evenodd" d="M133.052 3.90923C132.996 3.70078 132.914 3.50163 132.806 3.31365C131.574 1.17487 127.35 1.29157 123.373 3.5743C119.395 5.85703 117.17 9.44137 118.403 11.5801C118.511 11.7681 118.643 11.9387 118.795 12.0919L118.722 12.134L140.864 50.5552C130.491 60.4657 127.807 76.508 135.292 89.4964C144.096 104.773 163.634 110.04 178.932 101.261C194.229 92.4809 199.493 72.9791 190.689 57.7022C183.435 45.1136 168.891 39.3219 155.438 42.5857L133.125 3.86746L133.052 3.90923Z" fill="url(#paint1_linear)"/>
<path d="M132.806 3.31365L133.673 2.81433L133.673 2.81434L132.806 3.31365ZM133.052 3.90923L133.55 4.77653L132.424 5.42291L132.086 4.16899L133.052 3.90923ZM123.373 3.5743L122.875 2.70699L123.373 3.5743ZM118.403 11.5801L119.269 11.0808L119.269 11.0808L118.403 11.5801ZM118.795 12.0919L119.504 11.3868L120.423 12.3106L119.293 12.9592L118.795 12.0919ZM118.722 12.134L117.855 12.6333L117.355 11.7653L118.224 11.2667L118.722 12.134ZM140.864 50.5552L141.73 50.0559L142.122 50.736L141.555 51.2782L140.864 50.5552ZM135.292 89.4964L134.426 89.9957L135.292 89.4964ZM178.932 101.261L178.434 100.393L178.932 101.261ZM190.689 57.7022L189.823 58.2015L189.823 58.2015L190.689 57.7022ZM155.438 42.5857L155.674 43.5575L154.946 43.7342L154.572 43.085L155.438 42.5857ZM133.125 3.86746L132.627 3.00017L133.493 2.50324L133.991 3.36815L133.125 3.86746ZM133.673 2.81434C133.825 3.07953 133.94 3.35947 134.018 3.64947L132.086 4.16899C132.052 4.04209 132.004 3.92372 131.94 3.81295L133.673 2.81434ZM122.875 2.70699C124.978 1.49975 127.189 0.838853 129.091 0.786288C130.947 0.735007 132.785 1.27384 133.673 2.81433L131.94 3.81296C131.595 3.21467 130.705 2.74247 129.146 2.78553C127.635 2.8273 125.744 3.36612 123.871 4.4416L122.875 2.70699ZM117.536 12.0795C116.648 10.538 117.106 8.67983 118.084 7.10379C119.087 5.48853 120.772 3.9142 122.875 2.70699L123.871 4.4416C121.997 5.51712 120.58 6.87633 119.784 8.15862C118.963 9.48013 118.925 10.4836 119.269 11.0808L117.536 12.0795ZM118.086 12.797C117.874 12.5841 117.689 12.3447 117.536 12.0794L119.269 11.0808C119.333 11.1916 119.411 11.2933 119.504 11.3868L118.086 12.797ZM119.293 12.9592L119.219 13.0013L118.224 11.2667L118.297 11.2246L119.293 12.9592ZM119.588 11.6346L141.73 50.0559L139.997 51.0545L117.855 12.6333L119.588 11.6346ZM141.555 51.2782C131.507 60.8779 128.909 76.4171 136.159 88.9971L134.426 89.9957C126.705 76.5988 129.474 60.0535 140.173 49.8321L141.555 51.2782ZM136.159 88.9971C144.687 103.796 163.615 108.899 178.434 100.393L179.43 102.128C163.654 111.182 143.505 105.751 134.426 89.9957L136.159 88.9971ZM178.434 100.393C193.252 91.8887 198.351 72.9991 189.823 58.2015L191.556 57.2028C200.636 72.9592 195.206 93.0731 179.43 102.128L178.434 100.393ZM189.823 58.2015C182.796 46.0084 168.708 40.3955 155.674 43.5575L155.202 41.6139C169.075 38.2484 184.073 44.2189 191.556 57.2028L189.823 58.2015ZM154.572 43.085L132.259 4.36678L133.991 3.36815L156.305 42.0864L154.572 43.085ZM133.623 4.73476L133.55 4.77653L132.554 3.04194L132.627 3.00017L133.623 4.73476Z" fill="black" mask="url(#path-3-inside-2)"/>
<mask id="path-5-inside-3" fill="white">
<path fill-rule="evenodd" clip-rule="evenodd" d="M236.052 3.90923C235.996 3.70078 235.914 3.50163 235.806 3.31365C234.574 1.17487 230.35 1.29157 226.373 3.5743C222.395 5.85703 220.17 9.44137 221.403 11.5801C221.511 11.7681 221.643 11.9387 221.795 12.0919L221.722 12.134L243.864 50.5552C233.491 60.4657 230.807 76.508 238.292 89.4964C247.096 104.773 266.634 110.04 281.932 101.261C297.229 92.4809 302.493 72.9791 293.689 57.7022C286.435 45.1136 271.891 39.3219 258.438 42.5857L236.125 3.86746L236.052 3.90923Z"/>
</mask>
<path fill-rule="evenodd" clip-rule="evenodd" d="M236.052 3.90923C235.996 3.70078 235.914 3.50163 235.806 3.31365C234.574 1.17487 230.35 1.29157 226.373 3.5743C222.395 5.85703 220.17 9.44137 221.403 11.5801C221.511 11.7681 221.643 11.9387 221.795 12.0919L221.722 12.134L243.864 50.5552C233.491 60.4657 230.807 76.508 238.292 89.4964C247.096 104.773 266.634 110.04 281.932 101.261C297.229 92.4809 302.493 72.9791 293.689 57.7022C286.435 45.1136 271.891 39.3219 258.438 42.5857L236.125 3.86746L236.052 3.90923Z" fill="#15339C"/>
<path fill-rule="evenodd" clip-rule="evenodd" d="M236.052 3.90923C235.996 3.70078 235.914 3.50163 235.806 3.31365C234.574 1.17487 230.35 1.29157 226.373 3.5743C222.395 5.85703 220.17 9.44137 221.403 11.5801C221.511 11.7681 221.643 11.9387 221.795 12.0919L221.722 12.134L243.864 50.5552C233.491 60.4657 230.807 76.508 238.292 89.4964C247.096 104.773 266.634 110.04 281.932 101.261C297.229 92.4809 302.493 72.9791 293.689 57.7022C286.435 45.1136 271.891 39.3219 258.438 42.5857L236.125 3.86746L236.052 3.90923Z" fill="url(#paint2_linear)"/>
<path d="M235.806 3.31365L236.673 2.81433L236.673 2.81434L235.806 3.31365ZM236.052 3.90923L236.55 4.77653L235.424 5.42291L235.086 4.16899L236.052 3.90923ZM226.373 3.5743L225.875 2.70699L226.373 3.5743ZM221.403 11.5801L222.269 11.0808L222.269 11.0808L221.403 11.5801ZM221.795 12.0919L222.504 11.3868L223.423 12.3106L222.293 12.9592L221.795 12.0919ZM221.722 12.134L220.855 12.6333L220.355 11.7653L221.224 11.2667L221.722 12.134ZM243.864 50.5552L244.73 50.0559L245.122 50.736L244.555 51.2782L243.864 50.5552ZM238.292 89.4964L237.426 89.9957L238.292 89.4964ZM281.932 101.261L281.434 100.393L281.932 101.261ZM293.689 57.7022L292.823 58.2015L292.823 58.2015L293.689 57.7022ZM258.438 42.5857L258.674 43.5575L257.946 43.7342L257.572 43.085L258.438 42.5857ZM236.125 3.86746L235.627 3.00017L236.493 2.50324L236.991 3.36815L236.125 3.86746ZM236.673 2.81434C236.825 3.07953 236.94 3.35947 237.018 3.64947L235.086 4.16899C235.052 4.04209 235.004 3.92372 234.94 3.81295L236.673 2.81434ZM225.875 2.70699C227.978 1.49975 230.189 0.838853 232.091 0.786288C233.947 0.735007 235.785 1.27384 236.673 2.81433L234.94 3.81296C234.595 3.21467 233.705 2.74247 232.146 2.78553C230.635 2.8273 228.744 3.36612 226.871 4.4416L225.875 2.70699ZM220.536 12.0795C219.648 10.538 220.106 8.67983 221.084 7.10379C222.087 5.48853 223.772 3.9142 225.875 2.70699L226.871 4.4416C224.997 5.51712 223.58 6.87633 222.784 8.15862C221.963 9.48013 221.925 10.4836 222.269 11.0808L220.536 12.0795ZM221.086 12.797C220.874 12.5841 220.689 12.3447 220.536 12.0794L222.269 11.0808C222.333 11.1916 222.411 11.2933 222.504 11.3868L221.086 12.797ZM222.293 12.9592L222.219 13.0013L221.224 11.2667L221.297 11.2246L222.293 12.9592ZM222.588 11.6346L244.73 50.0559L242.997 51.0545L220.855 12.6333L222.588 11.6346ZM244.555 51.2782C234.507 60.8779 231.909 76.4171 239.159 88.9971L237.426 89.9957C229.705 76.5988 232.474 60.0535 243.173 49.8321L244.555 51.2782ZM239.159 88.9971C247.687 103.796 266.615 108.899 281.434 100.393L282.43 102.128C266.654 111.182 246.505 105.751 237.426 89.9957L239.159 88.9971ZM281.434 100.393C296.252 91.8887 301.351 72.9991 292.823 58.2015L294.556 57.2028C303.636 72.9592 298.206 93.0731 282.43 102.128L281.434 100.393ZM292.823 58.2015C285.796 46.0084 271.708 40.3955 258.674 43.5575L258.202 41.6139C272.075 38.2484 287.073 44.2189 294.556 57.2028L292.823 58.2015ZM257.572 43.085L235.259 4.36678L236.991 3.36815L259.305 42.0864L257.572 43.085ZM236.623 4.73476L236.55 4.77653L235.554 3.04194L235.627 3.00017L236.623 4.73476Z" fill="black" mask="url(#path-5-inside-3)"/>
<mask id="path-7-inside-4" fill="white">
<path fill-rule="evenodd" clip-rule="evenodd" d="M339.052 3.90923C338.996 3.70078 338.914 3.50163 338.806 3.31365C337.574 1.17487 333.35 1.29157 329.373 3.5743C325.395 5.85703 323.17 9.44137 324.403 11.5801C324.511 11.7681 324.643 11.9387 324.795 12.0919L324.722 12.134L346.864 50.5552C336.491 60.4657 333.807 76.508 341.292 89.4964C350.096 104.773 369.634 110.04 384.932 101.261C400.229 92.4809 405.493 72.9791 396.689 57.7022C389.435 45.1136 374.891 39.3219 361.438 42.5857L339.125 3.86746L339.052 3.90923Z"/>
</mask>
<path fill-rule="evenodd" clip-rule="evenodd" d="M339.052 3.90923C338.996 3.70078 338.914 3.50163 338.806 3.31365C337.574 1.17487 333.35 1.29157 329.373 3.5743C325.395 5.85703 323.17 9.44137 324.403 11.5801C324.511 11.7681 324.643 11.9387 324.795 12.0919L324.722 12.134L346.864 50.5552C336.491 60.4657 333.807 76.508 341.292 89.4964C350.096 104.773 369.634 110.04 384.932 101.261C400.229 92.4809 405.493 72.9791 396.689 57.7022C389.435 45.1136 374.891 39.3219 361.438 42.5857L339.125 3.86746L339.052 3.90923Z" fill="#15339C"/>
<path fill-rule="evenodd" clip-rule="evenodd" d="M339.052 3.90923C338.996 3.70078 338.914 3.50163 338.806 3.31365C337.574 1.17487 333.35 1.29157 329.373 3.5743C325.395 5.85703 323.17 9.44137 324.403 11.5801C324.511 11.7681 324.643 11.9387 324.795 12.0919L324.722 12.134L346.864 50.5552C336.491 60.4657 333.807 76.508 341.292 89.4964C350.096 104.773 369.634 110.04 384.932 101.261C400.229 92.4809 405.493 72.9791 396.689 57.7022C389.435 45.1136 374.891 39.3219 361.438 42.5857L339.125 3.86746L339.052 3.90923Z" fill="url(#paint3_linear)"/>
<path d="M338.806 3.31365L339.673 2.81433L339.673 2.81434L338.806 3.31365ZM339.052 3.90923L339.55 4.77653L338.424 5.42291L338.086 4.16899L339.052 3.90923ZM329.373 3.5743L328.875 2.70699L329.373 3.5743ZM324.403 11.5801L325.269 11.0808L325.269 11.0808L324.403 11.5801ZM324.795 12.0919L325.504 11.3868L326.423 12.3106L325.293 12.9592L324.795 12.0919ZM324.722 12.134L323.855 12.6333L323.355 11.7653L324.224 11.2667L324.722 12.134ZM346.864 50.5552L347.73 50.0559L348.122 50.736L347.555 51.2782L346.864 50.5552ZM341.292 89.4964L340.426 89.9957L341.292 89.4964ZM384.932 101.261L384.434 100.393L384.932 101.261ZM396.689 57.7022L395.823 58.2015L395.823 58.2015L396.689 57.7022ZM361.438 42.5857L361.674 43.5575L360.946 43.7342L360.572 43.085L361.438 42.5857ZM339.125 3.86746L338.627 3.00017L339.493 2.50324L339.991 3.36815L339.125 3.86746ZM339.673 2.81434C339.825 3.07953 339.94 3.35947 340.018 3.64947L338.086 4.16899C338.052 4.04209 338.004 3.92372 337.94 3.81295L339.673 2.81434ZM328.875 2.70699C330.978 1.49975 333.189 0.838853 335.091 0.786288C336.947 0.735007 338.785 1.27384 339.673 2.81433L337.94 3.81296C337.595 3.21467 336.705 2.74247 335.146 2.78553C333.635 2.8273 331.744 3.36612 329.871 4.4416L328.875 2.70699ZM323.536 12.0795C322.648 10.538 323.106 8.67983 324.084 7.10379C325.087 5.48853 326.772 3.9142 328.875 2.70699L329.871 4.4416C327.997 5.51712 326.58 6.87633 325.784 8.15862C324.963 9.48013 324.925 10.4836 325.269 11.0808L323.536 12.0795ZM324.086 12.797C323.874 12.5841 323.689 12.3447 323.536 12.0794L325.269 11.0808C325.333 11.1916 325.411 11.2933 325.504 11.3868L324.086 12.797ZM325.293 12.9592L325.219 13.0013L324.224 11.2667L324.297 11.2246L325.293 12.9592ZM325.588 11.6346L347.73 50.0559L345.997 51.0545L323.855 12.6333L325.588 11.6346ZM347.555 51.2782C337.507 60.8779 334.909 76.4171 342.159 88.9971L340.426 89.9957C332.705 76.5988 335.474 60.0535 346.173 49.8321L347.555 51.2782ZM342.159 88.9971C350.687 103.796 369.615 108.899 384.434 100.393L385.43 102.128C369.654 111.182 349.505 105.751 340.426 89.9957L342.159 88.9971ZM384.434 100.393C399.252 91.8887 404.351 72.9991 395.823 58.2015L397.556 57.2028C406.636 72.9592 401.206 93.0731 385.43 102.128L384.434 100.393ZM395.823 58.2015C388.796 46.0084 374.708 40.3955 361.674 43.5575L361.202 41.6139C375.075 38.2484 390.073 44.2189 397.556 57.2028L395.823 58.2015ZM360.572 43.085L338.259 4.36678L339.991 3.36815L362.305 42.0864L360.572 43.085ZM339.623 4.73476L339.55 4.77653L338.554 3.04194L338.627 3.00017L339.623 4.73476Z" fill="black" mask="url(#path-7-inside-4)"/>
<mask id="path-9-inside-5" fill="white">
<path fill-rule="evenodd" clip-rule="evenodd" d="M442.052 3.90923C441.996 3.70078 441.914 3.50163 441.806 3.31365C440.574 1.17487 436.35 1.29157 432.373 3.5743C428.395 5.85703 426.17 9.44137 427.403 11.5801C427.511 11.7681 427.643 11.9387 427.795 12.0919L427.722 12.134L449.864 50.5552C439.491 60.4657 436.807 76.508 444.292 89.4964C453.096 104.773 472.634 110.04 487.932 101.261C503.229 92.4809 508.493 72.9791 499.689 57.7022C492.435 45.1136 477.891 39.3219 464.438 42.5857L442.125 3.86746L442.052 3.90923Z"/>
</mask>
<path fill-rule="evenodd" clip-rule="evenodd" d="M442.052 3.90923C441.996 3.70078 441.914 3.50163 441.806 3.31365C440.574 1.17487 436.35 1.29157 432.373 3.5743C428.395 5.85703 426.17 9.44137 427.403 11.5801C427.511 11.7681 427.643 11.9387 427.795 12.0919L427.722 12.134L449.864 50.5552C439.491 60.4657 436.807 76.508 444.292 89.4964C453.096 104.773 472.634 110.04 487.932 101.261C503.229 92.4809 508.493 72.9791 499.689 57.7022C492.435 45.1136 477.891 39.3219 464.438 42.5857L442.125 3.86746L442.052 3.90923Z" fill="#15339C"/>
<path fill-rule="evenodd" clip-rule="evenodd" d="M442.052 3.90923C441.996 3.70078 441.914 3.50163 441.806 3.31365C440.574 1.17487 436.35 1.29157 432.373 3.5743C428.395 5.85703 426.17 9.44137 427.403 11.5801C427.511 11.7681 427.643 11.9387 427.795 12.0919L427.722 12.134L449.864 50.5552C439.491 60.4657 436.807 76.508 444.292 89.4964C453.096 104.773 472.634 110.04 487.932 101.261C503.229 92.4809 508.493 72.9791 499.689 57.7022C492.435 45.1136 477.891 39.3219 464.438 42.5857L442.125 3.86746L442.052 3.90923Z" fill="url(#paint4_linear)"/>
<path d="M441.806 3.31365L442.673 2.81433L442.673 2.81434L441.806 3.31365ZM442.052 3.90923L442.55 4.77653L441.424 5.42291L441.086 4.16899L442.052 3.90923ZM432.373 3.5743L431.875 2.70699L432.373 3.5743ZM427.403 11.5801L428.269 11.0808L428.269 11.0808L427.403 11.5801ZM427.795 12.0919L428.504 11.3868L429.423 12.3106L428.293 12.9592L427.795 12.0919ZM427.722 12.134L426.855 12.6333L426.355 11.7653L427.224 11.2667L427.722 12.134ZM449.864 50.5552L450.73 50.0559L451.122 50.736L450.555 51.2782L449.864 50.5552ZM444.292 89.4964L443.426 89.9957L444.292 89.4964ZM487.932 101.261L487.434 100.393L487.932 101.261ZM499.689 57.7022L498.823 58.2015L498.823 58.2015L499.689 57.7022ZM464.438 42.5857L464.674 43.5575L463.946 43.7342L463.572 43.085L464.438 42.5857ZM442.125 3.86746L441.627 3.00017L442.493 2.50324L442.991 3.36815L442.125 3.86746ZM442.673 2.81434C442.825 3.07953 442.94 3.35947 443.018 3.64947L441.086 4.16899C441.052 4.04209 441.004 3.92372 440.94 3.81295L442.673 2.81434ZM431.875 2.70699C433.978 1.49975 436.189 0.838853 438.091 0.786288C439.947 0.735007 441.785 1.27384 442.673 2.81433L440.94 3.81296C440.595 3.21467 439.705 2.74247 438.146 2.78553C436.635 2.8273 434.744 3.36612 432.871 4.4416L431.875 2.70699ZM426.536 12.0795C425.648 10.538 426.106 8.67983 427.084 7.10379C428.087 5.48853 429.772 3.9142 431.875 2.70699L432.871 4.4416C430.997 5.51712 429.58 6.87633 428.784 8.15862C427.963 9.48013 427.925 10.4836 428.269 11.0808L426.536 12.0795ZM427.086 12.797C426.874 12.5841 426.689 12.3447 426.536 12.0794L428.269 11.0808C428.333 11.1916 428.411 11.2933 428.504 11.3868L427.086 12.797ZM428.293 12.9592L428.219 13.0013L427.224 11.2667L427.297 11.2246L428.293 12.9592ZM428.588 11.6346L450.73 50.0559L448.997 51.0545L426.855 12.6333L428.588 11.6346ZM450.555 51.2782C440.507 60.8779 437.909 76.4171 445.159 88.9971L443.426 89.9957C435.705 76.5988 438.474 60.0535 449.173 49.8321L450.555 51.2782ZM445.159 88.9971C453.687 103.796 472.615 108.899 487.434 100.393L488.43 102.128C472.654 111.182 452.505 105.751 443.426 89.9957L445.159 88.9971ZM487.434 100.393C502.252 91.8887 507.351 72.9991 498.823 58.2015L500.556 57.2028C509.636 72.9592 504.206 93.0731 488.43 102.128L487.434 100.393ZM498.823 58.2015C491.796 46.0084 477.708 40.3955 464.674 43.5575L464.202 41.6139C478.075 38.2484 493.073 44.2189 500.556 57.2028L498.823 58.2015ZM463.572 43.085L441.259 4.36678L442.991 3.36815L465.305 42.0864L463.572 43.085ZM442.623 4.73476L442.55 4.77653L441.554 3.04194L441.627 3.00017L442.623 4.73476Z" fill="black" mask="url(#path-9-inside-5)"/>
<mask id="path-11-inside-6" fill="white">
<path fill-rule="evenodd" clip-rule="evenodd" d="M545.052 3.90923C544.996 3.70078 544.914 3.50163 544.806 3.31365C543.574 1.17487 539.35 1.29157 535.373 3.5743C531.395 5.85703 529.17 9.44137 530.403 11.5801C530.511 11.7681 530.643 11.9387 530.795 12.0919L530.722 12.134L552.864 50.5552C542.491 60.4657 539.807 76.508 547.292 89.4964C556.096 104.773 575.634 110.04 590.932 101.261C606.229 92.4809 611.493 72.9791 602.689 57.7022C595.435 45.1136 580.891 39.3219 567.438 42.5857L545.125 3.86746L545.052 3.90923Z"/>
</mask>
<path fill-rule="evenodd" clip-rule="evenodd" d="M545.052 3.90923C544.996 3.70078 544.914 3.50163 544.806 3.31365C543.574 1.17487 539.35 1.29157 535.373 3.5743C531.395 5.85703 529.17 9.44137 530.403 11.5801C530.511 11.7681 530.643 11.9387 530.795 12.0919L530.722 12.134L552.864 50.5552C542.491 60.4657 539.807 76.508 547.292 89.4964C556.096 104.773 575.634 110.04 590.932 101.261C606.229 92.4809 611.493 72.9791 602.689 57.7022C595.435 45.1136 580.891 39.3219 567.438 42.5857L545.125 3.86746L545.052 3.90923Z" fill="#15339C"/>
<path fill-rule="evenodd" clip-rule="evenodd" d="M545.052 3.90923C544.996 3.70078 544.914 3.50163 544.806 3.31365C543.574 1.17487 539.35 1.29157 535.373 3.5743C531.395 5.85703 529.17 9.44137 530.403 11.5801C530.511 11.7681 530.643 11.9387 530.795 12.0919L530.722 12.134L552.864 50.5552C542.491 60.4657 539.807 76.508 547.292 89.4964C556.096 104.773 575.634 110.04 590.932 101.261C606.229 92.4809 611.493 72.9791 602.689 57.7022C595.435 45.1136 580.891 39.3219 567.438 42.5857L545.125 3.86746L545.052 3.90923Z" fill="url(#paint5_linear)"/>
<path d="M544.806 3.31365L545.673 2.81433L545.673 2.81434L544.806 3.31365ZM545.052 3.90923L545.55 4.77653L544.424 5.42291L544.086 4.16899L545.052 3.90923ZM535.373 3.5743L534.875 2.70699L535.373 3.5743ZM530.403 11.5801L531.269 11.0808L531.269 11.0808L530.403 11.5801ZM530.795 12.0919L531.504 11.3868L532.423 12.3106L531.293 12.9592L530.795 12.0919ZM530.722 12.134L529.855 12.6333L529.355 11.7653L530.224 11.2667L530.722 12.134ZM552.864 50.5552L553.73 50.0559L554.122 50.736L553.555 51.2782L552.864 50.5552ZM547.292 89.4964L546.426 89.9957L547.292 89.4964ZM590.932 101.261L590.434 100.393L590.932 101.261ZM602.689 57.7022L601.823 58.2015L601.823 58.2015L602.689 57.7022ZM567.438 42.5857L567.674 43.5575L566.946 43.7342L566.572 43.085L567.438 42.5857ZM545.125 3.86746L544.627 3.00017L545.493 2.50324L545.991 3.36815L545.125 3.86746ZM545.673 2.81434C545.825 3.07953 545.94 3.35947 546.018 3.64947L544.086 4.16899C544.052 4.04209 544.004 3.92372 543.94 3.81295L545.673 2.81434ZM534.875 2.70699C536.978 1.49975 539.189 0.838853 541.091 0.786288C542.947 0.735007 544.785 1.27384 545.673 2.81433L543.94 3.81296C543.595 3.21467 542.705 2.74247 541.146 2.78553C539.635 2.8273 537.744 3.36612 535.871 4.4416L534.875 2.70699ZM529.536 12.0795C528.648 10.538 529.106 8.67983 530.084 7.10379C531.087 5.48853 532.772 3.9142 534.875 2.70699L535.871 4.4416C533.997 5.51712 532.58 6.87633 531.784 8.15862C530.963 9.48013 530.925 10.4836 531.269 11.0808L529.536 12.0795ZM530.086 12.797C529.874 12.5841 529.689 12.3447 529.536 12.0794L531.269 11.0808C531.333 11.1916 531.411 11.2933 531.504 11.3868L530.086 12.797ZM531.293 12.9592L531.219 13.0013L530.224 11.2667L530.297 11.2246L531.293 12.9592ZM531.588 11.6346L553.73 50.0559L551.997 51.0545L529.855 12.6333L531.588 11.6346ZM553.555 51.2782C543.507 60.8779 540.909 76.4171 548.159 88.9971L546.426 89.9957C538.705 76.5988 541.474 60.0535 552.173 49.8321L553.555 51.2782ZM548.159 88.9971C556.687 103.796 575.615 108.899 590.434 100.393L591.43 102.128C575.654 111.182 555.505 105.751 546.426 89.9957L548.159 88.9971ZM590.434 100.393C605.252 91.8887 610.351 72.9991 601.823 58.2015L603.556 57.2028C612.636 72.9592 607.206 93.0731 591.43 102.128L590.434 100.393ZM601.823 58.2015C594.796 46.0084 580.708 40.3955 567.674 43.5575L567.202 41.6139C581.075 38.2484 596.073 44.2189 603.556 57.2028L601.823 58.2015ZM566.572 43.085L544.259 4.36678L545.991 3.36815L568.305 42.0864L566.572 43.085ZM545.623 4.73476L545.55 4.77653L544.554 3.04194L544.627 3.00017L545.623 4.73476Z" fill="black" mask="url(#path-11-inside-6)"/>
<mask id="path-13-inside-7" fill="white">
<path fill-rule="evenodd" clip-rule="evenodd" d="M648.052 3.90923C647.996 3.70078 647.914 3.50163 647.806 3.31365C646.574 1.17487 642.35 1.29157 638.373 3.5743C634.395 5.85703 632.17 9.44137 633.403 11.5801C633.511 11.7681 633.643 11.9387 633.795 12.0919L633.722 12.134L655.864 50.5552C645.491 60.4657 642.807 76.508 650.292 89.4964C659.096 104.773 678.634 110.04 693.932 101.261C709.229 92.4809 714.493 72.9791 705.689 57.7022C698.435 45.1136 683.891 39.3219 670.438 42.5857L648.125 3.86746L648.052 3.90923Z"/>
</mask>
<path fill-rule="evenodd" clip-rule="evenodd" d="M648.052 3.90923C647.996 3.70078 647.914 3.50163 647.806 3.31365C646.574 1.17487 642.35 1.29157 638.373 3.5743C634.395 5.85703 632.17 9.44137 633.403 11.5801C633.511 11.7681 633.643 11.9387 633.795 12.0919L633.722 12.134L655.864 50.5552C645.491 60.4657 642.807 76.508 650.292 89.4964C659.096 104.773 678.634 110.04 693.932 101.261C709.229 92.4809 714.493 72.9791 705.689 57.7022C698.435 45.1136 683.891 39.3219 670.438 42.5857L648.125 3.86746L648.052 3.90923Z" fill="#15339C"/>
<path fill-rule="evenodd" clip-rule="evenodd" d="M648.052 3.90923C647.996 3.70078 647.914 3.50163 647.806 3.31365C646.574 1.17487 642.35 1.29157 638.373 3.5743C634.395 5.85703 632.17 9.44137 633.403 11.5801C633.511 11.7681 633.643 11.9387 633.795 12.0919L633.722 12.134L655.864 50.5552C645.491 60.4657 642.807 76.508 650.292 89.4964C659.096 104.773 678.634 110.04 693.932 101.261C709.229 92.4809 714.493 72.9791 705.689 57.7022C698.435 45.1136 683.891 39.3219 670.438 42.5857L648.125 3.86746L648.052 3.90923Z" fill="url(#paint6_linear)"/>
<path d="M647.806 3.31365L648.673 2.81433L648.673 2.81434L647.806 3.31365ZM648.052 3.90923L648.55 4.77653L647.424 5.42291L647.086 4.16899L648.052 3.90923ZM638.373 3.5743L637.875 2.70699L638.373 3.5743ZM633.403 11.5801L634.269 11.0808L634.269 11.0808L633.403 11.5801ZM633.795 12.0919L634.504 11.3868L635.423 12.3106L634.293 12.9592L633.795 12.0919ZM633.722 12.134L632.855 12.6333L632.355 11.7653L633.224 11.2667L633.722 12.134ZM655.864 50.5552L656.73 50.0559L657.122 50.736L656.555 51.2782L655.864 50.5552ZM650.292 89.4964L649.426 89.9957L650.292 89.4964ZM693.932 101.261L693.434 100.393L693.932 101.261ZM705.689 57.7022L704.823 58.2015L704.823 58.2015L705.689 57.7022ZM670.438 42.5857L670.674 43.5575L669.946 43.7342L669.572 43.085L670.438 42.5857ZM648.125 3.86746L647.627 3.00017L648.493 2.50324L648.991 3.36815L648.125 3.86746ZM648.673 2.81434C648.825 3.07953 648.94 3.35947 649.018 3.64947L647.086 4.16899C647.052 4.04209 647.004 3.92372 646.94 3.81295L648.673 2.81434ZM637.875 2.70699C639.978 1.49975 642.189 0.838853 644.091 0.786288C645.947 0.735007 647.785 1.27384 648.673 2.81433L646.94 3.81296C646.595 3.21467 645.705 2.74247 644.146 2.78553C642.635 2.8273 640.744 3.36612 638.871 4.4416L637.875 2.70699ZM632.536 12.0795C631.648 10.538 632.106 8.67983 633.084 7.10379C634.087 5.48853 635.772 3.9142 637.875 2.70699L638.871 4.4416C636.997 5.51712 635.58 6.87633 634.784 8.15862C633.963 9.48013 633.925 10.4836 634.269 11.0808L632.536 12.0795ZM633.086 12.797C632.874 12.5841 632.689 12.3447 632.536 12.0794L634.269 11.0808C634.333 11.1916 634.411 11.2933 634.504 11.3868L633.086 12.797ZM634.293 12.9592L634.219 13.0013L633.224 11.2667L633.297 11.2246L634.293 12.9592ZM634.588 11.6346L656.73 50.0559L654.997 51.0545L632.855 12.6333L634.588 11.6346ZM656.555 51.2782C646.507 60.8779 643.909 76.4171 651.159 88.9971L649.426 89.9957C641.705 76.5988 644.474 60.0535 655.173 49.8321L656.555 51.2782ZM651.159 88.9971C659.687 103.796 678.615 108.899 693.434 100.393L694.43 102.128C678.654 111.182 658.505 105.751 649.426 89.9957L651.159 88.9971ZM693.434 100.393C708.252 91.8887 713.351 72.9991 704.823 58.2015L706.556 57.2028C715.636 72.9592 710.206 93.0731 694.43 102.128L693.434 100.393ZM704.823 58.2015C697.796 46.0084 683.708 40.3955 670.674 43.5575L670.202 41.6139C684.075 38.2484 699.073 44.2189 706.556 57.2028L704.823 58.2015ZM669.572 43.085L647.259 4.36678L648.991 3.36815L671.305 42.0864L669.572 43.085ZM648.623 4.73476L648.55 4.77653L647.554 3.04194L647.627 3.00017L648.623 4.73476Z" fill="black" mask="url(#path-13-inside-7)"/>
<mask id="path-15-inside-8" fill="white">
<path fill-rule="evenodd" clip-rule="evenodd" d="M751.052 3.90923C750.996 3.70078 750.914 3.50163 750.806 3.31365C749.574 1.17487 745.35 1.29157 741.373 3.5743C737.395 5.85703 735.17 9.44137 736.403 11.5801C736.511 11.7681 736.643 11.9387 736.795 12.0919L736.722 12.134L758.864 50.5552C748.491 60.4657 745.807 76.508 753.292 89.4964C762.096 104.773 781.634 110.04 796.932 101.261C812.229 92.4809 817.493 72.9791 808.689 57.7022C801.435 45.1136 786.891 39.3219 773.438 42.5857L751.125 3.86746L751.052 3.90923Z"/>
</mask>
<path fill-rule="evenodd" clip-rule="evenodd" d="M751.052 3.90923C750.996 3.70078 750.914 3.50163 750.806 3.31365C749.574 1.17487 745.35 1.29157 741.373 3.5743C737.395 5.85703 735.17 9.44137 736.403 11.5801C736.511 11.7681 736.643 11.9387 736.795 12.0919L736.722 12.134L758.864 50.5552C748.491 60.4657 745.807 76.508 753.292 89.4964C762.096 104.773 781.634 110.04 796.932 101.261C812.229 92.4809 817.493 72.9791 808.689 57.7022C801.435 45.1136 786.891 39.3219 773.438 42.5857L751.125 3.86746L751.052 3.90923Z" fill="#15339C"/>
<path fill-rule="evenodd" clip-rule="evenodd" d="M751.052 3.90923C750.996 3.70078 750.914 3.50163 750.806 3.31365C749.574 1.17487 745.35 1.29157 741.373 3.5743C737.395 5.85703 735.17 9.44137 736.403 11.5801C736.511 11.7681 736.643 11.9387 736.795 12.0919L736.722 12.134L758.864 50.5552C748.491 60.4657 745.807 76.508 753.292 89.4964C762.096 104.773 781.634 110.04 796.932 101.261C812.229 92.4809 817.493 72.9791 808.689 57.7022C801.435 45.1136 786.891 39.3219 773.438 42.5857L751.125 3.86746L751.052 3.90923Z" fill="url(#paint7_linear)"/>
<path d="M750.806 3.31365L751.673 2.81433L751.673 2.81434L750.806 3.31365ZM751.052 3.90923L751.55 4.77653L750.424 5.42291L750.086 4.16899L751.052 3.90923ZM741.373 3.5743L740.875 2.70699L741.373 3.5743ZM736.403 11.5801L737.269 11.0808L737.269 11.0808L736.403 11.5801ZM736.795 12.0919L737.504 11.3868L738.423 12.3106L737.293 12.9592L736.795 12.0919ZM736.722 12.134L735.855 12.6333L735.355 11.7653L736.224 11.2667L736.722 12.134ZM758.864 50.5552L759.73 50.0559L760.122 50.736L759.555 51.2782L758.864 50.5552ZM753.292 89.4964L752.426 89.9957L753.292 89.4964ZM796.932 101.261L796.434 100.393L796.932 101.261ZM808.689 57.7022L807.823 58.2015L807.823 58.2015L808.689 57.7022ZM773.438 42.5857L773.674 43.5575L772.946 43.7342L772.572 43.085L773.438 42.5857ZM751.125 3.86746L750.627 3.00017L751.493 2.50324L751.991 3.36815L751.125 3.86746ZM751.673 2.81434C751.825 3.07953 751.94 3.35947 752.018 3.64947L750.086 4.16899C750.052 4.04209 750.004 3.92372 749.94 3.81295L751.673 2.81434ZM740.875 2.70699C742.978 1.49975 745.189 0.838853 747.091 0.786288C748.947 0.735007 750.785 1.27384 751.673 2.81433L749.94 3.81296C749.595 3.21467 748.705 2.74247 747.146 2.78553C745.635 2.8273 743.744 3.36612 741.871 4.4416L740.875 2.70699ZM735.536 12.0795C734.648 10.538 735.106 8.67983 736.084 7.10379C737.087 5.48853 738.772 3.9142 740.875 2.70699L741.871 4.4416C739.997 5.51712 738.58 6.87633 737.784 8.15862C736.963 9.48013 736.925 10.4836 737.269 11.0808L735.536 12.0795ZM736.086 12.797C735.874 12.5841 735.689 12.3447 735.536 12.0794L737.269 11.0808C737.333 11.1916 737.411 11.2933 737.504 11.3868L736.086 12.797ZM737.293 12.9592L737.219 13.0013L736.224 11.2667L736.297 11.2246L737.293 12.9592ZM737.588 11.6346L759.73 50.0559L757.997 51.0545L735.855 12.6333L737.588 11.6346ZM759.555 51.2782C749.507 60.8779 746.909 76.4171 754.159 88.9971L752.426 89.9957C744.705 76.5988 747.474 60.0535 758.173 49.8321L759.555 51.2782ZM754.159 88.9971C762.687 103.796 781.615 108.899 796.434 100.393L797.43 102.128C781.654 111.182 761.505 105.751 752.426 89.9957L754.159 88.9971ZM796.434 100.393C811.252 91.8887 816.351 72.9991 807.823 58.2015L809.556 57.2028C818.636 72.9592 813.206 93.0731 797.43 102.128L796.434 100.393ZM807.823 58.2015C800.796 46.0084 786.708 40.3955 773.674 43.5575L773.202 41.6139C787.075 38.2484 802.073 44.2189 809.556 57.2028L807.823 58.2015ZM772.572 43.085L750.259 4.36678L751.991 3.36815L774.305 42.0864L772.572 43.085ZM751.623 4.73476L751.55 4.77653L750.554 3.04194L750.627 3.00017L751.623 4.73476Z" fill="black" mask="url(#path-15-inside-8)"/>
<mask id="path-17-inside-9" fill="white">
<path fill-rule="evenodd" clip-rule="evenodd" d="M854.052 3.90923C853.996 3.70078 853.914 3.50163 853.806 3.31365C852.574 1.17487 848.35 1.29157 844.373 3.5743C840.395 5.85703 838.17 9.44137 839.403 11.5801C839.511 11.7681 839.643 11.9387 839.795 12.0919L839.722 12.134L861.864 50.5552C851.491 60.4657 848.807 76.508 856.292 89.4964C865.096 104.773 884.634 110.04 899.932 101.261C915.229 92.4809 920.493 72.9791 911.689 57.7022C904.435 45.1136 889.891 39.3219 876.438 42.5857L854.125 3.86746L854.052 3.90923Z"/>
</mask>
<path fill-rule="evenodd" clip-rule="evenodd" d="M854.052 3.90923C853.996 3.70078 853.914 3.50163 853.806 3.31365C852.574 1.17487 848.35 1.29157 844.373 3.5743C840.395 5.85703 838.17 9.44137 839.403 11.5801C839.511 11.7681 839.643 11.9387 839.795 12.0919L839.722 12.134L861.864 50.5552C851.491 60.4657 848.807 76.508 856.292 89.4964C865.096 104.773 884.634 110.04 899.932 101.261C915.229 92.4809 920.493 72.9791 911.689 57.7022C904.435 45.1136 889.891 39.3219 876.438 42.5857L854.125 3.86746L854.052 3.90923Z" fill="#15339C"/>
<path fill-rule="evenodd" clip-rule="evenodd" d="M854.052 3.90923C853.996 3.70078 853.914 3.50163 853.806 3.31365C852.574 1.17487 848.35 1.29157 844.373 3.5743C840.395 5.85703 838.17 9.44137 839.403 11.5801C839.511 11.7681 839.643 11.9387 839.795 12.0919L839.722 12.134L861.864 50.5552C851.491 60.4657 848.807 76.508 856.292 89.4964C865.096 104.773 884.634 110.04 899.932 101.261C915.229 92.4809 920.493 72.9791 911.689 57.7022C904.435 45.1136 889.891 39.3219 876.438 42.5857L854.125 3.86746L854.052 3.90923Z" fill="url(#paint8_linear)"/>
<path d="M853.806 3.31365L854.673 2.81433L854.673 2.81434L853.806 3.31365ZM854.052 3.90923L854.55 4.77653L853.424 5.42291L853.086 4.16899L854.052 3.90923ZM844.373 3.5743L843.875 2.70699L844.373 3.5743ZM839.403 11.5801L840.269 11.0808L840.269 11.0808L839.403 11.5801ZM839.795 12.0919L840.504 11.3868L841.423 12.3106L840.293 12.9592L839.795 12.0919ZM839.722 12.134L838.855 12.6333L838.355 11.7653L839.224 11.2667L839.722 12.134ZM861.864 50.5552L862.73 50.0559L863.122 50.736L862.555 51.2782L861.864 50.5552ZM856.292 89.4964L855.426 89.9957L856.292 89.4964ZM899.932 101.261L899.434 100.393L899.932 101.261ZM911.689 57.7022L910.823 58.2015L910.823 58.2015L911.689 57.7022ZM876.438 42.5857L876.674 43.5575L875.946 43.7342L875.572 43.085L876.438 42.5857ZM854.125 3.86746L853.627 3.00017L854.493 2.50324L854.991 3.36815L854.125 3.86746ZM854.673 2.81434C854.825 3.07953 854.94 3.35947 855.018 3.64947L853.086 4.16899C853.052 4.04209 853.004 3.92372 852.94 3.81295L854.673 2.81434ZM843.875 2.70699C845.978 1.49975 848.189 0.838853 850.091 0.786288C851.947 0.735007 853.785 1.27384 854.673 2.81433L852.94 3.81296C852.595 3.21467 851.705 2.74247 850.146 2.78553C848.635 2.8273 846.744 3.36612 844.871 4.4416L843.875 2.70699ZM838.536 12.0795C837.648 10.538 838.106 8.67983 839.084 7.10379C840.087 5.48853 841.772 3.9142 843.875 2.70699L844.871 4.4416C842.997 5.51712 841.58 6.87633 840.784 8.15862C839.963 9.48013 839.925 10.4836 840.269 11.0808L838.536 12.0795ZM839.086 12.797C838.874 12.5841 838.689 12.3447 838.536 12.0794L840.269 11.0808C840.333 11.1916 840.411 11.2933 840.504 11.3868L839.086 12.797ZM840.293 12.9592L840.219 13.0013L839.224 11.2667L839.297 11.2246L840.293 12.9592ZM840.588 11.6346L862.73 50.0559L860.997 51.0545L838.855 12.6333L840.588 11.6346ZM862.555 51.2782C852.507 60.8779 849.909 76.4171 857.159 88.9971L855.426 89.9957C847.705 76.5988 850.474 60.0535 861.173 49.8321L862.555 51.2782ZM857.159 88.9971C865.687 103.796 884.615 108.899 899.434 100.393L900.43 102.128C884.654 111.182 864.505 105.751 855.426 89.9957L857.159 88.9971ZM899.434 100.393C914.252 91.8887 919.351 72.9991 910.823 58.2015L912.556 57.2028C921.636 72.9592 916.206 93.0731 900.43 102.128L899.434 100.393ZM910.823 58.2015C903.796 46.0084 889.708 40.3955 876.674 43.5575L876.202 41.6139C890.075 38.2484 905.073 44.2189 912.556 57.2028L910.823 58.2015ZM875.572 43.085L853.259 4.36678L854.991 3.36815L877.305 42.0864L875.572 43.085ZM854.623 4.73476L854.55 4.77653L853.554 3.04194L853.627 3.00017L854.623 4.73476Z" fill="black" mask="url(#path-17-inside-9)"/>
<mask id="path-19-inside-10" fill="white">
<path fill-rule="evenodd" clip-rule="evenodd" d="M957.052 3.90923C956.996 3.70078 956.914 3.50163 956.806 3.31365C955.574 1.17487 951.35 1.29157 947.373 3.5743C943.395 5.85703 941.17 9.44137 942.403 11.5801C942.511 11.7681 942.643 11.9387 942.795 12.0919L942.722 12.134L964.864 50.5552C954.491 60.4657 951.807 76.508 959.292 89.4964C968.096 104.773 987.634 110.04 1002.93 101.261C1018.23 92.4809 1023.49 72.9791 1014.69 57.7022C1007.43 45.1136 992.891 39.3219 979.438 42.5857L957.125 3.86746L957.052 3.90923Z"/>
</mask>
<path fill-rule="evenodd" clip-rule="evenodd" d="M957.052 3.90923C956.996 3.70078 956.914 3.50163 956.806 3.31365C955.574 1.17487 951.35 1.29157 947.373 3.5743C943.395 5.85703 941.17 9.44137 942.403 11.5801C942.511 11.7681 942.643 11.9387 942.795 12.0919L942.722 12.134L964.864 50.5552C954.491 60.4657 951.807 76.508 959.292 89.4964C968.096 104.773 987.634 110.04 1002.93 101.261C1018.23 92.4809 1023.49 72.9791 1014.69 57.7022C1007.43 45.1136 992.891 39.3219 979.438 42.5857L957.125 3.86746L957.052 3.90923Z" fill="#15339C"/>
<path fill-rule="evenodd" clip-rule="evenodd" d="M957.052 3.90923C956.996 3.70078 956.914 3.50163 956.806 3.31365C955.574 1.17487 951.35 1.29157 947.373 3.5743C943.395 5.85703 941.17 9.44137 942.403 11.5801C942.511 11.7681 942.643 11.9387 942.795 12.0919L942.722 12.134L964.864 50.5552C954.491 60.4657 951.807 76.508 959.292 89.4964C968.096 104.773 987.634 110.04 1002.93 101.261C1018.23 92.4809 1023.49 72.9791 1014.69 57.7022C1007.43 45.1136 992.891 39.3219 979.438 42.5857L957.125 3.86746L957.052 3.90923Z" fill="url(#paint9_linear)"/>
<path d="M956.806 3.31365L957.673 2.81433L957.673 2.81434L956.806 3.31365ZM957.052 3.90923L957.55 4.77653L956.424 5.42291L956.086 4.16899L957.052 3.90923ZM947.373 3.5743L946.875 2.70699L947.373 3.5743ZM942.403 11.5801L943.269 11.0808L943.269 11.0808L942.403 11.5801ZM942.795 12.0919L943.504 11.3868L944.423 12.3106L943.293 12.9592L942.795 12.0919ZM942.722 12.134L941.855 12.6333L941.355 11.7653L942.224 11.2667L942.722 12.134ZM964.864 50.5552L965.73 50.0559L966.122 50.736L965.555 51.2782L964.864 50.5552ZM959.292 89.4964L958.426 89.9957L959.292 89.4964ZM1002.93 101.261L1002.43 100.393L1002.93 101.261ZM1014.69 57.7022L1013.82 58.2015L1013.82 58.2015L1014.69 57.7022ZM979.438 42.5857L979.674 43.5575L978.946 43.7342L978.572 43.085L979.438 42.5857ZM957.125 3.86746L956.627 3.00017L957.493 2.50324L957.991 3.36815L957.125 3.86746ZM957.673 2.81434C957.825 3.07953 957.94 3.35947 958.018 3.64947L956.086 4.16899C956.052 4.04209 956.004 3.92372 955.94 3.81295L957.673 2.81434ZM946.875 2.70699C948.978 1.49975 951.189 0.838853 953.091 0.786288C954.947 0.735007 956.785 1.27384 957.673 2.81433L955.94 3.81296C955.595 3.21467 954.705 2.74247 953.146 2.78553C951.635 2.8273 949.744 3.36612 947.871 4.4416L946.875 2.70699ZM941.536 12.0795C940.648 10.538 941.106 8.67983 942.084 7.10379C943.087 5.48853 944.772 3.9142 946.875 2.70699L947.871 4.4416C945.997 5.51712 944.58 6.87633 943.784 8.15862C942.963 9.48013 942.925 10.4836 943.269 11.0808L941.536 12.0795ZM942.086 12.797C941.874 12.5841 941.689 12.3447 941.536 12.0794L943.269 11.0808C943.333 11.1916 943.411 11.2933 943.504 11.3868L942.086 12.797ZM943.293 12.9592L943.219 13.0013L942.224 11.2667L942.297 11.2246L943.293 12.9592ZM943.588 11.6346L965.73 50.0559L963.997 51.0545L941.855 12.6333L943.588 11.6346ZM965.555 51.2782C955.507 60.8779 952.909 76.4171 960.159 88.9971L958.426 89.9957C950.705 76.5988 953.474 60.0535 964.173 49.8321L965.555 51.2782ZM960.159 88.9971C968.687 103.796 987.615 108.899 1002.43 100.393L1003.43 102.128C987.654 111.182 967.505 105.751 958.426 89.9957L960.159 88.9971ZM1002.43 100.393C1017.25 91.8887 1022.35 72.9991 1013.82 58.2015L1015.56 57.2028C1024.64 72.9592 1019.21 93.0731 1003.43 102.128L1002.43 100.393ZM1013.82 58.2015C1006.8 46.0084 992.708 40.3955 979.674 43.5575L979.202 41.6139C993.075 38.2484 1008.07 44.2189 1015.56 57.2028L1013.82 58.2015ZM978.572 43.085L956.259 4.36678L957.991 3.36815L980.305 42.0864L978.572 43.085ZM957.623 4.73476L957.55 4.77653L956.554 3.04194L956.627 3.00017L957.623 4.73476Z" fill="black" mask="url(#path-19-inside-10)"/>
<mask id="path-21-inside-11" fill="white">
<path fill-rule="evenodd" clip-rule="evenodd" d="M1060.05 3.90923C1060 3.70078 1059.91 3.50163 1059.81 3.31365C1058.57 1.17487 1054.35 1.29157 1050.37 3.5743C1046.4 5.85703 1044.17 9.44137 1045.4 11.5801C1045.51 11.7681 1045.64 11.9387 1045.8 12.0919L1045.72 12.134L1067.86 50.5552C1057.49 60.4657 1054.81 76.508 1062.29 89.4964C1071.1 104.773 1090.63 110.04 1105.93 101.261C1121.23 92.4809 1126.49 72.9791 1117.69 57.7022C1110.43 45.1136 1095.89 39.3219 1082.44 42.5857L1060.12 3.86746L1060.05 3.90923Z"/>
</mask>
<path fill-rule="evenodd" clip-rule="evenodd" d="M1060.05 3.90923C1060 3.70078 1059.91 3.50163 1059.81 3.31365C1058.57 1.17487 1054.35 1.29157 1050.37 3.5743C1046.4 5.85703 1044.17 9.44137 1045.4 11.5801C1045.51 11.7681 1045.64 11.9387 1045.8 12.0919L1045.72 12.134L1067.86 50.5552C1057.49 60.4657 1054.81 76.508 1062.29 89.4964C1071.1 104.773 1090.63 110.04 1105.93 101.261C1121.23 92.4809 1126.49 72.9791 1117.69 57.7022C1110.43 45.1136 1095.89 39.3219 1082.44 42.5857L1060.12 3.86746L1060.05 3.90923Z" fill="#15339C"/>
<path fill-rule="evenodd" clip-rule="evenodd" d="M1060.05 3.90923C1060 3.70078 1059.91 3.50163 1059.81 3.31365C1058.57 1.17487 1054.35 1.29157 1050.37 3.5743C1046.4 5.85703 1044.17 9.44137 1045.4 11.5801C1045.51 11.7681 1045.64 11.9387 1045.8 12.0919L1045.72 12.134L1067.86 50.5552C1057.49 60.4657 1054.81 76.508 1062.29 89.4964C1071.1 104.773 1090.63 110.04 1105.93 101.261C1121.23 92.4809 1126.49 72.9791 1117.69 57.7022C1110.43 45.1136 1095.89 39.3219 1082.44 42.5857L1060.12 3.86746L1060.05 3.90923Z" fill="url(#paint10_linear)"/>
<path d="M1059.81 3.31365L1060.67 2.81433L1060.67 2.81434L1059.81 3.31365ZM1060.05 3.90923L1060.55 4.77653L1059.42 5.42291L1059.09 4.16899L1060.05 3.90923ZM1050.37 3.5743L1049.87 2.70699L1050.37 3.5743ZM1045.4 11.5801L1046.27 11.0808L1046.27 11.0808L1045.4 11.5801ZM1045.8 12.0919L1046.5 11.3868L1047.42 12.3106L1046.29 12.9592L1045.8 12.0919ZM1045.72 12.134L1044.86 12.6333L1044.36 11.7653L1045.22 11.2667L1045.72 12.134ZM1067.86 50.5552L1068.73 50.0559L1069.12 50.736L1068.55 51.2782L1067.86 50.5552ZM1062.29 89.4964L1061.43 89.9957L1062.29 89.4964ZM1105.93 101.261L1105.43 100.393L1105.93 101.261ZM1117.69 57.7022L1116.82 58.2015L1116.82 58.2015L1117.69 57.7022ZM1082.44 42.5857L1082.67 43.5575L1081.95 43.7342L1081.57 43.085L1082.44 42.5857ZM1060.12 3.86746L1059.63 3.00017L1060.49 2.50324L1060.99 3.36815L1060.12 3.86746ZM1060.67 2.81434C1060.83 3.07953 1060.94 3.35947 1061.02 3.64947L1059.09 4.16899C1059.05 4.04209 1059 3.92372 1058.94 3.81295L1060.67 2.81434ZM1049.87 2.70699C1051.98 1.49975 1054.19 0.838853 1056.09 0.786288C1057.95 0.735007 1059.78 1.27384 1060.67 2.81433L1058.94 3.81296C1058.59 3.21467 1057.7 2.74247 1056.15 2.78553C1054.63 2.8273 1052.74 3.36612 1050.87 4.4416L1049.87 2.70699ZM1044.54 12.0795C1043.65 10.538 1044.11 8.67983 1045.08 7.10379C1046.09 5.48853 1047.77 3.9142 1049.87 2.70699L1050.87 4.4416C1049 5.51712 1047.58 6.87633 1046.78 8.15862C1045.96 9.48013 1045.93 10.4836 1046.27 11.0808L1044.54 12.0795ZM1045.09 12.797C1044.87 12.5841 1044.69 12.3447 1044.54 12.0794L1046.27 11.0808C1046.33 11.1916 1046.41 11.2933 1046.5 11.3868L1045.09 12.797ZM1046.29 12.9592L1046.22 13.0013L1045.22 11.2667L1045.3 11.2246L1046.29 12.9592ZM1046.59 11.6346L1068.73 50.0559L1067 51.0545L1044.86 12.6333L1046.59 11.6346ZM1068.55 51.2782C1058.51 60.8779 1055.91 76.4171 1063.16 88.9971L1061.43 89.9957C1053.71 76.5988 1056.47 60.0535 1067.17 49.8321L1068.55 51.2782ZM1063.16 88.9971C1071.69 103.796 1090.61 108.899 1105.43 100.393L1106.43 102.128C1090.65 111.182 1070.51 105.751 1061.43 89.9957L1063.16 88.9971ZM1105.43 100.393C1120.25 91.8887 1125.35 72.9991 1116.82 58.2015L1118.56 57.2028C1127.64 72.9592 1122.21 93.0731 1106.43 102.128L1105.43 100.393ZM1116.82 58.2015C1109.8 46.0084 1095.71 40.3955 1082.67 43.5575L1082.2 41.6139C1096.07 38.2484 1111.07 44.2189 1118.56 57.2028L1116.82 58.2015ZM1081.57 43.085L1059.26 4.36678L1060.99 3.36815L1083.3 42.0864L1081.57 43.085ZM1060.62 4.73476L1060.55 4.77653L1059.55 3.04194L1059.63 3.00017L1060.62 4.73476Z" fill="black" mask="url(#path-21-inside-11)"/>
<mask id="path-23-inside-12" fill="white">
<path fill-rule="evenodd" clip-rule="evenodd" d="M1163.05 3.90923C1163 3.70078 1162.91 3.50163 1162.81 3.31365C1161.57 1.17487 1157.35 1.29157 1153.37 3.5743C1149.4 5.85703 1147.17 9.44137 1148.4 11.5801C1148.51 11.7681 1148.64 11.9387 1148.8 12.0919L1148.72 12.134L1170.86 50.5552C1160.49 60.4657 1157.81 76.508 1165.29 89.4964C1174.1 104.773 1193.63 110.04 1208.93 101.261C1224.23 92.4809 1229.49 72.9791 1220.69 57.7022C1213.43 45.1136 1198.89 39.3219 1185.44 42.5857L1163.12 3.86746L1163.05 3.90923Z"/>
</mask>
<path fill-rule="evenodd" clip-rule="evenodd" d="M1163.05 3.90923C1163 3.70078 1162.91 3.50163 1162.81 3.31365C1161.57 1.17487 1157.35 1.29157 1153.37 3.5743C1149.4 5.85703 1147.17 9.44137 1148.4 11.5801C1148.51 11.7681 1148.64 11.9387 1148.8 12.0919L1148.72 12.134L1170.86 50.5552C1160.49 60.4657 1157.81 76.508 1165.29 89.4964C1174.1 104.773 1193.63 110.04 1208.93 101.261C1224.23 92.4809 1229.49 72.9791 1220.69 57.7022C1213.43 45.1136 1198.89 39.3219 1185.44 42.5857L1163.12 3.86746L1163.05 3.90923Z" fill="#15339C"/>
<path fill-rule="evenodd" clip-rule="evenodd" d="M1163.05 3.90923C1163 3.70078 1162.91 3.50163 1162.81 3.31365C1161.57 1.17487 1157.35 1.29157 1153.37 3.5743C1149.4 5.85703 1147.17 9.44137 1148.4 11.5801C1148.51 11.7681 1148.64 11.9387 1148.8 12.0919L1148.72 12.134L1170.86 50.5552C1160.49 60.4657 1157.81 76.508 1165.29 89.4964C1174.1 104.773 1193.63 110.04 1208.93 101.261C1224.23 92.4809 1229.49 72.9791 1220.69 57.7022C1213.43 45.1136 1198.89 39.3219 1185.44 42.5857L1163.12 3.86746L1163.05 3.90923Z" fill="url(#paint11_linear)"/>
<path d="M1162.81 3.31365L1163.67 2.81433L1163.67 2.81434L1162.81 3.31365ZM1163.05 3.90923L1163.55 4.77653L1162.42 5.42291L1162.09 4.16899L1163.05 3.90923ZM1153.37 3.5743L1152.87 2.70699L1153.37 3.5743ZM1148.4 11.5801L1149.27 11.0808L1149.27 11.0808L1148.4 11.5801ZM1148.8 12.0919L1149.5 11.3868L1150.42 12.3106L1149.29 12.9592L1148.8 12.0919ZM1148.72 12.134L1147.86 12.6333L1147.36 11.7653L1148.22 11.2667L1148.72 12.134ZM1170.86 50.5552L1171.73 50.0559L1172.12 50.736L1171.55 51.2782L1170.86 50.5552ZM1165.29 89.4964L1164.43 89.9957L1165.29 89.4964ZM1208.93 101.261L1208.43 100.393L1208.93 101.261ZM1220.69 57.7022L1219.82 58.2015L1219.82 58.2015L1220.69 57.7022ZM1185.44 42.5857L1185.67 43.5575L1184.95 43.7342L1184.57 43.085L1185.44 42.5857ZM1163.12 3.86746L1162.63 3.00017L1163.49 2.50324L1163.99 3.36815L1163.12 3.86746ZM1163.67 2.81434C1163.83 3.07953 1163.94 3.35947 1164.02 3.64947L1162.09 4.16899C1162.05 4.04209 1162 3.92372 1161.94 3.81295L1163.67 2.81434ZM1152.87 2.70699C1154.98 1.49975 1157.19 0.838853 1159.09 0.786288C1160.95 0.735007 1162.78 1.27384 1163.67 2.81433L1161.94 3.81296C1161.59 3.21467 1160.7 2.74247 1159.15 2.78553C1157.63 2.8273 1155.74 3.36612 1153.87 4.4416L1152.87 2.70699ZM1147.54 12.0795C1146.65 10.538 1147.11 8.67983 1148.08 7.10379C1149.09 5.48853 1150.77 3.9142 1152.87 2.70699L1153.87 4.4416C1152 5.51712 1150.58 6.87633 1149.78 8.15862C1148.96 9.48013 1148.93 10.4836 1149.27 11.0808L1147.54 12.0795ZM1148.09 12.797C1147.87 12.5841 1147.69 12.3447 1147.54 12.0794L1149.27 11.0808C1149.33 11.1916 1149.41 11.2933 1149.5 11.3868L1148.09 12.797ZM1149.29 12.9592L1149.22 13.0013L1148.22 11.2667L1148.3 11.2246L1149.29 12.9592ZM1149.59 11.6346L1171.73 50.0559L1170 51.0545L1147.86 12.6333L1149.59 11.6346ZM1171.55 51.2782C1161.51 60.8779 1158.91 76.4171 1166.16 88.9971L1164.43 89.9957C1156.71 76.5988 1159.47 60.0535 1170.17 49.8321L1171.55 51.2782ZM1166.16 88.9971C1174.69 103.796 1193.61 108.899 1208.43 100.393L1209.43 102.128C1193.65 111.182 1173.51 105.751 1164.43 89.9957L1166.16 88.9971ZM1208.43 100.393C1223.25 91.8887 1228.35 72.9991 1219.82 58.2015L1221.56 57.2028C1230.64 72.9592 1225.21 93.0731 1209.43 102.128L1208.43 100.393ZM1219.82 58.2015C1212.8 46.0084 1198.71 40.3955 1185.67 43.5575L1185.2 41.6139C1199.07 38.2484 1214.07 44.2189 1221.56 57.2028L1219.82 58.2015ZM1184.57 43.085L1162.26 4.36678L1163.99 3.36815L1186.3 42.0864L1184.57 43.085ZM1163.62 4.73476L1163.55 4.77653L1162.55 3.04194L1162.63 3.00017L1163.62 4.73476Z" fill="black" mask="url(#path-23-inside-12)"/>
<mask id="path-25-inside-13" fill="white">
<path fill-rule="evenodd" clip-rule="evenodd" d="M1266.05 3.90923C1266 3.70078 1265.91 3.50163 1265.81 3.31365C1264.57 1.17487 1260.35 1.29157 1256.37 3.5743C1252.4 5.85703 1250.17 9.44137 1251.4 11.5801C1251.51 11.7681 1251.64 11.9387 1251.8 12.0919L1251.72 12.134L1273.86 50.5552C1263.49 60.4657 1260.81 76.508 1268.29 89.4964C1277.1 104.773 1296.63 110.04 1311.93 101.261C1327.23 92.4809 1332.49 72.9791 1323.69 57.7022C1316.43 45.1136 1301.89 39.3219 1288.44 42.5857L1266.12 3.86746L1266.05 3.90923Z"/>
</mask>
<path fill-rule="evenodd" clip-rule="evenodd" d="M1266.05 3.90923C1266 3.70078 1265.91 3.50163 1265.81 3.31365C1264.57 1.17487 1260.35 1.29157 1256.37 3.5743C1252.4 5.85703 1250.17 9.44137 1251.4 11.5801C1251.51 11.7681 1251.64 11.9387 1251.8 12.0919L1251.72 12.134L1273.86 50.5552C1263.49 60.4657 1260.81 76.508 1268.29 89.4964C1277.1 104.773 1296.63 110.04 1311.93 101.261C1327.23 92.4809 1332.49 72.9791 1323.69 57.7022C1316.43 45.1136 1301.89 39.3219 1288.44 42.5857L1266.12 3.86746L1266.05 3.90923Z" fill="#15339C"/>
<path fill-rule="evenodd" clip-rule="evenodd" d="M1266.05 3.90923C1266 3.70078 1265.91 3.50163 1265.81 3.31365C1264.57 1.17487 1260.35 1.29157 1256.37 3.5743C1252.4 5.85703 1250.17 9.44137 1251.4 11.5801C1251.51 11.7681 1251.64 11.9387 1251.8 12.0919L1251.72 12.134L1273.86 50.5552C1263.49 60.4657 1260.81 76.508 1268.29 89.4964C1277.1 104.773 1296.63 110.04 1311.93 101.261C1327.23 92.4809 1332.49 72.9791 1323.69 57.7022C1316.43 45.1136 1301.89 39.3219 1288.44 42.5857L1266.12 3.86746L1266.05 3.90923Z" fill="url(#paint12_linear)"/>
<path d="M1265.81 3.31365L1266.67 2.81433L1266.67 2.81434L1265.81 3.31365ZM1266.05 3.90923L1266.55 4.77653L1265.42 5.42291L1265.09 4.16899L1266.05 3.90923ZM1256.37 3.5743L1255.87 2.70699L1256.37 3.5743ZM1251.4 11.5801L1252.27 11.0808L1252.27 11.0808L1251.4 11.5801ZM1251.8 12.0919L1252.5 11.3868L1253.42 12.3106L1252.29 12.9592L1251.8 12.0919ZM1251.72 12.134L1250.86 12.6333L1250.36 11.7653L1251.22 11.2667L1251.72 12.134ZM1273.86 50.5552L1274.73 50.0559L1275.12 50.736L1274.55 51.2782L1273.86 50.5552ZM1268.29 89.4964L1267.43 89.9957L1268.29 89.4964ZM1311.93 101.261L1311.43 100.393L1311.93 101.261ZM1323.69 57.7022L1322.82 58.2015L1322.82 58.2015L1323.69 57.7022ZM1288.44 42.5857L1288.67 43.5575L1287.95 43.7342L1287.57 43.085L1288.44 42.5857ZM1266.12 3.86746L1265.63 3.00017L1266.49 2.50324L1266.99 3.36815L1266.12 3.86746ZM1266.67 2.81434C1266.83 3.07953 1266.94 3.35947 1267.02 3.64947L1265.09 4.16899C1265.05 4.04209 1265 3.92372 1264.94 3.81295L1266.67 2.81434ZM1255.87 2.70699C1257.98 1.49975 1260.19 0.838853 1262.09 0.786288C1263.95 0.735007 1265.78 1.27384 1266.67 2.81433L1264.94 3.81296C1264.59 3.21467 1263.7 2.74247 1262.15 2.78553C1260.63 2.8273 1258.74 3.36612 1256.87 4.4416L1255.87 2.70699ZM1250.54 12.0795C1249.65 10.538 1250.11 8.67983 1251.08 7.10379C1252.09 5.48853 1253.77 3.9142 1255.87 2.70699L1256.87 4.4416C1255 5.51712 1253.58 6.87633 1252.78 8.15862C1251.96 9.48013 1251.93 10.4836 1252.27 11.0808L1250.54 12.0795ZM1251.09 12.797C1250.87 12.5841 1250.69 12.3447 1250.54 12.0794L1252.27 11.0808C1252.33 11.1916 1252.41 11.2933 1252.5 11.3868L1251.09 12.797ZM1252.29 12.9592L1252.22 13.0013L1251.22 11.2667L1251.3 11.2246L1252.29 12.9592ZM1252.59 11.6346L1274.73 50.0559L1273 51.0545L1250.86 12.6333L1252.59 11.6346ZM1274.55 51.2782C1264.51 60.8779 1261.91 76.4171 1269.16 88.9971L1267.43 89.9957C1259.71 76.5988 1262.47 60.0535 1273.17 49.8321L1274.55 51.2782ZM1269.16 88.9971C1277.69 103.796 1296.61 108.899 1311.43 100.393L1312.43 102.128C1296.65 111.182 1276.51 105.751 1267.43 89.9957L1269.16 88.9971ZM1311.43 100.393C1326.25 91.8887 1331.35 72.9991 1322.82 58.2015L1324.56 57.2028C1333.64 72.9592 1328.21 93.0731 1312.43 102.128L1311.43 100.393ZM1322.82 58.2015C1315.8 46.0084 1301.71 40.3955 1288.67 43.5575L1288.2 41.6139C1302.07 38.2484 1317.07 44.2189 1324.56 57.2028L1322.82 58.2015ZM1287.57 43.085L1265.26 4.36678L1266.99 3.36815L1289.3 42.0864L1287.57 43.085ZM1266.62 4.73476L1266.55 4.77653L1265.55 3.04194L1265.63 3.00017L1266.62 4.73476Z" fill="black" mask="url(#path-25-inside-13)"/>
<mask id="path-27-inside-14" fill="white">
<path fill-rule="evenodd" clip-rule="evenodd" d="M1369.05 3.90923C1369 3.70078 1368.91 3.50163 1368.81 3.31365C1367.57 1.17487 1363.35 1.29157 1359.37 3.5743C1355.4 5.85703 1353.17 9.44137 1354.4 11.5801C1354.51 11.7681 1354.64 11.9387 1354.8 12.0919L1354.72 12.134L1376.86 50.5552C1366.49 60.4657 1363.81 76.508 1371.29 89.4964C1380.1 104.773 1399.63 110.04 1414.93 101.261C1430.23 92.4809 1435.49 72.9791 1426.69 57.7022C1419.43 45.1136 1404.89 39.3219 1391.44 42.5857L1369.12 3.86746L1369.05 3.90923Z"/>
</mask>
<path fill-rule="evenodd" clip-rule="evenodd" d="M1369.05 3.90923C1369 3.70078 1368.91 3.50163 1368.81 3.31365C1367.57 1.17487 1363.35 1.29157 1359.37 3.5743C1355.4 5.85703 1353.17 9.44137 1354.4 11.5801C1354.51 11.7681 1354.64 11.9387 1354.8 12.0919L1354.72 12.134L1376.86 50.5552C1366.49 60.4657 1363.81 76.508 1371.29 89.4964C1380.1 104.773 1399.63 110.04 1414.93 101.261C1430.23 92.4809 1435.49 72.9791 1426.69 57.7022C1419.43 45.1136 1404.89 39.3219 1391.44 42.5857L1369.12 3.86746L1369.05 3.90923Z" fill="#15339C"/>
<path fill-rule="evenodd" clip-rule="evenodd" d="M1369.05 3.90923C1369 3.70078 1368.91 3.50163 1368.81 3.31365C1367.57 1.17487 1363.35 1.29157 1359.37 3.5743C1355.4 5.85703 1353.17 9.44137 1354.4 11.5801C1354.51 11.7681 1354.64 11.9387 1354.8 12.0919L1354.72 12.134L1376.86 50.5552C1366.49 60.4657 1363.81 76.508 1371.29 89.4964C1380.1 104.773 1399.63 110.04 1414.93 101.261C1430.23 92.4809 1435.49 72.9791 1426.69 57.7022C1419.43 45.1136 1404.89 39.3219 1391.44 42.5857L1369.12 3.86746L1369.05 3.90923Z" fill="url(#paint13_linear)"/>
<path d="M1368.81 3.31365L1369.67 2.81433L1369.67 2.81434L1368.81 3.31365ZM1369.05 3.90923L1369.55 4.77653L1368.42 5.42291L1368.09 4.16899L1369.05 3.90923ZM1359.37 3.5743L1358.87 2.70699L1359.37 3.5743ZM1354.4 11.5801L1355.27 11.0808L1355.27 11.0808L1354.4 11.5801ZM1354.8 12.0919L1355.5 11.3868L1356.42 12.3106L1355.29 12.9592L1354.8 12.0919ZM1354.72 12.134L1353.86 12.6333L1353.36 11.7653L1354.22 11.2667L1354.72 12.134ZM1376.86 50.5552L1377.73 50.0559L1378.12 50.736L1377.55 51.2782L1376.86 50.5552ZM1371.29 89.4964L1370.43 89.9957L1371.29 89.4964ZM1414.93 101.261L1414.43 100.393L1414.93 101.261ZM1426.69 57.7022L1425.82 58.2015L1425.82 58.2015L1426.69 57.7022ZM1391.44 42.5857L1391.67 43.5575L1390.95 43.7342L1390.57 43.085L1391.44 42.5857ZM1369.12 3.86746L1368.63 3.00017L1369.49 2.50324L1369.99 3.36815L1369.12 3.86746ZM1369.67 2.81434C1369.83 3.07953 1369.94 3.35947 1370.02 3.64947L1368.09 4.16899C1368.05 4.04209 1368 3.92372 1367.94 3.81295L1369.67 2.81434ZM1358.87 2.70699C1360.98 1.49975 1363.19 0.838853 1365.09 0.786288C1366.95 0.735007 1368.78 1.27384 1369.67 2.81433L1367.94 3.81296C1367.59 3.21467 1366.7 2.74247 1365.15 2.78553C1363.63 2.8273 1361.74 3.36612 1359.87 4.4416L1358.87 2.70699ZM1353.54 12.0795C1352.65 10.538 1353.11 8.67983 1354.08 7.10379C1355.09 5.48853 1356.77 3.9142 1358.87 2.70699L1359.87 4.4416C1358 5.51712 1356.58 6.87633 1355.78 8.15862C1354.96 9.48013 1354.93 10.4836 1355.27 11.0808L1353.54 12.0795ZM1354.09 12.797C1353.87 12.5841 1353.69 12.3447 1353.54 12.0794L1355.27 11.0808C1355.33 11.1916 1355.41 11.2933 1355.5 11.3868L1354.09 12.797ZM1355.29 12.9592L1355.22 13.0013L1354.22 11.2667L1354.3 11.2246L1355.29 12.9592ZM1355.59 11.6346L1377.73 50.0559L1376 51.0545L1353.86 12.6333L1355.59 11.6346ZM1377.55 51.2782C1367.51 60.8779 1364.91 76.4171 1372.16 88.9971L1370.43 89.9957C1362.71 76.5988 1365.47 60.0535 1376.17 49.8321L1377.55 51.2782ZM1372.16 88.9971C1380.69 103.796 1399.61 108.899 1414.43 100.393L1415.43 102.128C1399.65 111.182 1379.51 105.751 1370.43 89.9957L1372.16 88.9971ZM1414.43 100.393C1429.25 91.8887 1434.35 72.9991 1425.82 58.2015L1427.56 57.2028C1436.64 72.9592 1431.21 93.0731 1415.43 102.128L1414.43 100.393ZM1425.82 58.2015C1418.8 46.0084 1404.71 40.3955 1391.67 43.5575L1391.2 41.6139C1405.07 38.2484 1420.07 44.2189 1427.56 57.2028L1425.82 58.2015ZM1390.57 43.085L1368.26 4.36678L1369.99 3.36815L1392.3 42.0864L1390.57 43.085ZM1369.62 4.73476L1369.55 4.77653L1368.55 3.04194L1368.63 3.00017L1369.62 4.73476Z" fill="black" mask="url(#path-27-inside-14)"/>
<mask id="path-29-inside-15" fill="white">
<path fill-rule="evenodd" clip-rule="evenodd" d="M1472.05 3.90923C1472 3.70078 1471.91 3.50163 1471.81 3.31365C1470.57 1.17487 1466.35 1.29157 1462.37 3.5743C1458.4 5.85703 1456.17 9.44137 1457.4 11.5801C1457.51 11.7681 1457.64 11.9387 1457.8 12.0919L1457.72 12.134L1479.86 50.5552C1469.49 60.4657 1466.81 76.508 1474.29 89.4964C1483.1 104.773 1502.63 110.04 1517.93 101.261C1533.23 92.4809 1538.49 72.9791 1529.69 57.7022C1522.43 45.1136 1507.89 39.3219 1494.44 42.5857L1472.12 3.86746L1472.05 3.90923Z"/>
</mask>
<path fill-rule="evenodd" clip-rule="evenodd" d="M1472.05 3.90923C1472 3.70078 1471.91 3.50163 1471.81 3.31365C1470.57 1.17487 1466.35 1.29157 1462.37 3.5743C1458.4 5.85703 1456.17 9.44137 1457.4 11.5801C1457.51 11.7681 1457.64 11.9387 1457.8 12.0919L1457.72 12.134L1479.86 50.5552C1469.49 60.4657 1466.81 76.508 1474.29 89.4964C1483.1 104.773 1502.63 110.04 1517.93 101.261C1533.23 92.4809 1538.49 72.9791 1529.69 57.7022C1522.43 45.1136 1507.89 39.3219 1494.44 42.5857L1472.12 3.86746L1472.05 3.90923Z" fill="#15339C"/>
<path fill-rule="evenodd" clip-rule="evenodd" d="M1472.05 3.90923C1472 3.70078 1471.91 3.50163 1471.81 3.31365C1470.57 1.17487 1466.35 1.29157 1462.37 3.5743C1458.4 5.85703 1456.17 9.44137 1457.4 11.5801C1457.51 11.7681 1457.64 11.9387 1457.8 12.0919L1457.72 12.134L1479.86 50.5552C1469.49 60.4657 1466.81 76.508 1474.29 89.4964C1483.1 104.773 1502.63 110.04 1517.93 101.261C1533.23 92.4809 1538.49 72.9791 1529.69 57.7022C1522.43 45.1136 1507.89 39.3219 1494.44 42.5857L1472.12 3.86746L1472.05 3.90923Z" fill="url(#paint14_linear)"/>
<path d="M1471.81 3.31365L1472.67 2.81433L1472.67 2.81434L1471.81 3.31365ZM1472.05 3.90923L1472.55 4.77653L1471.42 5.42291L1471.09 4.16899L1472.05 3.90923ZM1462.37 3.5743L1461.87 2.70699L1462.37 3.5743ZM1457.4 11.5801L1458.27 11.0808L1458.27 11.0808L1457.4 11.5801ZM1457.8 12.0919L1458.5 11.3868L1459.42 12.3106L1458.29 12.9592L1457.8 12.0919ZM1457.72 12.134L1456.86 12.6333L1456.36 11.7653L1457.22 11.2667L1457.72 12.134ZM1479.86 50.5552L1480.73 50.0559L1481.12 50.736L1480.55 51.2782L1479.86 50.5552ZM1474.29 89.4964L1473.43 89.9957L1474.29 89.4964ZM1517.93 101.261L1517.43 100.393L1517.93 101.261ZM1529.69 57.7022L1528.82 58.2015L1528.82 58.2015L1529.69 57.7022ZM1494.44 42.5857L1494.67 43.5575L1493.95 43.7342L1493.57 43.085L1494.44 42.5857ZM1472.12 3.86746L1471.63 3.00017L1472.49 2.50324L1472.99 3.36815L1472.12 3.86746ZM1472.67 2.81434C1472.83 3.07953 1472.94 3.35947 1473.02 3.64947L1471.09 4.16899C1471.05 4.04209 1471 3.92372 1470.94 3.81295L1472.67 2.81434ZM1461.87 2.70699C1463.98 1.49975 1466.19 0.838853 1468.09 0.786288C1469.95 0.735007 1471.78 1.27384 1472.67 2.81433L1470.94 3.81296C1470.59 3.21467 1469.7 2.74247 1468.15 2.78553C1466.63 2.8273 1464.74 3.36612 1462.87 4.4416L1461.87 2.70699ZM1456.54 12.0795C1455.65 10.538 1456.11 8.67983 1457.08 7.10379C1458.09 5.48853 1459.77 3.9142 1461.87 2.70699L1462.87 4.4416C1461 5.51712 1459.58 6.87633 1458.78 8.15862C1457.96 9.48013 1457.93 10.4836 1458.27 11.0808L1456.54 12.0795ZM1457.09 12.797C1456.87 12.5841 1456.69 12.3447 1456.54 12.0794L1458.27 11.0808C1458.33 11.1916 1458.41 11.2933 1458.5 11.3868L1457.09 12.797ZM1458.29 12.9592L1458.22 13.0013L1457.22 11.2667L1457.3 11.2246L1458.29 12.9592ZM1458.59 11.6346L1480.73 50.0559L1479 51.0545L1456.86 12.6333L1458.59 11.6346ZM1480.55 51.2782C1470.51 60.8779 1467.91 76.4171 1475.16 88.9971L1473.43 89.9957C1465.71 76.5988 1468.47 60.0535 1479.17 49.8321L1480.55 51.2782ZM1475.16 88.9971C1483.69 103.796 1502.61 108.899 1517.43 100.393L1518.43 102.128C1502.65 111.182 1482.51 105.751 1473.43 89.9957L1475.16 88.9971ZM1517.43 100.393C1532.25 91.8887 1537.35 72.9991 1528.82 58.2015L1530.56 57.2028C1539.64 72.9592 1534.21 93.0731 1518.43 102.128L1517.43 100.393ZM1528.82 58.2015C1521.8 46.0084 1507.71 40.3955 1494.67 43.5575L1494.2 41.6139C1508.07 38.2484 1523.07 44.2189 1530.56 57.2028L1528.82 58.2015ZM1493.57 43.085L1471.26 4.36678L1472.99 3.36815L1495.3 42.0864L1493.57 43.085ZM1472.62 4.73476L1472.55 4.77653L1471.55 3.04194L1471.63 3.00017L1472.62 4.73476Z" fill="black" mask="url(#path-29-inside-15)"/>
<mask id="path-31-inside-16" fill="white">
<path fill-rule="evenodd" clip-rule="evenodd" d="M1575.05 3.90923C1575 3.70078 1574.91 3.50163 1574.81 3.31365C1573.57 1.17487 1569.35 1.29157 1565.37 3.5743C1561.4 5.85703 1559.17 9.44137 1560.4 11.5801C1560.51 11.7681 1560.64 11.9387 1560.8 12.0919L1560.72 12.134L1582.86 50.5552C1572.49 60.4657 1569.81 76.508 1577.29 89.4964C1586.1 104.773 1605.63 110.04 1620.93 101.261C1636.23 92.4809 1641.49 72.9791 1632.69 57.7022C1625.43 45.1136 1610.89 39.3219 1597.44 42.5857L1575.12 3.86746L1575.05 3.90923Z"/>
</mask>
<path fill-rule="evenodd" clip-rule="evenodd" d="M1575.05 3.90923C1575 3.70078 1574.91 3.50163 1574.81 3.31365C1573.57 1.17487 1569.35 1.29157 1565.37 3.5743C1561.4 5.85703 1559.17 9.44137 1560.4 11.5801C1560.51 11.7681 1560.64 11.9387 1560.8 12.0919L1560.72 12.134L1582.86 50.5552C1572.49 60.4657 1569.81 76.508 1577.29 89.4964C1586.1 104.773 1605.63 110.04 1620.93 101.261C1636.23 92.4809 1641.49 72.9791 1632.69 57.7022C1625.43 45.1136 1610.89 39.3219 1597.44 42.5857L1575.12 3.86746L1575.05 3.90923Z" fill="#15339C"/>
<path fill-rule="evenodd" clip-rule="evenodd" d="M1575.05 3.90923C1575 3.70078 1574.91 3.50163 1574.81 3.31365C1573.57 1.17487 1569.35 1.29157 1565.37 3.5743C1561.4 5.85703 1559.17 9.44137 1560.4 11.5801C1560.51 11.7681 1560.64 11.9387 1560.8 12.0919L1560.72 12.134L1582.86 50.5552C1572.49 60.4657 1569.81 76.508 1577.29 89.4964C1586.1 104.773 1605.63 110.04 1620.93 101.261C1636.23 92.4809 1641.49 72.9791 1632.69 57.7022C1625.43 45.1136 1610.89 39.3219 1597.44 42.5857L1575.12 3.86746L1575.05 3.90923Z" fill="url(#paint15_linear)"/>
<path d="M1574.81 3.31365L1575.67 2.81433L1575.67 2.81434L1574.81 3.31365ZM1575.05 3.90923L1575.55 4.77653L1574.42 5.42291L1574.09 4.16899L1575.05 3.90923ZM1565.37 3.5743L1564.87 2.70699L1565.37 3.5743ZM1560.4 11.5801L1561.27 11.0808L1561.27 11.0808L1560.4 11.5801ZM1560.8 12.0919L1561.5 11.3868L1562.42 12.3106L1561.29 12.9592L1560.8 12.0919ZM1560.72 12.134L1559.86 12.6333L1559.36 11.7653L1560.22 11.2667L1560.72 12.134ZM1582.86 50.5552L1583.73 50.0559L1584.12 50.736L1583.55 51.2782L1582.86 50.5552ZM1577.29 89.4964L1576.43 89.9957L1577.29 89.4964ZM1620.93 101.261L1620.43 100.393L1620.93 101.261ZM1632.69 57.7022L1631.82 58.2015L1631.82 58.2015L1632.69 57.7022ZM1597.44 42.5857L1597.67 43.5575L1596.95 43.7342L1596.57 43.085L1597.44 42.5857ZM1575.12 3.86746L1574.63 3.00017L1575.49 2.50324L1575.99 3.36815L1575.12 3.86746ZM1575.67 2.81434C1575.83 3.07953 1575.94 3.35947 1576.02 3.64947L1574.09 4.16899C1574.05 4.04209 1574 3.92372 1573.94 3.81295L1575.67 2.81434ZM1564.87 2.70699C1566.98 1.49975 1569.19 0.838853 1571.09 0.786288C1572.95 0.735007 1574.78 1.27384 1575.67 2.81433L1573.94 3.81296C1573.59 3.21467 1572.7 2.74247 1571.15 2.78553C1569.63 2.8273 1567.74 3.36612 1565.87 4.4416L1564.87 2.70699ZM1559.54 12.0795C1558.65 10.538 1559.11 8.67983 1560.08 7.10379C1561.09 5.48853 1562.77 3.9142 1564.87 2.70699L1565.87 4.4416C1564 5.51712 1562.58 6.87633 1561.78 8.15862C1560.96 9.48013 1560.93 10.4836 1561.27 11.0808L1559.54 12.0795ZM1560.09 12.797C1559.87 12.5841 1559.69 12.3447 1559.54 12.0794L1561.27 11.0808C1561.33 11.1916 1561.41 11.2933 1561.5 11.3868L1560.09 12.797ZM1561.29 12.9592L1561.22 13.0013L1560.22 11.2667L1560.3 11.2246L1561.29 12.9592ZM1561.59 11.6346L1583.73 50.0559L1582 51.0545L1559.86 12.6333L1561.59 11.6346ZM1583.55 51.2782C1573.51 60.8779 1570.91 76.4171 1578.16 88.9971L1576.43 89.9957C1568.71 76.5988 1571.47 60.0535 1582.17 49.8321L1583.55 51.2782ZM1578.16 88.9971C1586.69 103.796 1605.61 108.899 1620.43 100.393L1621.43 102.128C1605.65 111.182 1585.51 105.751 1576.43 89.9957L1578.16 88.9971ZM1620.43 100.393C1635.25 91.8887 1640.35 72.9991 1631.82 58.2015L1633.56 57.2028C1642.64 72.9592 1637.21 93.0731 1621.43 102.128L1620.43 100.393ZM1631.82 58.2015C1624.8 46.0084 1610.71 40.3955 1597.67 43.5575L1597.2 41.6139C1611.07 38.2484 1626.07 44.2189 1633.56 57.2028L1631.82 58.2015ZM1596.57 43.085L1574.26 4.36678L1575.99 3.36815L1598.3 42.0864L1596.57 43.085ZM1575.62 4.73476L1575.55 4.77653L1574.55 3.04194L1574.63 3.00017L1575.62 4.73476Z" fill="black" mask="url(#path-31-inside-16)"/>
<defs>
<linearGradient id="paint0_linear" x1="59.7809" y1="7.57188" x2="42.9647" y2="102.994" gradientUnits="userSpaceOnUse">
<stop stop-color="#FC2525"/>
<stop offset="1" stop-color="#15339C"/>
</linearGradient>
<linearGradient id="paint1_linear" x1="162.781" y1="7.57188" x2="145.965" y2="102.994" gradientUnits="userSpaceOnUse">
<stop stop-color="#FC2525"/>
<stop offset="1" stop-color="#15339C"/>
</linearGradient>
<linearGradient id="paint2_linear" x1="265.781" y1="7.57188" x2="248.965" y2="102.994" gradientUnits="userSpaceOnUse">
<stop stop-color="#FC2525"/>
<stop offset="1" stop-color="#15339C"/>
</linearGradient>
<linearGradient id="paint3_linear" x1="368.781" y1="7.57188" x2="351.965" y2="102.994" gradientUnits="userSpaceOnUse">
<stop stop-color="#FC2525"/>
<stop offset="1" stop-color="#15339C"/>
</linearGradient>
<linearGradient id="paint4_linear" x1="471.781" y1="7.57188" x2="454.965" y2="102.994" gradientUnits="userSpaceOnUse">
<stop stop-color="#FC2525"/>
<stop offset="1" stop-color="#15339C"/>
</linearGradient>
<linearGradient id="paint5_linear" x1="574.781" y1="7.57188" x2="557.965" y2="102.994" gradientUnits="userSpaceOnUse">
<stop stop-color="#FC2525"/>
<stop offset="1" stop-color="#15339C"/>
</linearGradient>
<linearGradient id="paint6_linear" x1="677.781" y1="7.57188" x2="660.965" y2="102.994" gradientUnits="userSpaceOnUse">
<stop stop-color="#FC2525"/>
<stop offset="1" stop-color="#15339C"/>
</linearGradient>
<linearGradient id="paint7_linear" x1="780.781" y1="7.57188" x2="763.965" y2="102.994" gradientUnits="userSpaceOnUse">
<stop stop-color="#FC2525"/>
<stop offset="1" stop-color="#15339C"/>
</linearGradient>
<linearGradient id="paint8_linear" x1="883.781" y1="7.57188" x2="866.965" y2="102.994" gradientUnits="userSpaceOnUse">
<stop stop-color="#FC2525"/>
<stop offset="1" stop-color="#15339C"/>
</linearGradient>
<linearGradient id="paint9_linear" x1="986.781" y1="7.57188" x2="969.965" y2="102.994" gradientUnits="userSpaceOnUse">
<stop stop-color="#FC2525"/>
<stop offset="1" stop-color="#15339C"/>
</linearGradient>
<linearGradient id="paint10_linear" x1="1089.78" y1="7.57188" x2="1072.96" y2="102.994" gradientUnits="userSpaceOnUse">
<stop stop-color="#FC2525"/>
<stop offset="1" stop-color="#15339C"/>
</linearGradient>
<linearGradient id="paint11_linear" x1="1192.78" y1="7.57188" x2="1175.96" y2="102.994" gradientUnits="userSpaceOnUse">
<stop stop-color="#FC2525"/>
<stop offset="1" stop-color="#15339C"/>
</linearGradient>
<linearGradient id="paint12_linear" x1="1295.78" y1="7.57188" x2="1278.96" y2="102.994" gradientUnits="userSpaceOnUse">
<stop stop-color="#FC2525"/>
<stop offset="1" stop-color="#15339C"/>
</linearGradient>
<linearGradient id="paint13_linear" x1="1398.78" y1="7.57188" x2="1381.96" y2="102.994" gradientUnits="userSpaceOnUse">
<stop stop-color="#FC2525"/>
<stop offset="1" stop-color="#15339C"/>
</linearGradient>
<linearGradient id="paint14_linear" x1="1501.78" y1="7.57188" x2="1484.96" y2="102.994" gradientUnits="userSpaceOnUse">
<stop stop-color="#FC2525"/>
<stop offset="1" stop-color="#15339C"/>
</linearGradient>
<linearGradient id="paint15_linear" x1="1604.78" y1="7.57188" x2="1587.96" y2="102.994" gradientUnits="userSpaceOnUse">
<stop stop-color="#FC2525"/>
<stop offset="1" stop-color="#15339C"/>
</linearGradient>
</defs>
</svg>
