<svg width="1648" height="111" viewBox="0 0 1648 111" fill="none" xmlns="http://www.w3.org/2000/svg">
<mask id="path-1-inside-1" fill="white">
<path fill-rule="evenodd" clip-rule="evenodd" d="M72.6934 3.90923C72.7495 3.70078 72.8311 3.50163 72.9395 3.31365C74.172 1.17487 78.3955 1.29157 82.3729 3.5743C86.3502 5.85703 88.5753 9.44137 87.3427 11.5801C87.2344 11.7681 87.1029 11.9387 86.9506 12.0919L87.0239 12.134L64.8819 50.5552C75.255 60.4657 77.9386 76.508 70.4534 89.4964C61.6494 104.773 42.1112 110.04 26.8137 101.261C11.5163 92.4809 6.25232 72.9791 15.0564 57.7022C22.3111 45.1136 36.8543 39.3219 50.3075 42.5857L72.6207 3.86746L72.6934 3.90923Z"/>
</mask>
<path fill-rule="evenodd" clip-rule="evenodd" d="M72.6934 3.90923C72.7495 3.70078 72.8311 3.50163 72.9395 3.31365C74.172 1.17487 78.3955 1.29157 82.3729 3.5743C86.3502 5.85703 88.5753 9.44137 87.3427 11.5801C87.2344 11.7681 87.1029 11.9387 86.9506 12.0919L87.0239 12.134L64.8819 50.5552C75.255 60.4657 77.9386 76.508 70.4534 89.4964C61.6494 104.773 42.1112 110.04 26.8137 101.261C11.5163 92.4809 6.25232 72.9791 15.0564 57.7022C22.3111 45.1136 36.8543 39.3219 50.3075 42.5857L72.6207 3.86746L72.6934 3.90923Z" fill="#15339C"/>
<path fill-rule="evenodd" clip-rule="evenodd" d="M72.6934 3.90923C72.7495 3.70078 72.8311 3.50163 72.9395 3.31365C74.172 1.17487 78.3955 1.29157 82.3729 3.5743C86.3502 5.85703 88.5753 9.44137 87.3427 11.5801C87.2344 11.7681 87.1029 11.9387 86.9506 12.0919L87.0239 12.134L64.8819 50.5552C75.255 60.4657 77.9386 76.508 70.4534 89.4964C61.6494 104.773 42.1112 110.04 26.8137 101.261C11.5163 92.4809 6.25232 72.9791 15.0564 57.7022C22.3111 45.1136 36.8543 39.3219 50.3075 42.5857L72.6207 3.86746L72.6934 3.90923Z" fill="url(#paint0_linear)"/>
<path d="M72.9395 3.31365L72.0731 2.81433L72.0731 2.81434L72.9395 3.31365ZM72.6934 3.90923L72.1957 4.77653L73.3218 5.42291L73.6591 4.16899L72.6934 3.90923ZM82.3729 3.5743L82.8706 2.70699L82.3729 3.5743ZM87.3427 11.5801L86.4763 11.0808L86.4763 11.0808L87.3427 11.5801ZM86.9506 12.0919L86.2415 11.3868L85.3228 12.3106L86.4528 12.9592L86.9506 12.0919ZM87.0239 12.134L87.8903 12.6333L88.3905 11.7653L87.5217 11.2667L87.0239 12.134ZM64.8819 50.5552L64.0155 50.0559L63.6235 50.736L64.1911 51.2782L64.8819 50.5552ZM70.4534 89.4964L71.3198 89.9957L70.4534 89.4964ZM26.8137 101.261L27.3115 100.393L26.8137 101.261ZM15.0564 57.7022L15.9228 58.2015L15.9228 58.2015L15.0564 57.7022ZM50.3075 42.5857L50.0717 43.5575L50.7998 43.7342L51.1739 43.085L50.3075 42.5857ZM72.6207 3.86746L73.1185 3.00017L72.2527 2.50324L71.7542 3.36815L72.6207 3.86746ZM72.0731 2.81434C71.9202 3.07953 71.8058 3.35947 71.7278 3.64947L73.6591 4.16899C73.6933 4.04209 73.7421 3.92372 73.8059 3.81295L72.0731 2.81434ZM82.8706 2.70699C80.7672 1.49975 78.5569 0.838853 76.6545 0.786288C74.7986 0.735007 72.9608 1.27384 72.0731 2.81433L73.8059 3.81296C74.1507 3.21467 75.041 2.74247 76.5993 2.78553C78.111 2.8273 80.0012 3.36612 81.8751 4.4416L82.8706 2.70699ZM88.2091 12.0795C89.0975 10.538 88.6395 8.67983 87.6611 7.10379C86.6584 5.48853 84.974 3.9142 82.8706 2.70699L81.8751 4.4416C83.749 5.51712 85.1659 6.87633 85.9619 8.15862C86.7823 9.48013 86.8205 10.4836 86.4763 11.0808L88.2091 12.0795ZM87.6597 12.797C87.8714 12.5841 88.0563 12.3447 88.2091 12.0794L86.4763 11.0808C86.4125 11.1916 86.3344 11.2933 86.2415 11.3868L87.6597 12.797ZM86.4528 12.9592L86.5261 13.0013L87.5217 11.2667L87.4484 11.2246L86.4528 12.9592ZM86.1575 11.6346L64.0155 50.0559L65.7483 51.0545L87.8903 12.6333L86.1575 11.6346ZM64.1911 51.2782C74.2388 60.8779 76.8368 76.4171 69.587 88.9971L71.3198 89.9957C79.0404 76.5988 76.2712 60.0535 65.5727 49.8321L64.1911 51.2782ZM69.587 88.9971C61.0585 103.796 42.1308 108.899 27.3115 100.393L26.316 102.128C42.0916 111.182 62.2402 105.751 71.3198 89.9957L69.587 88.9971ZM27.3115 100.393C12.4934 91.8887 7.395 72.9991 15.9228 58.2015L14.19 57.2028C5.10964 72.9592 10.5392 93.0731 26.316 102.128L27.3115 100.393ZM15.9228 58.2015C22.9496 46.0084 37.038 40.3955 50.0717 43.5575L50.5433 41.6139C36.6707 38.2484 21.6726 44.2189 14.19 57.2028L15.9228 58.2015ZM51.1739 43.085L73.4871 4.36678L71.7542 3.36815L49.4411 42.0864L51.1739 43.085ZM72.1229 4.73476L72.1957 4.77653L73.1912 3.04194L73.1185 3.00017L72.1229 4.73476Z" fill="black" mask="url(#path-1-inside-1)"/>
<mask id="path-3-inside-2" fill="white">
<path fill-rule="evenodd" clip-rule="evenodd" d="M175.693 3.90923C175.75 3.70078 175.831 3.50163 175.939 3.31365C177.172 1.17487 181.396 1.29157 185.373 3.5743C189.35 5.85703 191.575 9.44137 190.343 11.5801C190.234 11.7681 190.103 11.9387 189.951 12.0919L190.024 12.134L167.882 50.5552C178.255 60.4657 180.939 76.508 173.453 89.4964C164.649 104.773 145.111 110.04 129.814 101.261C114.516 92.4809 109.252 72.9791 118.056 57.7022C125.311 45.1136 139.854 39.3219 153.307 42.5857L175.621 3.86746L175.693 3.90923Z"/>
</mask>
<path fill-rule="evenodd" clip-rule="evenodd" d="M175.693 3.90923C175.75 3.70078 175.831 3.50163 175.939 3.31365C177.172 1.17487 181.396 1.29157 185.373 3.5743C189.35 5.85703 191.575 9.44137 190.343 11.5801C190.234 11.7681 190.103 11.9387 189.951 12.0919L190.024 12.134L167.882 50.5552C178.255 60.4657 180.939 76.508 173.453 89.4964C164.649 104.773 145.111 110.04 129.814 101.261C114.516 92.4809 109.252 72.9791 118.056 57.7022C125.311 45.1136 139.854 39.3219 153.307 42.5857L175.621 3.86746L175.693 3.90923Z" fill="#15339C"/>
<path fill-rule="evenodd" clip-rule="evenodd" d="M175.693 3.90923C175.75 3.70078 175.831 3.50163 175.939 3.31365C177.172 1.17487 181.396 1.29157 185.373 3.5743C189.35 5.85703 191.575 9.44137 190.343 11.5801C190.234 11.7681 190.103 11.9387 189.951 12.0919L190.024 12.134L167.882 50.5552C178.255 60.4657 180.939 76.508 173.453 89.4964C164.649 104.773 145.111 110.04 129.814 101.261C114.516 92.4809 109.252 72.9791 118.056 57.7022C125.311 45.1136 139.854 39.3219 153.307 42.5857L175.621 3.86746L175.693 3.90923Z" fill="url(#paint1_linear)"/>
<path d="M175.939 3.31365L175.073 2.81433L175.073 2.81434L175.939 3.31365ZM175.693 3.90923L175.196 4.77653L176.322 5.42291L176.659 4.16899L175.693 3.90923ZM185.373 3.5743L185.871 2.70699L185.373 3.5743ZM190.343 11.5801L189.476 11.0808L189.476 11.0808L190.343 11.5801ZM189.951 12.0919L189.242 11.3868L188.323 12.3106L189.453 12.9592L189.951 12.0919ZM190.024 12.134L190.89 12.6333L191.391 11.7653L190.522 11.2667L190.024 12.134ZM167.882 50.5552L167.015 50.0559L166.624 50.736L167.191 51.2782L167.882 50.5552ZM173.453 89.4964L174.32 89.9957L173.453 89.4964ZM129.814 101.261L130.312 100.393L129.814 101.261ZM118.056 57.7022L118.923 58.2015L118.923 58.2015L118.056 57.7022ZM153.307 42.5857L153.072 43.5575L153.8 43.7342L154.174 43.085L153.307 42.5857ZM175.621 3.86746L176.118 3.00017L175.253 2.50324L174.754 3.36815L175.621 3.86746ZM175.073 2.81434C174.92 3.07953 174.806 3.35947 174.728 3.64947L176.659 4.16899C176.693 4.04209 176.742 3.92372 176.806 3.81295L175.073 2.81434ZM185.871 2.70699C183.767 1.49975 181.557 0.838853 179.654 0.786288C177.799 0.735007 175.961 1.27384 175.073 2.81433L176.806 3.81296C177.151 3.21467 178.041 2.74247 179.599 2.78553C181.111 2.8273 183.001 3.36612 184.875 4.4416L185.871 2.70699ZM191.209 12.0795C192.097 10.538 191.639 8.67983 190.661 7.10379C189.658 5.48853 187.974 3.9142 185.871 2.70699L184.875 4.4416C186.749 5.51712 188.166 6.87633 188.962 8.15862C189.782 9.48013 189.821 10.4836 189.476 11.0808L191.209 12.0795ZM190.66 12.797C190.871 12.5841 191.056 12.3447 191.209 12.0794L189.476 11.0808C189.412 11.1916 189.334 11.2933 189.242 11.3868L190.66 12.797ZM189.453 12.9592L189.526 13.0013L190.522 11.2667L190.448 11.2246L189.453 12.9592ZM189.157 11.6346L167.015 50.0559L168.748 51.0545L190.89 12.6333L189.157 11.6346ZM167.191 51.2782C177.239 60.8779 179.837 76.4171 172.587 88.9971L174.32 89.9957C182.04 76.5988 179.271 60.0535 168.573 49.8321L167.191 51.2782ZM172.587 88.9971C164.059 103.796 145.131 108.899 130.312 100.393L129.316 102.128C145.092 111.182 165.24 105.751 174.32 89.9957L172.587 88.9971ZM130.312 100.393C115.493 91.8887 110.395 72.9991 118.923 58.2015L117.19 57.2028C108.11 72.9592 113.539 93.0731 129.316 102.128L130.312 100.393ZM118.923 58.2015C125.95 46.0084 140.038 40.3955 153.072 43.5575L153.543 41.6139C139.671 38.2484 124.673 44.2189 117.19 57.2028L118.923 58.2015ZM154.174 43.085L176.487 4.36678L174.754 3.36815L152.441 42.0864L154.174 43.085ZM175.123 4.73476L175.196 4.77653L176.191 3.04194L176.118 3.00017L175.123 4.73476Z" fill="black" mask="url(#path-3-inside-2)"/>
<mask id="path-5-inside-3" fill="white">
<path fill-rule="evenodd" clip-rule="evenodd" d="M278.693 3.90923C278.75 3.70078 278.831 3.50163 278.939 3.31365C280.172 1.17487 284.396 1.29157 288.373 3.5743C292.35 5.85703 294.575 9.44137 293.343 11.5801C293.234 11.7681 293.103 11.9387 292.951 12.0919L293.024 12.134L270.882 50.5552C281.255 60.4657 283.939 76.508 276.453 89.4964C267.649 104.773 248.111 110.04 232.814 101.261C217.516 92.4809 212.252 72.9791 221.056 57.7022C228.311 45.1136 242.854 39.3219 256.307 42.5857L278.621 3.86746L278.693 3.90923Z"/>
</mask>
<path fill-rule="evenodd" clip-rule="evenodd" d="M278.693 3.90923C278.75 3.70078 278.831 3.50163 278.939 3.31365C280.172 1.17487 284.396 1.29157 288.373 3.5743C292.35 5.85703 294.575 9.44137 293.343 11.5801C293.234 11.7681 293.103 11.9387 292.951 12.0919L293.024 12.134L270.882 50.5552C281.255 60.4657 283.939 76.508 276.453 89.4964C267.649 104.773 248.111 110.04 232.814 101.261C217.516 92.4809 212.252 72.9791 221.056 57.7022C228.311 45.1136 242.854 39.3219 256.307 42.5857L278.621 3.86746L278.693 3.90923Z" fill="#15339C"/>
<path fill-rule="evenodd" clip-rule="evenodd" d="M278.693 3.90923C278.75 3.70078 278.831 3.50163 278.939 3.31365C280.172 1.17487 284.396 1.29157 288.373 3.5743C292.35 5.85703 294.575 9.44137 293.343 11.5801C293.234 11.7681 293.103 11.9387 292.951 12.0919L293.024 12.134L270.882 50.5552C281.255 60.4657 283.939 76.508 276.453 89.4964C267.649 104.773 248.111 110.04 232.814 101.261C217.516 92.4809 212.252 72.9791 221.056 57.7022C228.311 45.1136 242.854 39.3219 256.307 42.5857L278.621 3.86746L278.693 3.90923Z" fill="url(#paint2_linear)"/>
<path d="M278.939 3.31365L278.073 2.81433L278.073 2.81434L278.939 3.31365ZM278.693 3.90923L278.196 4.77653L279.322 5.42291L279.659 4.16899L278.693 3.90923ZM288.373 3.5743L288.871 2.70699L288.373 3.5743ZM293.343 11.5801L292.476 11.0808L292.476 11.0808L293.343 11.5801ZM292.951 12.0919L292.242 11.3868L291.323 12.3106L292.453 12.9592L292.951 12.0919ZM293.024 12.134L293.89 12.6333L294.391 11.7653L293.522 11.2667L293.024 12.134ZM270.882 50.5552L270.015 50.0559L269.624 50.736L270.191 51.2782L270.882 50.5552ZM276.453 89.4964L277.32 89.9957L276.453 89.4964ZM232.814 101.261L233.312 100.393L232.814 101.261ZM221.056 57.7022L221.923 58.2015L221.923 58.2015L221.056 57.7022ZM256.307 42.5857L256.072 43.5575L256.8 43.7342L257.174 43.085L256.307 42.5857ZM278.621 3.86746L279.118 3.00017L278.253 2.50324L277.754 3.36815L278.621 3.86746ZM278.073 2.81434C277.92 3.07953 277.806 3.35947 277.728 3.64947L279.659 4.16899C279.693 4.04209 279.742 3.92372 279.806 3.81295L278.073 2.81434ZM288.871 2.70699C286.767 1.49975 284.557 0.838853 282.654 0.786288C280.799 0.735007 278.961 1.27384 278.073 2.81433L279.806 3.81296C280.151 3.21467 281.041 2.74247 282.599 2.78553C284.111 2.8273 286.001 3.36612 287.875 4.4416L288.871 2.70699ZM294.209 12.0795C295.097 10.538 294.639 8.67983 293.661 7.10379C292.658 5.48853 290.974 3.9142 288.871 2.70699L287.875 4.4416C289.749 5.51712 291.166 6.87633 291.962 8.15862C292.782 9.48013 292.821 10.4836 292.476 11.0808L294.209 12.0795ZM293.66 12.797C293.871 12.5841 294.056 12.3447 294.209 12.0794L292.476 11.0808C292.412 11.1916 292.334 11.2933 292.242 11.3868L293.66 12.797ZM292.453 12.9592L292.526 13.0013L293.522 11.2667L293.448 11.2246L292.453 12.9592ZM292.157 11.6346L270.015 50.0559L271.748 51.0545L293.89 12.6333L292.157 11.6346ZM270.191 51.2782C280.239 60.8779 282.837 76.4171 275.587 88.9971L277.32 89.9957C285.04 76.5988 282.271 60.0535 271.573 49.8321L270.191 51.2782ZM275.587 88.9971C267.059 103.796 248.131 108.899 233.312 100.393L232.316 102.128C248.092 111.182 268.24 105.751 277.32 89.9957L275.587 88.9971ZM233.312 100.393C218.493 91.8887 213.395 72.9991 221.923 58.2015L220.19 57.2028C211.11 72.9592 216.539 93.0731 232.316 102.128L233.312 100.393ZM221.923 58.2015C228.95 46.0084 243.038 40.3955 256.072 43.5575L256.543 41.6139C242.671 38.2484 227.673 44.2189 220.19 57.2028L221.923 58.2015ZM257.174 43.085L279.487 4.36678L277.754 3.36815L255.441 42.0864L257.174 43.085ZM278.123 4.73476L278.196 4.77653L279.191 3.04194L279.118 3.00017L278.123 4.73476Z" fill="black" mask="url(#path-5-inside-3)"/>
<mask id="path-7-inside-4" fill="white">
<path fill-rule="evenodd" clip-rule="evenodd" d="M381.693 3.90923C381.75 3.70078 381.831 3.50163 381.939 3.31365C383.172 1.17487 387.396 1.29157 391.373 3.5743C395.35 5.85703 397.575 9.44137 396.343 11.5801C396.234 11.7681 396.103 11.9387 395.951 12.0919L396.024 12.134L373.882 50.5552C384.255 60.4657 386.939 76.508 379.453 89.4964C370.649 104.773 351.111 110.04 335.814 101.261C320.516 92.4809 315.252 72.9791 324.056 57.7022C331.311 45.1136 345.854 39.3219 359.307 42.5857L381.621 3.86746L381.693 3.90923Z"/>
</mask>
<path fill-rule="evenodd" clip-rule="evenodd" d="M381.693 3.90923C381.75 3.70078 381.831 3.50163 381.939 3.31365C383.172 1.17487 387.396 1.29157 391.373 3.5743C395.35 5.85703 397.575 9.44137 396.343 11.5801C396.234 11.7681 396.103 11.9387 395.951 12.0919L396.024 12.134L373.882 50.5552C384.255 60.4657 386.939 76.508 379.453 89.4964C370.649 104.773 351.111 110.04 335.814 101.261C320.516 92.4809 315.252 72.9791 324.056 57.7022C331.311 45.1136 345.854 39.3219 359.307 42.5857L381.621 3.86746L381.693 3.90923Z" fill="#15339C"/>
<path fill-rule="evenodd" clip-rule="evenodd" d="M381.693 3.90923C381.75 3.70078 381.831 3.50163 381.939 3.31365C383.172 1.17487 387.396 1.29157 391.373 3.5743C395.35 5.85703 397.575 9.44137 396.343 11.5801C396.234 11.7681 396.103 11.9387 395.951 12.0919L396.024 12.134L373.882 50.5552C384.255 60.4657 386.939 76.508 379.453 89.4964C370.649 104.773 351.111 110.04 335.814 101.261C320.516 92.4809 315.252 72.9791 324.056 57.7022C331.311 45.1136 345.854 39.3219 359.307 42.5857L381.621 3.86746L381.693 3.90923Z" fill="url(#paint3_linear)"/>
<path d="M381.939 3.31365L381.073 2.81433L381.073 2.81434L381.939 3.31365ZM381.693 3.90923L381.196 4.77653L382.322 5.42291L382.659 4.16899L381.693 3.90923ZM391.373 3.5743L391.871 2.70699L391.373 3.5743ZM396.343 11.5801L395.476 11.0808L395.476 11.0808L396.343 11.5801ZM395.951 12.0919L395.242 11.3868L394.323 12.3106L395.453 12.9592L395.951 12.0919ZM396.024 12.134L396.89 12.6333L397.391 11.7653L396.522 11.2667L396.024 12.134ZM373.882 50.5552L373.015 50.0559L372.624 50.736L373.191 51.2782L373.882 50.5552ZM379.453 89.4964L380.32 89.9957L379.453 89.4964ZM335.814 101.261L336.312 100.393L335.814 101.261ZM324.056 57.7022L324.923 58.2015L324.923 58.2015L324.056 57.7022ZM359.307 42.5857L359.072 43.5575L359.8 43.7342L360.174 43.085L359.307 42.5857ZM381.621 3.86746L382.118 3.00017L381.253 2.50324L380.754 3.36815L381.621 3.86746ZM381.073 2.81434C380.92 3.07953 380.806 3.35947 380.728 3.64947L382.659 4.16899C382.693 4.04209 382.742 3.92372 382.806 3.81295L381.073 2.81434ZM391.871 2.70699C389.767 1.49975 387.557 0.838853 385.654 0.786288C383.799 0.735007 381.961 1.27384 381.073 2.81433L382.806 3.81296C383.151 3.21467 384.041 2.74247 385.599 2.78553C387.111 2.8273 389.001 3.36612 390.875 4.4416L391.871 2.70699ZM397.209 12.0795C398.097 10.538 397.639 8.67983 396.661 7.10379C395.658 5.48853 393.974 3.9142 391.871 2.70699L390.875 4.4416C392.749 5.51712 394.166 6.87633 394.962 8.15862C395.782 9.48013 395.821 10.4836 395.476 11.0808L397.209 12.0795ZM396.66 12.797C396.871 12.5841 397.056 12.3447 397.209 12.0794L395.476 11.0808C395.412 11.1916 395.334 11.2933 395.242 11.3868L396.66 12.797ZM395.453 12.9592L395.526 13.0013L396.522 11.2667L396.448 11.2246L395.453 12.9592ZM395.157 11.6346L373.015 50.0559L374.748 51.0545L396.89 12.6333L395.157 11.6346ZM373.191 51.2782C383.239 60.8779 385.837 76.4171 378.587 88.9971L380.32 89.9957C388.04 76.5988 385.271 60.0535 374.573 49.8321L373.191 51.2782ZM378.587 88.9971C370.059 103.796 351.131 108.899 336.312 100.393L335.316 102.128C351.092 111.182 371.24 105.751 380.32 89.9957L378.587 88.9971ZM336.312 100.393C321.493 91.8887 316.395 72.9991 324.923 58.2015L323.19 57.2028C314.11 72.9592 319.539 93.0731 335.316 102.128L336.312 100.393ZM324.923 58.2015C331.95 46.0084 346.038 40.3955 359.072 43.5575L359.543 41.6139C345.671 38.2484 330.673 44.2189 323.19 57.2028L324.923 58.2015ZM360.174 43.085L382.487 4.36678L380.754 3.36815L358.441 42.0864L360.174 43.085ZM381.123 4.73476L381.196 4.77653L382.191 3.04194L382.118 3.00017L381.123 4.73476Z" fill="black" mask="url(#path-7-inside-4)"/>
<mask id="path-9-inside-5" fill="white">
<path fill-rule="evenodd" clip-rule="evenodd" d="M484.693 3.90923C484.75 3.70078 484.831 3.50163 484.939 3.31365C486.172 1.17487 490.396 1.29157 494.373 3.5743C498.35 5.85703 500.575 9.44137 499.343 11.5801C499.234 11.7681 499.103 11.9387 498.951 12.0919L499.024 12.134L476.882 50.5552C487.255 60.4657 489.939 76.508 482.453 89.4964C473.649 104.773 454.111 110.04 438.814 101.261C423.516 92.4809 418.252 72.9791 427.056 57.7022C434.311 45.1136 448.854 39.3219 462.307 42.5857L484.621 3.86746L484.693 3.90923Z"/>
</mask>
<path fill-rule="evenodd" clip-rule="evenodd" d="M484.693 3.90923C484.75 3.70078 484.831 3.50163 484.939 3.31365C486.172 1.17487 490.396 1.29157 494.373 3.5743C498.35 5.85703 500.575 9.44137 499.343 11.5801C499.234 11.7681 499.103 11.9387 498.951 12.0919L499.024 12.134L476.882 50.5552C487.255 60.4657 489.939 76.508 482.453 89.4964C473.649 104.773 454.111 110.04 438.814 101.261C423.516 92.4809 418.252 72.9791 427.056 57.7022C434.311 45.1136 448.854 39.3219 462.307 42.5857L484.621 3.86746L484.693 3.90923Z" fill="#15339C"/>
<path fill-rule="evenodd" clip-rule="evenodd" d="M484.693 3.90923C484.75 3.70078 484.831 3.50163 484.939 3.31365C486.172 1.17487 490.396 1.29157 494.373 3.5743C498.35 5.85703 500.575 9.44137 499.343 11.5801C499.234 11.7681 499.103 11.9387 498.951 12.0919L499.024 12.134L476.882 50.5552C487.255 60.4657 489.939 76.508 482.453 89.4964C473.649 104.773 454.111 110.04 438.814 101.261C423.516 92.4809 418.252 72.9791 427.056 57.7022C434.311 45.1136 448.854 39.3219 462.307 42.5857L484.621 3.86746L484.693 3.90923Z" fill="url(#paint4_linear)"/>
<path d="M484.939 3.31365L484.073 2.81433L484.073 2.81434L484.939 3.31365ZM484.693 3.90923L484.196 4.77653L485.322 5.42291L485.659 4.16899L484.693 3.90923ZM494.373 3.5743L494.871 2.70699L494.373 3.5743ZM499.343 11.5801L498.476 11.0808L498.476 11.0808L499.343 11.5801ZM498.951 12.0919L498.242 11.3868L497.323 12.3106L498.453 12.9592L498.951 12.0919ZM499.024 12.134L499.89 12.6333L500.391 11.7653L499.522 11.2667L499.024 12.134ZM476.882 50.5552L476.015 50.0559L475.624 50.736L476.191 51.2782L476.882 50.5552ZM482.453 89.4964L483.32 89.9957L482.453 89.4964ZM438.814 101.261L439.312 100.393L438.814 101.261ZM427.056 57.7022L427.923 58.2015L427.923 58.2015L427.056 57.7022ZM462.307 42.5857L462.072 43.5575L462.8 43.7342L463.174 43.085L462.307 42.5857ZM484.621 3.86746L485.118 3.00017L484.253 2.50324L483.754 3.36815L484.621 3.86746ZM484.073 2.81434C483.92 3.07953 483.806 3.35947 483.728 3.64947L485.659 4.16899C485.693 4.04209 485.742 3.92372 485.806 3.81295L484.073 2.81434ZM494.871 2.70699C492.767 1.49975 490.557 0.838853 488.654 0.786288C486.799 0.735007 484.961 1.27384 484.073 2.81433L485.806 3.81296C486.151 3.21467 487.041 2.74247 488.599 2.78553C490.111 2.8273 492.001 3.36612 493.875 4.4416L494.871 2.70699ZM500.209 12.0795C501.097 10.538 500.639 8.67983 499.661 7.10379C498.658 5.48853 496.974 3.9142 494.871 2.70699L493.875 4.4416C495.749 5.51712 497.166 6.87633 497.962 8.15862C498.782 9.48013 498.821 10.4836 498.476 11.0808L500.209 12.0795ZM499.66 12.797C499.871 12.5841 500.056 12.3447 500.209 12.0794L498.476 11.0808C498.412 11.1916 498.334 11.2933 498.242 11.3868L499.66 12.797ZM498.453 12.9592L498.526 13.0013L499.522 11.2667L499.448 11.2246L498.453 12.9592ZM498.157 11.6346L476.015 50.0559L477.748 51.0545L499.89 12.6333L498.157 11.6346ZM476.191 51.2782C486.239 60.8779 488.837 76.4171 481.587 88.9971L483.32 89.9957C491.04 76.5988 488.271 60.0535 477.573 49.8321L476.191 51.2782ZM481.587 88.9971C473.059 103.796 454.131 108.899 439.312 100.393L438.316 102.128C454.092 111.182 474.24 105.751 483.32 89.9957L481.587 88.9971ZM439.312 100.393C424.493 91.8887 419.395 72.9991 427.923 58.2015L426.19 57.2028C417.11 72.9592 422.539 93.0731 438.316 102.128L439.312 100.393ZM427.923 58.2015C434.95 46.0084 449.038 40.3955 462.072 43.5575L462.543 41.6139C448.671 38.2484 433.673 44.2189 426.19 57.2028L427.923 58.2015ZM463.174 43.085L485.487 4.36678L483.754 3.36815L461.441 42.0864L463.174 43.085ZM484.123 4.73476L484.196 4.77653L485.191 3.04194L485.118 3.00017L484.123 4.73476Z" fill="black" mask="url(#path-9-inside-5)"/>
<mask id="path-11-inside-6" fill="white">
<path fill-rule="evenodd" clip-rule="evenodd" d="M587.693 3.90923C587.75 3.70078 587.831 3.50163 587.939 3.31365C589.172 1.17487 593.396 1.29157 597.373 3.5743C601.35 5.85703 603.575 9.44137 602.343 11.5801C602.234 11.7681 602.103 11.9387 601.951 12.0919L602.024 12.134L579.882 50.5552C590.255 60.4657 592.939 76.508 585.453 89.4964C576.649 104.773 557.111 110.04 541.814 101.261C526.516 92.4809 521.252 72.9791 530.056 57.7022C537.311 45.1136 551.854 39.3219 565.307 42.5857L587.621 3.86746L587.693 3.90923Z"/>
</mask>
<path fill-rule="evenodd" clip-rule="evenodd" d="M587.693 3.90923C587.75 3.70078 587.831 3.50163 587.939 3.31365C589.172 1.17487 593.396 1.29157 597.373 3.5743C601.35 5.85703 603.575 9.44137 602.343 11.5801C602.234 11.7681 602.103 11.9387 601.951 12.0919L602.024 12.134L579.882 50.5552C590.255 60.4657 592.939 76.508 585.453 89.4964C576.649 104.773 557.111 110.04 541.814 101.261C526.516 92.4809 521.252 72.9791 530.056 57.7022C537.311 45.1136 551.854 39.3219 565.307 42.5857L587.621 3.86746L587.693 3.90923Z" fill="#15339C"/>
<path fill-rule="evenodd" clip-rule="evenodd" d="M587.693 3.90923C587.75 3.70078 587.831 3.50163 587.939 3.31365C589.172 1.17487 593.396 1.29157 597.373 3.5743C601.35 5.85703 603.575 9.44137 602.343 11.5801C602.234 11.7681 602.103 11.9387 601.951 12.0919L602.024 12.134L579.882 50.5552C590.255 60.4657 592.939 76.508 585.453 89.4964C576.649 104.773 557.111 110.04 541.814 101.261C526.516 92.4809 521.252 72.9791 530.056 57.7022C537.311 45.1136 551.854 39.3219 565.307 42.5857L587.621 3.86746L587.693 3.90923Z" fill="url(#paint5_linear)"/>
<path d="M587.939 3.31365L587.073 2.81433L587.073 2.81434L587.939 3.31365ZM587.693 3.90923L587.196 4.77653L588.322 5.42291L588.659 4.16899L587.693 3.90923ZM597.373 3.5743L597.871 2.70699L597.373 3.5743ZM602.343 11.5801L601.476 11.0808L601.476 11.0808L602.343 11.5801ZM601.951 12.0919L601.242 11.3868L600.323 12.3106L601.453 12.9592L601.951 12.0919ZM602.024 12.134L602.89 12.6333L603.391 11.7653L602.522 11.2667L602.024 12.134ZM579.882 50.5552L579.015 50.0559L578.624 50.736L579.191 51.2782L579.882 50.5552ZM585.453 89.4964L586.32 89.9957L585.453 89.4964ZM541.814 101.261L542.312 100.393L541.814 101.261ZM530.056 57.7022L530.923 58.2015L530.923 58.2015L530.056 57.7022ZM565.307 42.5857L565.072 43.5575L565.8 43.7342L566.174 43.085L565.307 42.5857ZM587.621 3.86746L588.118 3.00017L587.253 2.50324L586.754 3.36815L587.621 3.86746ZM587.073 2.81434C586.92 3.07953 586.806 3.35947 586.728 3.64947L588.659 4.16899C588.693 4.04209 588.742 3.92372 588.806 3.81295L587.073 2.81434ZM597.871 2.70699C595.767 1.49975 593.557 0.838853 591.654 0.786288C589.799 0.735007 587.961 1.27384 587.073 2.81433L588.806 3.81296C589.151 3.21467 590.041 2.74247 591.599 2.78553C593.111 2.8273 595.001 3.36612 596.875 4.4416L597.871 2.70699ZM603.209 12.0795C604.097 10.538 603.639 8.67983 602.661 7.10379C601.658 5.48853 599.974 3.9142 597.871 2.70699L596.875 4.4416C598.749 5.51712 600.166 6.87633 600.962 8.15862C601.782 9.48013 601.821 10.4836 601.476 11.0808L603.209 12.0795ZM602.66 12.797C602.871 12.5841 603.056 12.3447 603.209 12.0794L601.476 11.0808C601.412 11.1916 601.334 11.2933 601.242 11.3868L602.66 12.797ZM601.453 12.9592L601.526 13.0013L602.522 11.2667L602.448 11.2246L601.453 12.9592ZM601.157 11.6346L579.015 50.0559L580.748 51.0545L602.89 12.6333L601.157 11.6346ZM579.191 51.2782C589.239 60.8779 591.837 76.4171 584.587 88.9971L586.32 89.9957C594.04 76.5988 591.271 60.0535 580.573 49.8321L579.191 51.2782ZM584.587 88.9971C576.059 103.796 557.131 108.899 542.312 100.393L541.316 102.128C557.092 111.182 577.24 105.751 586.32 89.9957L584.587 88.9971ZM542.312 100.393C527.493 91.8887 522.395 72.9991 530.923 58.2015L529.19 57.2028C520.11 72.9592 525.539 93.0731 541.316 102.128L542.312 100.393ZM530.923 58.2015C537.95 46.0084 552.038 40.3955 565.072 43.5575L565.543 41.6139C551.671 38.2484 536.673 44.2189 529.19 57.2028L530.923 58.2015ZM566.174 43.085L588.487 4.36678L586.754 3.36815L564.441 42.0864L566.174 43.085ZM587.123 4.73476L587.196 4.77653L588.191 3.04194L588.118 3.00017L587.123 4.73476Z" fill="black" mask="url(#path-11-inside-6)"/>
<mask id="path-13-inside-7" fill="white">
<path fill-rule="evenodd" clip-rule="evenodd" d="M690.693 3.90923C690.75 3.70078 690.831 3.50163 690.939 3.31365C692.172 1.17487 696.396 1.29157 700.373 3.5743C704.35 5.85703 706.575 9.44137 705.343 11.5801C705.234 11.7681 705.103 11.9387 704.951 12.0919L705.024 12.134L682.882 50.5552C693.255 60.4657 695.939 76.508 688.453 89.4964C679.649 104.773 660.111 110.04 644.814 101.261C629.516 92.4809 624.252 72.9791 633.056 57.7022C640.311 45.1136 654.854 39.3219 668.307 42.5857L690.621 3.86746L690.693 3.90923Z"/>
</mask>
<path fill-rule="evenodd" clip-rule="evenodd" d="M690.693 3.90923C690.75 3.70078 690.831 3.50163 690.939 3.31365C692.172 1.17487 696.396 1.29157 700.373 3.5743C704.35 5.85703 706.575 9.44137 705.343 11.5801C705.234 11.7681 705.103 11.9387 704.951 12.0919L705.024 12.134L682.882 50.5552C693.255 60.4657 695.939 76.508 688.453 89.4964C679.649 104.773 660.111 110.04 644.814 101.261C629.516 92.4809 624.252 72.9791 633.056 57.7022C640.311 45.1136 654.854 39.3219 668.307 42.5857L690.621 3.86746L690.693 3.90923Z" fill="#15339C"/>
<path fill-rule="evenodd" clip-rule="evenodd" d="M690.693 3.90923C690.75 3.70078 690.831 3.50163 690.939 3.31365C692.172 1.17487 696.396 1.29157 700.373 3.5743C704.35 5.85703 706.575 9.44137 705.343 11.5801C705.234 11.7681 705.103 11.9387 704.951 12.0919L705.024 12.134L682.882 50.5552C693.255 60.4657 695.939 76.508 688.453 89.4964C679.649 104.773 660.111 110.04 644.814 101.261C629.516 92.4809 624.252 72.9791 633.056 57.7022C640.311 45.1136 654.854 39.3219 668.307 42.5857L690.621 3.86746L690.693 3.90923Z" fill="url(#paint6_linear)"/>
<path d="M690.939 3.31365L690.073 2.81433L690.073 2.81434L690.939 3.31365ZM690.693 3.90923L690.196 4.77653L691.322 5.42291L691.659 4.16899L690.693 3.90923ZM700.373 3.5743L700.871 2.70699L700.373 3.5743ZM705.343 11.5801L704.476 11.0808L704.476 11.0808L705.343 11.5801ZM704.951 12.0919L704.242 11.3868L703.323 12.3106L704.453 12.9592L704.951 12.0919ZM705.024 12.134L705.89 12.6333L706.391 11.7653L705.522 11.2667L705.024 12.134ZM682.882 50.5552L682.015 50.0559L681.624 50.736L682.191 51.2782L682.882 50.5552ZM688.453 89.4964L689.32 89.9957L688.453 89.4964ZM644.814 101.261L645.312 100.393L644.814 101.261ZM633.056 57.7022L633.923 58.2015L633.923 58.2015L633.056 57.7022ZM668.307 42.5857L668.072 43.5575L668.8 43.7342L669.174 43.085L668.307 42.5857ZM690.621 3.86746L691.118 3.00017L690.253 2.50324L689.754 3.36815L690.621 3.86746ZM690.073 2.81434C689.92 3.07953 689.806 3.35947 689.728 3.64947L691.659 4.16899C691.693 4.04209 691.742 3.92372 691.806 3.81295L690.073 2.81434ZM700.871 2.70699C698.767 1.49975 696.557 0.838853 694.654 0.786288C692.799 0.735007 690.961 1.27384 690.073 2.81433L691.806 3.81296C692.151 3.21467 693.041 2.74247 694.599 2.78553C696.111 2.8273 698.001 3.36612 699.875 4.4416L700.871 2.70699ZM706.209 12.0795C707.097 10.538 706.639 8.67983 705.661 7.10379C704.658 5.48853 702.974 3.9142 700.871 2.70699L699.875 4.4416C701.749 5.51712 703.166 6.87633 703.962 8.15862C704.782 9.48013 704.821 10.4836 704.476 11.0808L706.209 12.0795ZM705.66 12.797C705.871 12.5841 706.056 12.3447 706.209 12.0794L704.476 11.0808C704.412 11.1916 704.334 11.2933 704.242 11.3868L705.66 12.797ZM704.453 12.9592L704.526 13.0013L705.522 11.2667L705.448 11.2246L704.453 12.9592ZM704.157 11.6346L682.015 50.0559L683.748 51.0545L705.89 12.6333L704.157 11.6346ZM682.191 51.2782C692.239 60.8779 694.837 76.4171 687.587 88.9971L689.32 89.9957C697.04 76.5988 694.271 60.0535 683.573 49.8321L682.191 51.2782ZM687.587 88.9971C679.059 103.796 660.131 108.899 645.312 100.393L644.316 102.128C660.092 111.182 680.24 105.751 689.32 89.9957L687.587 88.9971ZM645.312 100.393C630.493 91.8887 625.395 72.9991 633.923 58.2015L632.19 57.2028C623.11 72.9592 628.539 93.0731 644.316 102.128L645.312 100.393ZM633.923 58.2015C640.95 46.0084 655.038 40.3955 668.072 43.5575L668.543 41.6139C654.671 38.2484 639.673 44.2189 632.19 57.2028L633.923 58.2015ZM669.174 43.085L691.487 4.36678L689.754 3.36815L667.441 42.0864L669.174 43.085ZM690.123 4.73476L690.196 4.77653L691.191 3.04194L691.118 3.00017L690.123 4.73476Z" fill="black" mask="url(#path-13-inside-7)"/>
<mask id="path-15-inside-8" fill="white">
<path fill-rule="evenodd" clip-rule="evenodd" d="M793.693 3.90923C793.75 3.70078 793.831 3.50163 793.939 3.31365C795.172 1.17487 799.396 1.29157 803.373 3.5743C807.35 5.85703 809.575 9.44137 808.343 11.5801C808.234 11.7681 808.103 11.9387 807.951 12.0919L808.024 12.134L785.882 50.5552C796.255 60.4657 798.939 76.508 791.453 89.4964C782.649 104.773 763.111 110.04 747.814 101.261C732.516 92.4809 727.252 72.9791 736.056 57.7022C743.311 45.1136 757.854 39.3219 771.307 42.5857L793.621 3.86746L793.693 3.90923Z"/>
</mask>
<path fill-rule="evenodd" clip-rule="evenodd" d="M793.693 3.90923C793.75 3.70078 793.831 3.50163 793.939 3.31365C795.172 1.17487 799.396 1.29157 803.373 3.5743C807.35 5.85703 809.575 9.44137 808.343 11.5801C808.234 11.7681 808.103 11.9387 807.951 12.0919L808.024 12.134L785.882 50.5552C796.255 60.4657 798.939 76.508 791.453 89.4964C782.649 104.773 763.111 110.04 747.814 101.261C732.516 92.4809 727.252 72.9791 736.056 57.7022C743.311 45.1136 757.854 39.3219 771.307 42.5857L793.621 3.86746L793.693 3.90923Z" fill="#15339C"/>
<path fill-rule="evenodd" clip-rule="evenodd" d="M793.693 3.90923C793.75 3.70078 793.831 3.50163 793.939 3.31365C795.172 1.17487 799.396 1.29157 803.373 3.5743C807.35 5.85703 809.575 9.44137 808.343 11.5801C808.234 11.7681 808.103 11.9387 807.951 12.0919L808.024 12.134L785.882 50.5552C796.255 60.4657 798.939 76.508 791.453 89.4964C782.649 104.773 763.111 110.04 747.814 101.261C732.516 92.4809 727.252 72.9791 736.056 57.7022C743.311 45.1136 757.854 39.3219 771.307 42.5857L793.621 3.86746L793.693 3.90923Z" fill="url(#paint7_linear)"/>
<path d="M793.939 3.31365L793.073 2.81433L793.073 2.81434L793.939 3.31365ZM793.693 3.90923L793.196 4.77653L794.322 5.42291L794.659 4.16899L793.693 3.90923ZM803.373 3.5743L803.871 2.70699L803.373 3.5743ZM808.343 11.5801L807.476 11.0808L807.476 11.0808L808.343 11.5801ZM807.951 12.0919L807.242 11.3868L806.323 12.3106L807.453 12.9592L807.951 12.0919ZM808.024 12.134L808.89 12.6333L809.391 11.7653L808.522 11.2667L808.024 12.134ZM785.882 50.5552L785.015 50.0559L784.624 50.736L785.191 51.2782L785.882 50.5552ZM791.453 89.4964L792.32 89.9957L791.453 89.4964ZM747.814 101.261L748.312 100.393L747.814 101.261ZM736.056 57.7022L736.923 58.2015L736.923 58.2015L736.056 57.7022ZM771.307 42.5857L771.072 43.5575L771.8 43.7342L772.174 43.085L771.307 42.5857ZM793.621 3.86746L794.118 3.00017L793.253 2.50324L792.754 3.36815L793.621 3.86746ZM793.073 2.81434C792.92 3.07953 792.806 3.35947 792.728 3.64947L794.659 4.16899C794.693 4.04209 794.742 3.92372 794.806 3.81295L793.073 2.81434ZM803.871 2.70699C801.767 1.49975 799.557 0.838853 797.654 0.786288C795.799 0.735007 793.961 1.27384 793.073 2.81433L794.806 3.81296C795.151 3.21467 796.041 2.74247 797.599 2.78553C799.111 2.8273 801.001 3.36612 802.875 4.4416L803.871 2.70699ZM809.209 12.0795C810.097 10.538 809.639 8.67983 808.661 7.10379C807.658 5.48853 805.974 3.9142 803.871 2.70699L802.875 4.4416C804.749 5.51712 806.166 6.87633 806.962 8.15862C807.782 9.48013 807.821 10.4836 807.476 11.0808L809.209 12.0795ZM808.66 12.797C808.871 12.5841 809.056 12.3447 809.209 12.0794L807.476 11.0808C807.412 11.1916 807.334 11.2933 807.242 11.3868L808.66 12.797ZM807.453 12.9592L807.526 13.0013L808.522 11.2667L808.448 11.2246L807.453 12.9592ZM807.157 11.6346L785.015 50.0559L786.748 51.0545L808.89 12.6333L807.157 11.6346ZM785.191 51.2782C795.239 60.8779 797.837 76.4171 790.587 88.9971L792.32 89.9957C800.04 76.5988 797.271 60.0535 786.573 49.8321L785.191 51.2782ZM790.587 88.9971C782.059 103.796 763.131 108.899 748.312 100.393L747.316 102.128C763.092 111.182 783.24 105.751 792.32 89.9957L790.587 88.9971ZM748.312 100.393C733.493 91.8887 728.395 72.9991 736.923 58.2015L735.19 57.2028C726.11 72.9592 731.539 93.0731 747.316 102.128L748.312 100.393ZM736.923 58.2015C743.95 46.0084 758.038 40.3955 771.072 43.5575L771.543 41.6139C757.671 38.2484 742.673 44.2189 735.19 57.2028L736.923 58.2015ZM772.174 43.085L794.487 4.36678L792.754 3.36815L770.441 42.0864L772.174 43.085ZM793.123 4.73476L793.196 4.77653L794.191 3.04194L794.118 3.00017L793.123 4.73476Z" fill="black" mask="url(#path-15-inside-8)"/>
<mask id="path-17-inside-9" fill="white">
<path fill-rule="evenodd" clip-rule="evenodd" d="M896.693 3.90923C896.75 3.70078 896.831 3.50163 896.939 3.31365C898.172 1.17487 902.396 1.29157 906.373 3.5743C910.35 5.85703 912.575 9.44137 911.343 11.5801C911.234 11.7681 911.103 11.9387 910.951 12.0919L911.024 12.134L888.882 50.5552C899.255 60.4657 901.939 76.508 894.453 89.4964C885.649 104.773 866.111 110.04 850.814 101.261C835.516 92.4809 830.252 72.9791 839.056 57.7022C846.311 45.1136 860.854 39.3219 874.307 42.5857L896.621 3.86746L896.693 3.90923Z"/>
</mask>
<path fill-rule="evenodd" clip-rule="evenodd" d="M896.693 3.90923C896.75 3.70078 896.831 3.50163 896.939 3.31365C898.172 1.17487 902.396 1.29157 906.373 3.5743C910.35 5.85703 912.575 9.44137 911.343 11.5801C911.234 11.7681 911.103 11.9387 910.951 12.0919L911.024 12.134L888.882 50.5552C899.255 60.4657 901.939 76.508 894.453 89.4964C885.649 104.773 866.111 110.04 850.814 101.261C835.516 92.4809 830.252 72.9791 839.056 57.7022C846.311 45.1136 860.854 39.3219 874.307 42.5857L896.621 3.86746L896.693 3.90923Z" fill="#15339C"/>
<path fill-rule="evenodd" clip-rule="evenodd" d="M896.693 3.90923C896.75 3.70078 896.831 3.50163 896.939 3.31365C898.172 1.17487 902.396 1.29157 906.373 3.5743C910.35 5.85703 912.575 9.44137 911.343 11.5801C911.234 11.7681 911.103 11.9387 910.951 12.0919L911.024 12.134L888.882 50.5552C899.255 60.4657 901.939 76.508 894.453 89.4964C885.649 104.773 866.111 110.04 850.814 101.261C835.516 92.4809 830.252 72.9791 839.056 57.7022C846.311 45.1136 860.854 39.3219 874.307 42.5857L896.621 3.86746L896.693 3.90923Z" fill="url(#paint8_linear)"/>
<path d="M896.939 3.31365L896.073 2.81433L896.073 2.81434L896.939 3.31365ZM896.693 3.90923L896.196 4.77653L897.322 5.42291L897.659 4.16899L896.693 3.90923ZM906.373 3.5743L906.871 2.70699L906.373 3.5743ZM911.343 11.5801L910.476 11.0808L910.476 11.0808L911.343 11.5801ZM910.951 12.0919L910.242 11.3868L909.323 12.3106L910.453 12.9592L910.951 12.0919ZM911.024 12.134L911.89 12.6333L912.391 11.7653L911.522 11.2667L911.024 12.134ZM888.882 50.5552L888.015 50.0559L887.624 50.736L888.191 51.2782L888.882 50.5552ZM894.453 89.4964L895.32 89.9957L894.453 89.4964ZM850.814 101.261L851.312 100.393L850.814 101.261ZM839.056 57.7022L839.923 58.2015L839.923 58.2015L839.056 57.7022ZM874.307 42.5857L874.072 43.5575L874.8 43.7342L875.174 43.085L874.307 42.5857ZM896.621 3.86746L897.118 3.00017L896.253 2.50324L895.754 3.36815L896.621 3.86746ZM896.073 2.81434C895.92 3.07953 895.806 3.35947 895.728 3.64947L897.659 4.16899C897.693 4.04209 897.742 3.92372 897.806 3.81295L896.073 2.81434ZM906.871 2.70699C904.767 1.49975 902.557 0.838853 900.654 0.786288C898.799 0.735007 896.961 1.27384 896.073 2.81433L897.806 3.81296C898.151 3.21467 899.041 2.74247 900.599 2.78553C902.111 2.8273 904.001 3.36612 905.875 4.4416L906.871 2.70699ZM912.209 12.0795C913.097 10.538 912.639 8.67983 911.661 7.10379C910.658 5.48853 908.974 3.9142 906.871 2.70699L905.875 4.4416C907.749 5.51712 909.166 6.87633 909.962 8.15862C910.782 9.48013 910.821 10.4836 910.476 11.0808L912.209 12.0795ZM911.66 12.797C911.871 12.5841 912.056 12.3447 912.209 12.0794L910.476 11.0808C910.412 11.1916 910.334 11.2933 910.242 11.3868L911.66 12.797ZM910.453 12.9592L910.526 13.0013L911.522 11.2667L911.448 11.2246L910.453 12.9592ZM910.157 11.6346L888.015 50.0559L889.748 51.0545L911.89 12.6333L910.157 11.6346ZM888.191 51.2782C898.239 60.8779 900.837 76.4171 893.587 88.9971L895.32 89.9957C903.04 76.5988 900.271 60.0535 889.573 49.8321L888.191 51.2782ZM893.587 88.9971C885.059 103.796 866.131 108.899 851.312 100.393L850.316 102.128C866.092 111.182 886.24 105.751 895.32 89.9957L893.587 88.9971ZM851.312 100.393C836.493 91.8887 831.395 72.9991 839.923 58.2015L838.19 57.2028C829.11 72.9592 834.539 93.0731 850.316 102.128L851.312 100.393ZM839.923 58.2015C846.95 46.0084 861.038 40.3955 874.072 43.5575L874.543 41.6139C860.671 38.2484 845.673 44.2189 838.19 57.2028L839.923 58.2015ZM875.174 43.085L897.487 4.36678L895.754 3.36815L873.441 42.0864L875.174 43.085ZM896.123 4.73476L896.196 4.77653L897.191 3.04194L897.118 3.00017L896.123 4.73476Z" fill="black" mask="url(#path-17-inside-9)"/>
<mask id="path-19-inside-10" fill="white">
<path fill-rule="evenodd" clip-rule="evenodd" d="M999.693 3.90923C999.75 3.70078 999.831 3.50163 999.939 3.31365C1001.17 1.17487 1005.4 1.29157 1009.37 3.5743C1013.35 5.85703 1015.58 9.44137 1014.34 11.5801C1014.23 11.7681 1014.1 11.9387 1013.95 12.0919L1014.02 12.134L991.882 50.5552C1002.25 60.4657 1004.94 76.508 997.453 89.4964C988.649 104.773 969.111 110.04 953.814 101.261C938.516 92.4809 933.252 72.9791 942.056 57.7022C949.311 45.1136 963.854 39.3219 977.307 42.5857L999.621 3.86746L999.693 3.90923Z"/>
</mask>
<path fill-rule="evenodd" clip-rule="evenodd" d="M999.693 3.90923C999.75 3.70078 999.831 3.50163 999.939 3.31365C1001.17 1.17487 1005.4 1.29157 1009.37 3.5743C1013.35 5.85703 1015.58 9.44137 1014.34 11.5801C1014.23 11.7681 1014.1 11.9387 1013.95 12.0919L1014.02 12.134L991.882 50.5552C1002.25 60.4657 1004.94 76.508 997.453 89.4964C988.649 104.773 969.111 110.04 953.814 101.261C938.516 92.4809 933.252 72.9791 942.056 57.7022C949.311 45.1136 963.854 39.3219 977.307 42.5857L999.621 3.86746L999.693 3.90923Z" fill="#15339C"/>
<path fill-rule="evenodd" clip-rule="evenodd" d="M999.693 3.90923C999.75 3.70078 999.831 3.50163 999.939 3.31365C1001.17 1.17487 1005.4 1.29157 1009.37 3.5743C1013.35 5.85703 1015.58 9.44137 1014.34 11.5801C1014.23 11.7681 1014.1 11.9387 1013.95 12.0919L1014.02 12.134L991.882 50.5552C1002.25 60.4657 1004.94 76.508 997.453 89.4964C988.649 104.773 969.111 110.04 953.814 101.261C938.516 92.4809 933.252 72.9791 942.056 57.7022C949.311 45.1136 963.854 39.3219 977.307 42.5857L999.621 3.86746L999.693 3.90923Z" fill="url(#paint9_linear)"/>
<path d="M999.939 3.31365L999.073 2.81433L999.073 2.81434L999.939 3.31365ZM999.693 3.90923L999.196 4.77653L1000.32 5.42291L1000.66 4.16899L999.693 3.90923ZM1009.37 3.5743L1009.87 2.70699L1009.37 3.5743ZM1014.34 11.5801L1013.48 11.0808L1013.48 11.0808L1014.34 11.5801ZM1013.95 12.0919L1013.24 11.3868L1012.32 12.3106L1013.45 12.9592L1013.95 12.0919ZM1014.02 12.134L1014.89 12.6333L1015.39 11.7653L1014.52 11.2667L1014.02 12.134ZM991.882 50.5552L991.015 50.0559L990.624 50.736L991.191 51.2782L991.882 50.5552ZM997.453 89.4964L998.32 89.9957L997.453 89.4964ZM953.814 101.261L954.312 100.393L953.814 101.261ZM942.056 57.7022L942.923 58.2015L942.923 58.2015L942.056 57.7022ZM977.307 42.5857L977.072 43.5575L977.8 43.7342L978.174 43.085L977.307 42.5857ZM999.621 3.86746L1000.12 3.00017L999.253 2.50324L998.754 3.36815L999.621 3.86746ZM999.073 2.81434C998.92 3.07953 998.806 3.35947 998.728 3.64947L1000.66 4.16899C1000.69 4.04209 1000.74 3.92372 1000.81 3.81295L999.073 2.81434ZM1009.87 2.70699C1007.77 1.49975 1005.56 0.838853 1003.65 0.786288C1001.8 0.735007 999.961 1.27384 999.073 2.81433L1000.81 3.81296C1001.15 3.21467 1002.04 2.74247 1003.6 2.78553C1005.11 2.8273 1007 3.36612 1008.88 4.4416L1009.87 2.70699ZM1015.21 12.0795C1016.1 10.538 1015.64 8.67983 1014.66 7.10379C1013.66 5.48853 1011.97 3.9142 1009.87 2.70699L1008.88 4.4416C1010.75 5.51712 1012.17 6.87633 1012.96 8.15862C1013.78 9.48013 1013.82 10.4836 1013.48 11.0808L1015.21 12.0795ZM1014.66 12.797C1014.87 12.5841 1015.06 12.3447 1015.21 12.0794L1013.48 11.0808C1013.41 11.1916 1013.33 11.2933 1013.24 11.3868L1014.66 12.797ZM1013.45 12.9592L1013.53 13.0013L1014.52 11.2667L1014.45 11.2246L1013.45 12.9592ZM1013.16 11.6346L991.015 50.0559L992.748 51.0545L1014.89 12.6333L1013.16 11.6346ZM991.191 51.2782C1001.24 60.8779 1003.84 76.4171 996.587 88.9971L998.32 89.9957C1006.04 76.5988 1003.27 60.0535 992.573 49.8321L991.191 51.2782ZM996.587 88.9971C988.059 103.796 969.131 108.899 954.312 100.393L953.316 102.128C969.092 111.182 989.24 105.751 998.32 89.9957L996.587 88.9971ZM954.312 100.393C939.493 91.8887 934.395 72.9991 942.923 58.2015L941.19 57.2028C932.11 72.9592 937.539 93.0731 953.316 102.128L954.312 100.393ZM942.923 58.2015C949.95 46.0084 964.038 40.3955 977.072 43.5575L977.543 41.6139C963.671 38.2484 948.673 44.2189 941.19 57.2028L942.923 58.2015ZM978.174 43.085L1000.49 4.36678L998.754 3.36815L976.441 42.0864L978.174 43.085ZM999.123 4.73476L999.196 4.77653L1000.19 3.04194L1000.12 3.00017L999.123 4.73476Z" fill="black" mask="url(#path-19-inside-10)"/>
<mask id="path-21-inside-11" fill="white">
<path fill-rule="evenodd" clip-rule="evenodd" d="M1102.69 3.90923C1102.75 3.70078 1102.83 3.50163 1102.94 3.31365C1104.17 1.17487 1108.4 1.29157 1112.37 3.5743C1116.35 5.85703 1118.58 9.44137 1117.34 11.5801C1117.23 11.7681 1117.1 11.9387 1116.95 12.0919L1117.02 12.134L1094.88 50.5552C1105.25 60.4657 1107.94 76.508 1100.45 89.4964C1091.65 104.773 1072.11 110.04 1056.81 101.261C1041.52 92.4809 1036.25 72.9791 1045.06 57.7022C1052.31 45.1136 1066.85 39.3219 1080.31 42.5857L1102.62 3.86746L1102.69 3.90923Z"/>
</mask>
<path fill-rule="evenodd" clip-rule="evenodd" d="M1102.69 3.90923C1102.75 3.70078 1102.83 3.50163 1102.94 3.31365C1104.17 1.17487 1108.4 1.29157 1112.37 3.5743C1116.35 5.85703 1118.58 9.44137 1117.34 11.5801C1117.23 11.7681 1117.1 11.9387 1116.95 12.0919L1117.02 12.134L1094.88 50.5552C1105.25 60.4657 1107.94 76.508 1100.45 89.4964C1091.65 104.773 1072.11 110.04 1056.81 101.261C1041.52 92.4809 1036.25 72.9791 1045.06 57.7022C1052.31 45.1136 1066.85 39.3219 1080.31 42.5857L1102.62 3.86746L1102.69 3.90923Z" fill="#15339C"/>
<path fill-rule="evenodd" clip-rule="evenodd" d="M1102.69 3.90923C1102.75 3.70078 1102.83 3.50163 1102.94 3.31365C1104.17 1.17487 1108.4 1.29157 1112.37 3.5743C1116.35 5.85703 1118.58 9.44137 1117.34 11.5801C1117.23 11.7681 1117.1 11.9387 1116.95 12.0919L1117.02 12.134L1094.88 50.5552C1105.25 60.4657 1107.94 76.508 1100.45 89.4964C1091.65 104.773 1072.11 110.04 1056.81 101.261C1041.52 92.4809 1036.25 72.9791 1045.06 57.7022C1052.31 45.1136 1066.85 39.3219 1080.31 42.5857L1102.62 3.86746L1102.69 3.90923Z" fill="url(#paint10_linear)"/>
<path d="M1102.94 3.31365L1102.07 2.81433L1102.07 2.81434L1102.94 3.31365ZM1102.69 3.90923L1102.2 4.77653L1103.32 5.42291L1103.66 4.16899L1102.69 3.90923ZM1112.37 3.5743L1112.87 2.70699L1112.37 3.5743ZM1117.34 11.5801L1116.48 11.0808L1116.48 11.0808L1117.34 11.5801ZM1116.95 12.0919L1116.24 11.3868L1115.32 12.3106L1116.45 12.9592L1116.95 12.0919ZM1117.02 12.134L1117.89 12.6333L1118.39 11.7653L1117.52 11.2667L1117.02 12.134ZM1094.88 50.5552L1094.02 50.0559L1093.62 50.736L1094.19 51.2782L1094.88 50.5552ZM1100.45 89.4964L1101.32 89.9957L1100.45 89.4964ZM1056.81 101.261L1057.31 100.393L1056.81 101.261ZM1045.06 57.7022L1045.92 58.2015L1045.92 58.2015L1045.06 57.7022ZM1080.31 42.5857L1080.07 43.5575L1080.8 43.7342L1081.17 43.085L1080.31 42.5857ZM1102.62 3.86746L1103.12 3.00017L1102.25 2.50324L1101.75 3.36815L1102.62 3.86746ZM1102.07 2.81434C1101.92 3.07953 1101.81 3.35947 1101.73 3.64947L1103.66 4.16899C1103.69 4.04209 1103.74 3.92372 1103.81 3.81295L1102.07 2.81434ZM1112.87 2.70699C1110.77 1.49975 1108.56 0.838853 1106.65 0.786288C1104.8 0.735007 1102.96 1.27384 1102.07 2.81433L1103.81 3.81296C1104.15 3.21467 1105.04 2.74247 1106.6 2.78553C1108.11 2.8273 1110 3.36612 1111.88 4.4416L1112.87 2.70699ZM1118.21 12.0795C1119.1 10.538 1118.64 8.67983 1117.66 7.10379C1116.66 5.48853 1114.97 3.9142 1112.87 2.70699L1111.88 4.4416C1113.75 5.51712 1115.17 6.87633 1115.96 8.15862C1116.78 9.48013 1116.82 10.4836 1116.48 11.0808L1118.21 12.0795ZM1117.66 12.797C1117.87 12.5841 1118.06 12.3447 1118.21 12.0794L1116.48 11.0808C1116.41 11.1916 1116.33 11.2933 1116.24 11.3868L1117.66 12.797ZM1116.45 12.9592L1116.53 13.0013L1117.52 11.2667L1117.45 11.2246L1116.45 12.9592ZM1116.16 11.6346L1094.02 50.0559L1095.75 51.0545L1117.89 12.6333L1116.16 11.6346ZM1094.19 51.2782C1104.24 60.8779 1106.84 76.4171 1099.59 88.9971L1101.32 89.9957C1109.04 76.5988 1106.27 60.0535 1095.57 49.8321L1094.19 51.2782ZM1099.59 88.9971C1091.06 103.796 1072.13 108.899 1057.31 100.393L1056.32 102.128C1072.09 111.182 1092.24 105.751 1101.32 89.9957L1099.59 88.9971ZM1057.31 100.393C1042.49 91.8887 1037.4 72.9991 1045.92 58.2015L1044.19 57.2028C1035.11 72.9592 1040.54 93.0731 1056.32 102.128L1057.31 100.393ZM1045.92 58.2015C1052.95 46.0084 1067.04 40.3955 1080.07 43.5575L1080.54 41.6139C1066.67 38.2484 1051.67 44.2189 1044.19 57.2028L1045.92 58.2015ZM1081.17 43.085L1103.49 4.36678L1101.75 3.36815L1079.44 42.0864L1081.17 43.085ZM1102.12 4.73476L1102.2 4.77653L1103.19 3.04194L1103.12 3.00017L1102.12 4.73476Z" fill="black" mask="url(#path-21-inside-11)"/>
<mask id="path-23-inside-12" fill="white">
<path fill-rule="evenodd" clip-rule="evenodd" d="M1205.69 3.90923C1205.75 3.70078 1205.83 3.50163 1205.94 3.31365C1207.17 1.17487 1211.4 1.29157 1215.37 3.5743C1219.35 5.85703 1221.58 9.44137 1220.34 11.5801C1220.23 11.7681 1220.1 11.9387 1219.95 12.0919L1220.02 12.134L1197.88 50.5552C1208.25 60.4657 1210.94 76.508 1203.45 89.4964C1194.65 104.773 1175.11 110.04 1159.81 101.261C1144.52 92.4809 1139.25 72.9791 1148.06 57.7022C1155.31 45.1136 1169.85 39.3219 1183.31 42.5857L1205.62 3.86746L1205.69 3.90923Z"/>
</mask>
<path fill-rule="evenodd" clip-rule="evenodd" d="M1205.69 3.90923C1205.75 3.70078 1205.83 3.50163 1205.94 3.31365C1207.17 1.17487 1211.4 1.29157 1215.37 3.5743C1219.35 5.85703 1221.58 9.44137 1220.34 11.5801C1220.23 11.7681 1220.1 11.9387 1219.95 12.0919L1220.02 12.134L1197.88 50.5552C1208.25 60.4657 1210.94 76.508 1203.45 89.4964C1194.65 104.773 1175.11 110.04 1159.81 101.261C1144.52 92.4809 1139.25 72.9791 1148.06 57.7022C1155.31 45.1136 1169.85 39.3219 1183.31 42.5857L1205.62 3.86746L1205.69 3.90923Z" fill="#15339C"/>
<path fill-rule="evenodd" clip-rule="evenodd" d="M1205.69 3.90923C1205.75 3.70078 1205.83 3.50163 1205.94 3.31365C1207.17 1.17487 1211.4 1.29157 1215.37 3.5743C1219.35 5.85703 1221.58 9.44137 1220.34 11.5801C1220.23 11.7681 1220.1 11.9387 1219.95 12.0919L1220.02 12.134L1197.88 50.5552C1208.25 60.4657 1210.94 76.508 1203.45 89.4964C1194.65 104.773 1175.11 110.04 1159.81 101.261C1144.52 92.4809 1139.25 72.9791 1148.06 57.7022C1155.31 45.1136 1169.85 39.3219 1183.31 42.5857L1205.62 3.86746L1205.69 3.90923Z" fill="url(#paint11_linear)"/>
<path d="M1205.94 3.31365L1205.07 2.81433L1205.07 2.81434L1205.94 3.31365ZM1205.69 3.90923L1205.2 4.77653L1206.32 5.42291L1206.66 4.16899L1205.69 3.90923ZM1215.37 3.5743L1215.87 2.70699L1215.37 3.5743ZM1220.34 11.5801L1219.48 11.0808L1219.48 11.0808L1220.34 11.5801ZM1219.95 12.0919L1219.24 11.3868L1218.32 12.3106L1219.45 12.9592L1219.95 12.0919ZM1220.02 12.134L1220.89 12.6333L1221.39 11.7653L1220.52 11.2667L1220.02 12.134ZM1197.88 50.5552L1197.02 50.0559L1196.62 50.736L1197.19 51.2782L1197.88 50.5552ZM1203.45 89.4964L1204.32 89.9957L1203.45 89.4964ZM1159.81 101.261L1160.31 100.393L1159.81 101.261ZM1148.06 57.7022L1148.92 58.2015L1148.92 58.2015L1148.06 57.7022ZM1183.31 42.5857L1183.07 43.5575L1183.8 43.7342L1184.17 43.085L1183.31 42.5857ZM1205.62 3.86746L1206.12 3.00017L1205.25 2.50324L1204.75 3.36815L1205.62 3.86746ZM1205.07 2.81434C1204.92 3.07953 1204.81 3.35947 1204.73 3.64947L1206.66 4.16899C1206.69 4.04209 1206.74 3.92372 1206.81 3.81295L1205.07 2.81434ZM1215.87 2.70699C1213.77 1.49975 1211.56 0.838853 1209.65 0.786288C1207.8 0.735007 1205.96 1.27384 1205.07 2.81433L1206.81 3.81296C1207.15 3.21467 1208.04 2.74247 1209.6 2.78553C1211.11 2.8273 1213 3.36612 1214.88 4.4416L1215.87 2.70699ZM1221.21 12.0795C1222.1 10.538 1221.64 8.67983 1220.66 7.10379C1219.66 5.48853 1217.97 3.9142 1215.87 2.70699L1214.88 4.4416C1216.75 5.51712 1218.17 6.87633 1218.96 8.15862C1219.78 9.48013 1219.82 10.4836 1219.48 11.0808L1221.21 12.0795ZM1220.66 12.797C1220.87 12.5841 1221.06 12.3447 1221.21 12.0794L1219.48 11.0808C1219.41 11.1916 1219.33 11.2933 1219.24 11.3868L1220.66 12.797ZM1219.45 12.9592L1219.53 13.0013L1220.52 11.2667L1220.45 11.2246L1219.45 12.9592ZM1219.16 11.6346L1197.02 50.0559L1198.75 51.0545L1220.89 12.6333L1219.16 11.6346ZM1197.19 51.2782C1207.24 60.8779 1209.84 76.4171 1202.59 88.9971L1204.32 89.9957C1212.04 76.5988 1209.27 60.0535 1198.57 49.8321L1197.19 51.2782ZM1202.59 88.9971C1194.06 103.796 1175.13 108.899 1160.31 100.393L1159.32 102.128C1175.09 111.182 1195.24 105.751 1204.32 89.9957L1202.59 88.9971ZM1160.31 100.393C1145.49 91.8887 1140.4 72.9991 1148.92 58.2015L1147.19 57.2028C1138.11 72.9592 1143.54 93.0731 1159.32 102.128L1160.31 100.393ZM1148.92 58.2015C1155.95 46.0084 1170.04 40.3955 1183.07 43.5575L1183.54 41.6139C1169.67 38.2484 1154.67 44.2189 1147.19 57.2028L1148.92 58.2015ZM1184.17 43.085L1206.49 4.36678L1204.75 3.36815L1182.44 42.0864L1184.17 43.085ZM1205.12 4.73476L1205.2 4.77653L1206.19 3.04194L1206.12 3.00017L1205.12 4.73476Z" fill="black" mask="url(#path-23-inside-12)"/>
<mask id="path-25-inside-13" fill="white">
<path fill-rule="evenodd" clip-rule="evenodd" d="M1308.69 3.90923C1308.75 3.70078 1308.83 3.50163 1308.94 3.31365C1310.17 1.17487 1314.4 1.29157 1318.37 3.5743C1322.35 5.85703 1324.58 9.44137 1323.34 11.5801C1323.23 11.7681 1323.1 11.9387 1322.95 12.0919L1323.02 12.134L1300.88 50.5552C1311.25 60.4657 1313.94 76.508 1306.45 89.4964C1297.65 104.773 1278.11 110.04 1262.81 101.261C1247.52 92.4809 1242.25 72.9791 1251.06 57.7022C1258.31 45.1136 1272.85 39.3219 1286.31 42.5857L1308.62 3.86746L1308.69 3.90923Z"/>
</mask>
<path fill-rule="evenodd" clip-rule="evenodd" d="M1308.69 3.90923C1308.75 3.70078 1308.83 3.50163 1308.94 3.31365C1310.17 1.17487 1314.4 1.29157 1318.37 3.5743C1322.35 5.85703 1324.58 9.44137 1323.34 11.5801C1323.23 11.7681 1323.1 11.9387 1322.95 12.0919L1323.02 12.134L1300.88 50.5552C1311.25 60.4657 1313.94 76.508 1306.45 89.4964C1297.65 104.773 1278.11 110.04 1262.81 101.261C1247.52 92.4809 1242.25 72.9791 1251.06 57.7022C1258.31 45.1136 1272.85 39.3219 1286.31 42.5857L1308.62 3.86746L1308.69 3.90923Z" fill="#15339C"/>
<path fill-rule="evenodd" clip-rule="evenodd" d="M1308.69 3.90923C1308.75 3.70078 1308.83 3.50163 1308.94 3.31365C1310.17 1.17487 1314.4 1.29157 1318.37 3.5743C1322.35 5.85703 1324.58 9.44137 1323.34 11.5801C1323.23 11.7681 1323.1 11.9387 1322.95 12.0919L1323.02 12.134L1300.88 50.5552C1311.25 60.4657 1313.94 76.508 1306.45 89.4964C1297.65 104.773 1278.11 110.04 1262.81 101.261C1247.52 92.4809 1242.25 72.9791 1251.06 57.7022C1258.31 45.1136 1272.85 39.3219 1286.31 42.5857L1308.62 3.86746L1308.69 3.90923Z" fill="url(#paint12_linear)"/>
<path d="M1308.94 3.31365L1308.07 2.81433L1308.07 2.81434L1308.94 3.31365ZM1308.69 3.90923L1308.2 4.77653L1309.32 5.42291L1309.66 4.16899L1308.69 3.90923ZM1318.37 3.5743L1318.87 2.70699L1318.37 3.5743ZM1323.34 11.5801L1322.48 11.0808L1322.48 11.0808L1323.34 11.5801ZM1322.95 12.0919L1322.24 11.3868L1321.32 12.3106L1322.45 12.9592L1322.95 12.0919ZM1323.02 12.134L1323.89 12.6333L1324.39 11.7653L1323.52 11.2667L1323.02 12.134ZM1300.88 50.5552L1300.02 50.0559L1299.62 50.736L1300.19 51.2782L1300.88 50.5552ZM1306.45 89.4964L1307.32 89.9957L1306.45 89.4964ZM1262.81 101.261L1263.31 100.393L1262.81 101.261ZM1251.06 57.7022L1251.92 58.2015L1251.92 58.2015L1251.06 57.7022ZM1286.31 42.5857L1286.07 43.5575L1286.8 43.7342L1287.17 43.085L1286.31 42.5857ZM1308.62 3.86746L1309.12 3.00017L1308.25 2.50324L1307.75 3.36815L1308.62 3.86746ZM1308.07 2.81434C1307.92 3.07953 1307.81 3.35947 1307.73 3.64947L1309.66 4.16899C1309.69 4.04209 1309.74 3.92372 1309.81 3.81295L1308.07 2.81434ZM1318.87 2.70699C1316.77 1.49975 1314.56 0.838853 1312.65 0.786288C1310.8 0.735007 1308.96 1.27384 1308.07 2.81433L1309.81 3.81296C1310.15 3.21467 1311.04 2.74247 1312.6 2.78553C1314.11 2.8273 1316 3.36612 1317.88 4.4416L1318.87 2.70699ZM1324.21 12.0795C1325.1 10.538 1324.64 8.67983 1323.66 7.10379C1322.66 5.48853 1320.97 3.9142 1318.87 2.70699L1317.88 4.4416C1319.75 5.51712 1321.17 6.87633 1321.96 8.15862C1322.78 9.48013 1322.82 10.4836 1322.48 11.0808L1324.21 12.0795ZM1323.66 12.797C1323.87 12.5841 1324.06 12.3447 1324.21 12.0794L1322.48 11.0808C1322.41 11.1916 1322.33 11.2933 1322.24 11.3868L1323.66 12.797ZM1322.45 12.9592L1322.53 13.0013L1323.52 11.2667L1323.45 11.2246L1322.45 12.9592ZM1322.16 11.6346L1300.02 50.0559L1301.75 51.0545L1323.89 12.6333L1322.16 11.6346ZM1300.19 51.2782C1310.24 60.8779 1312.84 76.4171 1305.59 88.9971L1307.32 89.9957C1315.04 76.5988 1312.27 60.0535 1301.57 49.8321L1300.19 51.2782ZM1305.59 88.9971C1297.06 103.796 1278.13 108.899 1263.31 100.393L1262.32 102.128C1278.09 111.182 1298.24 105.751 1307.32 89.9957L1305.59 88.9971ZM1263.31 100.393C1248.49 91.8887 1243.4 72.9991 1251.92 58.2015L1250.19 57.2028C1241.11 72.9592 1246.54 93.0731 1262.32 102.128L1263.31 100.393ZM1251.92 58.2015C1258.95 46.0084 1273.04 40.3955 1286.07 43.5575L1286.54 41.6139C1272.67 38.2484 1257.67 44.2189 1250.19 57.2028L1251.92 58.2015ZM1287.17 43.085L1309.49 4.36678L1307.75 3.36815L1285.44 42.0864L1287.17 43.085ZM1308.12 4.73476L1308.2 4.77653L1309.19 3.04194L1309.12 3.00017L1308.12 4.73476Z" fill="black" mask="url(#path-25-inside-13)"/>
<mask id="path-27-inside-14" fill="white">
<path fill-rule="evenodd" clip-rule="evenodd" d="M1411.69 3.90923C1411.75 3.70078 1411.83 3.50163 1411.94 3.31365C1413.17 1.17487 1417.4 1.29157 1421.37 3.5743C1425.35 5.85703 1427.58 9.44137 1426.34 11.5801C1426.23 11.7681 1426.1 11.9387 1425.95 12.0919L1426.02 12.134L1403.88 50.5552C1414.25 60.4657 1416.94 76.508 1409.45 89.4964C1400.65 104.773 1381.11 110.04 1365.81 101.261C1350.52 92.4809 1345.25 72.9791 1354.06 57.7022C1361.31 45.1136 1375.85 39.3219 1389.31 42.5857L1411.62 3.86746L1411.69 3.90923Z"/>
</mask>
<path fill-rule="evenodd" clip-rule="evenodd" d="M1411.69 3.90923C1411.75 3.70078 1411.83 3.50163 1411.94 3.31365C1413.17 1.17487 1417.4 1.29157 1421.37 3.5743C1425.35 5.85703 1427.58 9.44137 1426.34 11.5801C1426.23 11.7681 1426.1 11.9387 1425.95 12.0919L1426.02 12.134L1403.88 50.5552C1414.25 60.4657 1416.94 76.508 1409.45 89.4964C1400.65 104.773 1381.11 110.04 1365.81 101.261C1350.52 92.4809 1345.25 72.9791 1354.06 57.7022C1361.31 45.1136 1375.85 39.3219 1389.31 42.5857L1411.62 3.86746L1411.69 3.90923Z" fill="#15339C"/>
<path fill-rule="evenodd" clip-rule="evenodd" d="M1411.69 3.90923C1411.75 3.70078 1411.83 3.50163 1411.94 3.31365C1413.17 1.17487 1417.4 1.29157 1421.37 3.5743C1425.35 5.85703 1427.58 9.44137 1426.34 11.5801C1426.23 11.7681 1426.1 11.9387 1425.95 12.0919L1426.02 12.134L1403.88 50.5552C1414.25 60.4657 1416.94 76.508 1409.45 89.4964C1400.65 104.773 1381.11 110.04 1365.81 101.261C1350.52 92.4809 1345.25 72.9791 1354.06 57.7022C1361.31 45.1136 1375.85 39.3219 1389.31 42.5857L1411.62 3.86746L1411.69 3.90923Z" fill="url(#paint13_linear)"/>
<path d="M1411.94 3.31365L1411.07 2.81433L1411.07 2.81434L1411.94 3.31365ZM1411.69 3.90923L1411.2 4.77653L1412.32 5.42291L1412.66 4.16899L1411.69 3.90923ZM1421.37 3.5743L1421.87 2.70699L1421.37 3.5743ZM1426.34 11.5801L1425.48 11.0808L1425.48 11.0808L1426.34 11.5801ZM1425.95 12.0919L1425.24 11.3868L1424.32 12.3106L1425.45 12.9592L1425.95 12.0919ZM1426.02 12.134L1426.89 12.6333L1427.39 11.7653L1426.52 11.2667L1426.02 12.134ZM1403.88 50.5552L1403.02 50.0559L1402.62 50.736L1403.19 51.2782L1403.88 50.5552ZM1409.45 89.4964L1410.32 89.9957L1409.45 89.4964ZM1365.81 101.261L1366.31 100.393L1365.81 101.261ZM1354.06 57.7022L1354.92 58.2015L1354.92 58.2015L1354.06 57.7022ZM1389.31 42.5857L1389.07 43.5575L1389.8 43.7342L1390.17 43.085L1389.31 42.5857ZM1411.62 3.86746L1412.12 3.00017L1411.25 2.50324L1410.75 3.36815L1411.62 3.86746ZM1411.07 2.81434C1410.92 3.07953 1410.81 3.35947 1410.73 3.64947L1412.66 4.16899C1412.69 4.04209 1412.74 3.92372 1412.81 3.81295L1411.07 2.81434ZM1421.87 2.70699C1419.77 1.49975 1417.56 0.838853 1415.65 0.786288C1413.8 0.735007 1411.96 1.27384 1411.07 2.81433L1412.81 3.81296C1413.15 3.21467 1414.04 2.74247 1415.6 2.78553C1417.11 2.8273 1419 3.36612 1420.88 4.4416L1421.87 2.70699ZM1427.21 12.0795C1428.1 10.538 1427.64 8.67983 1426.66 7.10379C1425.66 5.48853 1423.97 3.9142 1421.87 2.70699L1420.88 4.4416C1422.75 5.51712 1424.17 6.87633 1424.96 8.15862C1425.78 9.48013 1425.82 10.4836 1425.48 11.0808L1427.21 12.0795ZM1426.66 12.797C1426.87 12.5841 1427.06 12.3447 1427.21 12.0794L1425.48 11.0808C1425.41 11.1916 1425.33 11.2933 1425.24 11.3868L1426.66 12.797ZM1425.45 12.9592L1425.53 13.0013L1426.52 11.2667L1426.45 11.2246L1425.45 12.9592ZM1425.16 11.6346L1403.02 50.0559L1404.75 51.0545L1426.89 12.6333L1425.16 11.6346ZM1403.19 51.2782C1413.24 60.8779 1415.84 76.4171 1408.59 88.9971L1410.32 89.9957C1418.04 76.5988 1415.27 60.0535 1404.57 49.8321L1403.19 51.2782ZM1408.59 88.9971C1400.06 103.796 1381.13 108.899 1366.31 100.393L1365.32 102.128C1381.09 111.182 1401.24 105.751 1410.32 89.9957L1408.59 88.9971ZM1366.31 100.393C1351.49 91.8887 1346.4 72.9991 1354.92 58.2015L1353.19 57.2028C1344.11 72.9592 1349.54 93.0731 1365.32 102.128L1366.31 100.393ZM1354.92 58.2015C1361.95 46.0084 1376.04 40.3955 1389.07 43.5575L1389.54 41.6139C1375.67 38.2484 1360.67 44.2189 1353.19 57.2028L1354.92 58.2015ZM1390.17 43.085L1412.49 4.36678L1410.75 3.36815L1388.44 42.0864L1390.17 43.085ZM1411.12 4.73476L1411.2 4.77653L1412.19 3.04194L1412.12 3.00017L1411.12 4.73476Z" fill="black" mask="url(#path-27-inside-14)"/>
<mask id="path-29-inside-15" fill="white">
<path fill-rule="evenodd" clip-rule="evenodd" d="M1514.69 3.90923C1514.75 3.70078 1514.83 3.50163 1514.94 3.31365C1516.17 1.17487 1520.4 1.29157 1524.37 3.5743C1528.35 5.85703 1530.58 9.44137 1529.34 11.5801C1529.23 11.7681 1529.1 11.9387 1528.95 12.0919L1529.02 12.134L1506.88 50.5552C1517.25 60.4657 1519.94 76.508 1512.45 89.4964C1503.65 104.773 1484.11 110.04 1468.81 101.261C1453.52 92.4809 1448.25 72.9791 1457.06 57.7022C1464.31 45.1136 1478.85 39.3219 1492.31 42.5857L1514.62 3.86746L1514.69 3.90923Z"/>
</mask>
<path fill-rule="evenodd" clip-rule="evenodd" d="M1514.69 3.90923C1514.75 3.70078 1514.83 3.50163 1514.94 3.31365C1516.17 1.17487 1520.4 1.29157 1524.37 3.5743C1528.35 5.85703 1530.58 9.44137 1529.34 11.5801C1529.23 11.7681 1529.1 11.9387 1528.95 12.0919L1529.02 12.134L1506.88 50.5552C1517.25 60.4657 1519.94 76.508 1512.45 89.4964C1503.65 104.773 1484.11 110.04 1468.81 101.261C1453.52 92.4809 1448.25 72.9791 1457.06 57.7022C1464.31 45.1136 1478.85 39.3219 1492.31 42.5857L1514.62 3.86746L1514.69 3.90923Z" fill="#15339C"/>
<path fill-rule="evenodd" clip-rule="evenodd" d="M1514.69 3.90923C1514.75 3.70078 1514.83 3.50163 1514.94 3.31365C1516.17 1.17487 1520.4 1.29157 1524.37 3.5743C1528.35 5.85703 1530.58 9.44137 1529.34 11.5801C1529.23 11.7681 1529.1 11.9387 1528.95 12.0919L1529.02 12.134L1506.88 50.5552C1517.25 60.4657 1519.94 76.508 1512.45 89.4964C1503.65 104.773 1484.11 110.04 1468.81 101.261C1453.52 92.4809 1448.25 72.9791 1457.06 57.7022C1464.31 45.1136 1478.85 39.3219 1492.31 42.5857L1514.62 3.86746L1514.69 3.90923Z" fill="url(#paint14_linear)"/>
<path d="M1514.94 3.31365L1514.07 2.81433L1514.07 2.81434L1514.94 3.31365ZM1514.69 3.90923L1514.2 4.77653L1515.32 5.42291L1515.66 4.16899L1514.69 3.90923ZM1524.37 3.5743L1524.87 2.70699L1524.37 3.5743ZM1529.34 11.5801L1528.48 11.0808L1528.48 11.0808L1529.34 11.5801ZM1528.95 12.0919L1528.24 11.3868L1527.32 12.3106L1528.45 12.9592L1528.95 12.0919ZM1529.02 12.134L1529.89 12.6333L1530.39 11.7653L1529.52 11.2667L1529.02 12.134ZM1506.88 50.5552L1506.02 50.0559L1505.62 50.736L1506.19 51.2782L1506.88 50.5552ZM1512.45 89.4964L1513.32 89.9957L1512.45 89.4964ZM1468.81 101.261L1469.31 100.393L1468.81 101.261ZM1457.06 57.7022L1457.92 58.2015L1457.92 58.2015L1457.06 57.7022ZM1492.31 42.5857L1492.07 43.5575L1492.8 43.7342L1493.17 43.085L1492.31 42.5857ZM1514.62 3.86746L1515.12 3.00017L1514.25 2.50324L1513.75 3.36815L1514.62 3.86746ZM1514.07 2.81434C1513.92 3.07953 1513.81 3.35947 1513.73 3.64947L1515.66 4.16899C1515.69 4.04209 1515.74 3.92372 1515.81 3.81295L1514.07 2.81434ZM1524.87 2.70699C1522.77 1.49975 1520.56 0.838853 1518.65 0.786288C1516.8 0.735007 1514.96 1.27384 1514.07 2.81433L1515.81 3.81296C1516.15 3.21467 1517.04 2.74247 1518.6 2.78553C1520.11 2.8273 1522 3.36612 1523.88 4.4416L1524.87 2.70699ZM1530.21 12.0795C1531.1 10.538 1530.64 8.67983 1529.66 7.10379C1528.66 5.48853 1526.97 3.9142 1524.87 2.70699L1523.88 4.4416C1525.75 5.51712 1527.17 6.87633 1527.96 8.15862C1528.78 9.48013 1528.82 10.4836 1528.48 11.0808L1530.21 12.0795ZM1529.66 12.797C1529.87 12.5841 1530.06 12.3447 1530.21 12.0794L1528.48 11.0808C1528.41 11.1916 1528.33 11.2933 1528.24 11.3868L1529.66 12.797ZM1528.45 12.9592L1528.53 13.0013L1529.52 11.2667L1529.45 11.2246L1528.45 12.9592ZM1528.16 11.6346L1506.02 50.0559L1507.75 51.0545L1529.89 12.6333L1528.16 11.6346ZM1506.19 51.2782C1516.24 60.8779 1518.84 76.4171 1511.59 88.9971L1513.32 89.9957C1521.04 76.5988 1518.27 60.0535 1507.57 49.8321L1506.19 51.2782ZM1511.59 88.9971C1503.06 103.796 1484.13 108.899 1469.31 100.393L1468.32 102.128C1484.09 111.182 1504.24 105.751 1513.32 89.9957L1511.59 88.9971ZM1469.31 100.393C1454.49 91.8887 1449.4 72.9991 1457.92 58.2015L1456.19 57.2028C1447.11 72.9592 1452.54 93.0731 1468.32 102.128L1469.31 100.393ZM1457.92 58.2015C1464.95 46.0084 1479.04 40.3955 1492.07 43.5575L1492.54 41.6139C1478.67 38.2484 1463.67 44.2189 1456.19 57.2028L1457.92 58.2015ZM1493.17 43.085L1515.49 4.36678L1513.75 3.36815L1491.44 42.0864L1493.17 43.085ZM1514.12 4.73476L1514.2 4.77653L1515.19 3.04194L1515.12 3.00017L1514.12 4.73476Z" fill="black" mask="url(#path-29-inside-15)"/>
<mask id="path-31-inside-16" fill="white">
<path fill-rule="evenodd" clip-rule="evenodd" d="M1617.69 3.90923C1617.75 3.70078 1617.83 3.50163 1617.94 3.31365C1619.17 1.17487 1623.4 1.29157 1627.37 3.5743C1631.35 5.85703 1633.58 9.44137 1632.34 11.5801C1632.23 11.7681 1632.1 11.9387 1631.95 12.0919L1632.02 12.134L1609.88 50.5552C1620.25 60.4657 1622.94 76.508 1615.45 89.4964C1606.65 104.773 1587.11 110.04 1571.81 101.261C1556.52 92.4809 1551.25 72.9791 1560.06 57.7022C1567.31 45.1136 1581.85 39.3219 1595.31 42.5857L1617.62 3.86746L1617.69 3.90923Z"/>
</mask>
<path fill-rule="evenodd" clip-rule="evenodd" d="M1617.69 3.90923C1617.75 3.70078 1617.83 3.50163 1617.94 3.31365C1619.17 1.17487 1623.4 1.29157 1627.37 3.5743C1631.35 5.85703 1633.58 9.44137 1632.34 11.5801C1632.23 11.7681 1632.1 11.9387 1631.95 12.0919L1632.02 12.134L1609.88 50.5552C1620.25 60.4657 1622.94 76.508 1615.45 89.4964C1606.65 104.773 1587.11 110.04 1571.81 101.261C1556.52 92.4809 1551.25 72.9791 1560.06 57.7022C1567.31 45.1136 1581.85 39.3219 1595.31 42.5857L1617.62 3.86746L1617.69 3.90923Z" fill="#15339C"/>
<path fill-rule="evenodd" clip-rule="evenodd" d="M1617.69 3.90923C1617.75 3.70078 1617.83 3.50163 1617.94 3.31365C1619.17 1.17487 1623.4 1.29157 1627.37 3.5743C1631.35 5.85703 1633.58 9.44137 1632.34 11.5801C1632.23 11.7681 1632.1 11.9387 1631.95 12.0919L1632.02 12.134L1609.88 50.5552C1620.25 60.4657 1622.94 76.508 1615.45 89.4964C1606.65 104.773 1587.11 110.04 1571.81 101.261C1556.52 92.4809 1551.25 72.9791 1560.06 57.7022C1567.31 45.1136 1581.85 39.3219 1595.31 42.5857L1617.62 3.86746L1617.69 3.90923Z" fill="url(#paint15_linear)"/>
<path d="M1617.94 3.31365L1617.07 2.81433L1617.07 2.81434L1617.94 3.31365ZM1617.69 3.90923L1617.2 4.77653L1618.32 5.42291L1618.66 4.16899L1617.69 3.90923ZM1627.37 3.5743L1627.87 2.70699L1627.37 3.5743ZM1632.34 11.5801L1631.48 11.0808L1631.48 11.0808L1632.34 11.5801ZM1631.95 12.0919L1631.24 11.3868L1630.32 12.3106L1631.45 12.9592L1631.95 12.0919ZM1632.02 12.134L1632.89 12.6333L1633.39 11.7653L1632.52 11.2667L1632.02 12.134ZM1609.88 50.5552L1609.02 50.0559L1608.62 50.736L1609.19 51.2782L1609.88 50.5552ZM1615.45 89.4964L1616.32 89.9957L1615.45 89.4964ZM1571.81 101.261L1572.31 100.393L1571.81 101.261ZM1560.06 57.7022L1560.92 58.2015L1560.92 58.2015L1560.06 57.7022ZM1595.31 42.5857L1595.07 43.5575L1595.8 43.7342L1596.17 43.085L1595.31 42.5857ZM1617.62 3.86746L1618.12 3.00017L1617.25 2.50324L1616.75 3.36815L1617.62 3.86746ZM1617.07 2.81434C1616.92 3.07953 1616.81 3.35947 1616.73 3.64947L1618.66 4.16899C1618.69 4.04209 1618.74 3.92372 1618.81 3.81295L1617.07 2.81434ZM1627.87 2.70699C1625.77 1.49975 1623.56 0.838853 1621.65 0.786288C1619.8 0.735007 1617.96 1.27384 1617.07 2.81433L1618.81 3.81296C1619.15 3.21467 1620.04 2.74247 1621.6 2.78553C1623.11 2.8273 1625 3.36612 1626.88 4.4416L1627.87 2.70699ZM1633.21 12.0795C1634.1 10.538 1633.64 8.67983 1632.66 7.10379C1631.66 5.48853 1629.97 3.9142 1627.87 2.70699L1626.88 4.4416C1628.75 5.51712 1630.17 6.87633 1630.96 8.15862C1631.78 9.48013 1631.82 10.4836 1631.48 11.0808L1633.21 12.0795ZM1632.66 12.797C1632.87 12.5841 1633.06 12.3447 1633.21 12.0794L1631.48 11.0808C1631.41 11.1916 1631.33 11.2933 1631.24 11.3868L1632.66 12.797ZM1631.45 12.9592L1631.53 13.0013L1632.52 11.2667L1632.45 11.2246L1631.45 12.9592ZM1631.16 11.6346L1609.02 50.0559L1610.75 51.0545L1632.89 12.6333L1631.16 11.6346ZM1609.19 51.2782C1619.24 60.8779 1621.84 76.4171 1614.59 88.9971L1616.32 89.9957C1624.04 76.5988 1621.27 60.0535 1610.57 49.8321L1609.19 51.2782ZM1614.59 88.9971C1606.06 103.796 1587.13 108.899 1572.31 100.393L1571.32 102.128C1587.09 111.182 1607.24 105.751 1616.32 89.9957L1614.59 88.9971ZM1572.31 100.393C1557.49 91.8887 1552.4 72.9991 1560.92 58.2015L1559.19 57.2028C1550.11 72.9592 1555.54 93.0731 1571.32 102.128L1572.31 100.393ZM1560.92 58.2015C1567.95 46.0084 1582.04 40.3955 1595.07 43.5575L1595.54 41.6139C1581.67 38.2484 1566.67 44.2189 1559.19 57.2028L1560.92 58.2015ZM1596.17 43.085L1618.49 4.36678L1616.75 3.36815L1594.44 42.0864L1596.17 43.085ZM1617.12 4.73476L1617.2 4.77653L1618.19 3.04194L1618.12 3.00017L1617.12 4.73476Z" fill="black" mask="url(#path-31-inside-16)"/>
<defs>
<linearGradient id="paint0_linear" x1="42.9647" y1="7.57188" x2="59.7809" y2="102.994" gradientUnits="userSpaceOnUse">
<stop stop-color="#15339C"/>
<stop offset="1" stop-color="#99D5BC"/>
</linearGradient>
<linearGradient id="paint1_linear" x1="145.965" y1="7.57188" x2="162.781" y2="102.994" gradientUnits="userSpaceOnUse">
<stop stop-color="#15339C"/>
<stop offset="1" stop-color="#99D5BC"/>
</linearGradient>
<linearGradient id="paint2_linear" x1="248.965" y1="7.57188" x2="265.781" y2="102.994" gradientUnits="userSpaceOnUse">
<stop stop-color="#15339C"/>
<stop offset="1" stop-color="#99D5BC"/>
</linearGradient>
<linearGradient id="paint3_linear" x1="351.965" y1="7.57188" x2="368.781" y2="102.994" gradientUnits="userSpaceOnUse">
<stop stop-color="#15339C"/>
<stop offset="1" stop-color="#99D5BC"/>
</linearGradient>
<linearGradient id="paint4_linear" x1="454.965" y1="7.57188" x2="471.781" y2="102.994" gradientUnits="userSpaceOnUse">
<stop stop-color="#15339C"/>
<stop offset="1" stop-color="#99D5BC"/>
</linearGradient>
<linearGradient id="paint5_linear" x1="557.965" y1="7.57188" x2="574.781" y2="102.994" gradientUnits="userSpaceOnUse">
<stop stop-color="#15339C"/>
<stop offset="1" stop-color="#99D5BC"/>
</linearGradient>
<linearGradient id="paint6_linear" x1="660.965" y1="7.57188" x2="677.781" y2="102.994" gradientUnits="userSpaceOnUse">
<stop stop-color="#15339C"/>
<stop offset="1" stop-color="#99D5BC"/>
</linearGradient>
<linearGradient id="paint7_linear" x1="763.965" y1="7.57188" x2="780.781" y2="102.994" gradientUnits="userSpaceOnUse">
<stop stop-color="#15339C"/>
<stop offset="1" stop-color="#99D5BC"/>
</linearGradient>
<linearGradient id="paint8_linear" x1="866.965" y1="7.57188" x2="883.781" y2="102.994" gradientUnits="userSpaceOnUse">
<stop stop-color="#15339C"/>
<stop offset="1" stop-color="#99D5BC"/>
</linearGradient>
<linearGradient id="paint9_linear" x1="969.965" y1="7.57188" x2="986.781" y2="102.994" gradientUnits="userSpaceOnUse">
<stop stop-color="#15339C"/>
<stop offset="1" stop-color="#99D5BC"/>
</linearGradient>
<linearGradient id="paint10_linear" x1="1072.96" y1="7.57188" x2="1089.78" y2="102.994" gradientUnits="userSpaceOnUse">
<stop stop-color="#15339C"/>
<stop offset="1" stop-color="#99D5BC"/>
</linearGradient>
<linearGradient id="paint11_linear" x1="1175.96" y1="7.57188" x2="1192.78" y2="102.994" gradientUnits="userSpaceOnUse">
<stop stop-color="#15339C"/>
<stop offset="1" stop-color="#99D5BC"/>
</linearGradient>
<linearGradient id="paint12_linear" x1="1278.96" y1="7.57188" x2="1295.78" y2="102.994" gradientUnits="userSpaceOnUse">
<stop stop-color="#15339C"/>
<stop offset="1" stop-color="#99D5BC"/>
</linearGradient>
<linearGradient id="paint13_linear" x1="1381.96" y1="7.57188" x2="1398.78" y2="102.994" gradientUnits="userSpaceOnUse">
<stop stop-color="#15339C"/>
<stop offset="1" stop-color="#99D5BC"/>
</linearGradient>
<linearGradient id="paint14_linear" x1="1484.96" y1="7.57188" x2="1501.78" y2="102.994" gradientUnits="userSpaceOnUse">
<stop stop-color="#15339C"/>
<stop offset="1" stop-color="#99D5BC"/>
</linearGradient>
<linearGradient id="paint15_linear" x1="1587.96" y1="7.57188" x2="1604.78" y2="102.994" gradientUnits="userSpaceOnUse">
<stop stop-color="#15339C"/>
<stop offset="1" stop-color="#99D5BC"/>
</linearGradient>
</defs>
</svg>
