<svg width="103" height="111" viewBox="0 0 103 111" fill="none" xmlns="http://www.w3.org/2000/svg">
<mask id="path-1-inside-1" fill="white">
<path fill-rule="evenodd" clip-rule="evenodd" d="M72.6934 3.90923C72.7495 3.70078 72.8311 3.50163 72.9395 3.31365C74.172 1.17487 78.3955 1.29157 82.3729 3.5743C86.3502 5.85703 88.5753 9.44137 87.3427 11.5801C87.2344 11.7681 87.1029 11.9387 86.9506 12.0919L87.0239 12.134L64.8819 50.5552C75.255 60.4657 77.9386 76.508 70.4534 89.4964C61.6494 104.773 42.1112 110.04 26.8137 101.261C11.5163 92.4809 6.25232 72.9791 15.0564 57.7022C22.3111 45.1136 36.8543 39.3219 50.3075 42.5857L72.6207 3.86746L72.6934 3.90923Z"/>
</mask>
<path fill-rule="evenodd" clip-rule="evenodd" d="M72.6934 3.90923C72.7495 3.70078 72.8311 3.50163 72.9395 3.31365C74.172 1.17487 78.3955 1.29157 82.3729 3.5743C86.3502 5.85703 88.5753 9.44137 87.3427 11.5801C87.2344 11.7681 87.1029 11.9387 86.9506 12.0919L87.0239 12.134L64.8819 50.5552C75.255 60.4657 77.9386 76.508 70.4534 89.4964C61.6494 104.773 42.1112 110.04 26.8137 101.261C11.5163 92.4809 6.25232 72.9791 15.0564 57.7022C22.3111 45.1136 36.8543 39.3219 50.3075 42.5857L72.6207 3.86746L72.6934 3.90923Z" fill="#15339C"/>
<path fill-rule="evenodd" clip-rule="evenodd" d="M72.6934 3.90923C72.7495 3.70078 72.8311 3.50163 72.9395 3.31365C74.172 1.17487 78.3955 1.29157 82.3729 3.5743C86.3502 5.85703 88.5753 9.44137 87.3427 11.5801C87.2344 11.7681 87.1029 11.9387 86.9506 12.0919L87.0239 12.134L64.8819 50.5552C75.255 60.4657 77.9386 76.508 70.4534 89.4964C61.6494 104.773 42.1112 110.04 26.8137 101.261C11.5163 92.4809 6.25232 72.9791 15.0564 57.7022C22.3111 45.1136 36.8543 39.3219 50.3075 42.5857L72.6207 3.86746L72.6934 3.90923Z" fill="url(#paint0_linear)"/>
<path d="M72.9395 3.31365L72.0731 2.81433L72.0731 2.81434L72.9395 3.31365ZM72.6934 3.90923L72.1957 4.77653L73.3218 5.42291L73.6591 4.16899L72.6934 3.90923ZM82.3729 3.5743L82.8706 2.70699L82.3729 3.5743ZM87.3427 11.5801L86.4763 11.0808L86.4763 11.0808L87.3427 11.5801ZM86.9506 12.0919L86.2415 11.3868L85.3228 12.3106L86.4528 12.9592L86.9506 12.0919ZM87.0239 12.134L87.8903 12.6333L88.3905 11.7653L87.5217 11.2667L87.0239 12.134ZM64.8819 50.5552L64.0155 50.0559L63.6235 50.736L64.1911 51.2782L64.8819 50.5552ZM70.4534 89.4964L71.3198 89.9957L70.4534 89.4964ZM26.8137 101.261L27.3115 100.393L26.8137 101.261ZM15.0564 57.7022L15.9228 58.2015L15.9228 58.2015L15.0564 57.7022ZM50.3075 42.5857L50.0717 43.5575L50.7998 43.7342L51.1739 43.085L50.3075 42.5857ZM72.6207 3.86746L73.1185 3.00017L72.2527 2.50324L71.7542 3.36815L72.6207 3.86746ZM72.0731 2.81434C71.9202 3.07953 71.8058 3.35947 71.7278 3.64947L73.6591 4.16899C73.6933 4.04209 73.7421 3.92372 73.8059 3.81295L72.0731 2.81434ZM82.8706 2.70699C80.7672 1.49975 78.5569 0.838853 76.6545 0.786288C74.7986 0.735007 72.9608 1.27384 72.0731 2.81433L73.8059 3.81296C74.1507 3.21467 75.041 2.74247 76.5993 2.78553C78.111 2.8273 80.0012 3.36612 81.8751 4.4416L82.8706 2.70699ZM88.2091 12.0795C89.0975 10.538 88.6395 8.67983 87.6611 7.10379C86.6584 5.48853 84.974 3.9142 82.8706 2.70699L81.8751 4.4416C83.749 5.51712 85.1659 6.87633 85.9619 8.15862C86.7823 9.48013 86.8205 10.4836 86.4763 11.0808L88.2091 12.0795ZM87.6597 12.797C87.8714 12.5841 88.0563 12.3447 88.2091 12.0794L86.4763 11.0808C86.4125 11.1916 86.3344 11.2933 86.2415 11.3868L87.6597 12.797ZM86.4528 12.9592L86.5261 13.0013L87.5217 11.2667L87.4484 11.2246L86.4528 12.9592ZM86.1575 11.6346L64.0155 50.0559L65.7483 51.0545L87.8903 12.6333L86.1575 11.6346ZM64.1911 51.2782C74.2388 60.8779 76.8368 76.4171 69.587 88.9971L71.3198 89.9957C79.0404 76.5988 76.2712 60.0535 65.5727 49.8321L64.1911 51.2782ZM69.587 88.9971C61.0585 103.796 42.1308 108.899 27.3115 100.393L26.316 102.128C42.0916 111.182 62.2402 105.751 71.3198 89.9957L69.587 88.9971ZM27.3115 100.393C12.4934 91.8887 7.395 72.9991 15.9228 58.2015L14.19 57.2028C5.10964 72.9592 10.5392 93.0731 26.316 102.128L27.3115 100.393ZM15.9228 58.2015C22.9496 46.0084 37.038 40.3955 50.0717 43.5575L50.5433 41.6139C36.6707 38.2484 21.6726 44.2189 14.19 57.2028L15.9228 58.2015ZM51.1739 43.085L73.4871 4.36678L71.7542 3.36815L49.4411 42.0864L51.1739 43.085ZM72.1229 4.73476L72.1957 4.77653L73.1912 3.04194L73.1185 3.00017L72.1229 4.73476Z" fill="black" mask="url(#path-1-inside-1)"/>
<defs>
<linearGradient id="paint0_linear" x1="42.9647" y1="7.57188" x2="59.7809" y2="102.994" gradientUnits="userSpaceOnUse">
<stop stop-color="#99D5BC"/>
<stop offset="1" stop-color="#FC2525"/>
</linearGradient>
</defs>
</svg>
